  0
SECTION
  2
HEADER
  9
$ANGBASE
  50
0.0
  9
$ANGDIR
  70
1
  9
$MEASUREMENT
  70
1
  0
ENDSEC
  0
SECTION
  2
TABLES
  0
TABLE
  2
LTYPE
  70
4
  0
LTYPE
  5
40F
  2
CONTINUOUS
  70
0
  3
Solid line
  72
65
  73
0
  40
0.0
  0
LTYPE
  5
410
  2
DASHDOT
 70
0
  3
Dash Dot ____ _ ____ _
 72
65
 73
4
 40
2.0
 49
1.25
 49
-0.25
 49
0.25
 49
-0.25
  0
LTYPE
  5
411
  2
DASHED
 70
0
  3
Dashed __ __ __ __ __
 72
65
 73
2
 40
0.75
 49
0.5
 49
-0.25
  0
LTYPE
  5
43B
  2
DOTTED
 70
0
  3
Dotted .  .  .  .
 72
65
 73
2
 40
0.2
 49
0.0
 49
-0.2
  0
ENDTAB
  0
TABLE
  2
STYLE
  70
4
  0
STYLE
  2
KICAD
  70
0
  40
0
  41
1
  42
1
  50
0
  71
0
  3
isocp.shx
  0
STYLE
  2
KICADB
  70
0
  40
0
  41
1
  42
1
  50
0
  71
0
  3
isocp.shx
  0
STYLE
  2
KICADI
  70
0
  40
0
  41
1
  42
1
  50
15
  71
0
  3
isocp.shx
  0
STYLE
  2
KICADBI
  70
0
  40
0
  41
1
  42
1
  50
15
  71
0
  3
isocp.shx
  0
ENDTAB
  0
TABLE
  2
LAYER
  70
1
  0
LAYER
  2
BLACK
  70
0
  62
7
  6
CONTINUOUS
  0
ENDTAB
  0
ENDSEC
  0
SECTION
  2
ENTITIES
0
LINE
8
BLACK
6
CONTINUOUS
10
71.0151189999999986
20
-160.0354669999999828
11
71.0597269999999952
21
-160.0652729999999906
0
LINE
8
BLACK
6
CONTINUOUS
10
71.0597269999999952
20
-160.0652729999999906
11
71.089533000000003
21
-160.1098810000000014
0
LINE
8
BLACK
6
CONTINUOUS
10
71.089533000000003
20
-160.1098810000000014
11
71.0999999999999943
21
-160.1624999999999943
0
LINE
8
BLACK
6
CONTINUOUS
10
71.0999999999999943
20
-160.1624999999999943
11
71.0999999999999943
21
-160.4375
0
LINE
8
BLACK
6
CONTINUOUS
10
71.0999999999999943
20
-160.4375
11
71.089533000000003
21
-160.4901189999999929
0
LINE
8
BLACK
6
CONTINUOUS
10
71.089533000000003
20
-160.4901189999999929
11
71.0597269999999952
21
-160.5347270000000037
0
LINE
8
BLACK
6
CONTINUOUS
10
71.0597269999999952
20
-160.5347270000000037
11
71.0151189999999986
21
-160.5645329999999831
0
LINE
8
BLACK
6
CONTINUOUS
10
71.0151189999999986
20
-160.5645329999999831
11
70.9624999999999915
21
-160.5749999999999886
0
LINE
8
BLACK
6
CONTINUOUS
10
70.9624999999999915
20
-160.5749999999999886
11
70.4375
21
-160.5749999999999886
0
LINE
8
BLACK
6
CONTINUOUS
10
70.4375
20
-160.5749999999999886
11
70.3848809999999929
21
-160.5645329999999831
0
LINE
8
BLACK
6
CONTINUOUS
10
70.3848809999999929
20
-160.5645329999999831
11
70.3402729999999963
21
-160.5347270000000037
0
LINE
8
BLACK
6
CONTINUOUS
10
70.3402729999999963
20
-160.5347270000000037
11
70.3104670000000027
21
-160.4901189999999929
0
LINE
8
BLACK
6
CONTINUOUS
10
70.3104670000000027
20
-160.4901189999999929
11
70.2999999999999972
21
-160.4375
0
LINE
8
BLACK
6
CONTINUOUS
10
70.2999999999999972
20
-160.4375
11
70.2999999999999972
21
-160.1624999999999943
0
LINE
8
BLACK
6
CONTINUOUS
10
70.2999999999999972
20
-160.1624999999999943
11
70.3104670000000027
21
-160.1098810000000014
0
LINE
8
BLACK
6
CONTINUOUS
10
70.3104670000000027
20
-160.1098810000000014
11
70.3402729999999963
21
-160.0652729999999906
0
LINE
8
BLACK
6
CONTINUOUS
10
70.3402729999999963
20
-160.0652729999999906
11
70.3848809999999929
21
-160.0354669999999828
0
LINE
8
BLACK
6
CONTINUOUS
10
70.3848809999999929
20
-160.0354669999999828
11
70.4375
21
-160.0250000000000057
0
LINE
8
BLACK
6
CONTINUOUS
10
70.4375
20
-160.0250000000000057
11
70.9624999999999915
21
-160.0250000000000057
0
LINE
8
BLACK
6
CONTINUOUS
10
70.9624999999999915
20
-160.0250000000000057
11
71.0151189999999986
21
-160.0354669999999828
0
LINE
8
BLACK
6
CONTINUOUS
10
73.41511899999999
20
-160.0354669999999828
11
73.4597270000000009
21
-160.0652729999999906
0
LINE
8
BLACK
6
CONTINUOUS
10
73.4597270000000009
20
-160.0652729999999906
11
73.4895329999999944
21
-160.1098810000000014
0
LINE
8
BLACK
6
CONTINUOUS
10
73.4895329999999944
20
-160.1098810000000014
11
73.5
21
-160.1624999999999943
0
LINE
8
BLACK
6
CONTINUOUS
10
73.5
20
-160.1624999999999943
11
73.5
21
-160.4375
0
LINE
8
BLACK
6
CONTINUOUS
10
73.5
20
-160.4375
11
73.4895329999999944
21
-160.4901189999999929
0
LINE
8
BLACK
6
CONTINUOUS
10
73.4895329999999944
20
-160.4901189999999929
11
73.4597270000000009
21
-160.5347270000000037
0
LINE
8
BLACK
6
CONTINUOUS
10
73.4597270000000009
20
-160.5347270000000037
11
73.41511899999999
21
-160.5645329999999831
0
LINE
8
BLACK
6
CONTINUOUS
10
73.41511899999999
20
-160.5645329999999831
11
73.3624999999999972
21
-160.5749999999999886
0
LINE
8
BLACK
6
CONTINUOUS
10
73.3624999999999972
20
-160.5749999999999886
11
72.8374999999999915
21
-160.5749999999999886
0
LINE
8
BLACK
6
CONTINUOUS
10
72.8374999999999915
20
-160.5749999999999886
11
72.7848809999999986
21
-160.5645329999999831
0
LINE
8
BLACK
6
CONTINUOUS
10
72.7848809999999986
20
-160.5645329999999831
11
72.740273000000002
21
-160.5347270000000037
0
LINE
8
BLACK
6
CONTINUOUS
10
72.740273000000002
20
-160.5347270000000037
11
72.7104669999999942
21
-160.4901189999999929
0
LINE
8
BLACK
6
CONTINUOUS
10
72.7104669999999942
20
-160.4901189999999929
11
72.7000000000000028
21
-160.4375
0
LINE
8
BLACK
6
CONTINUOUS
10
72.7000000000000028
20
-160.4375
11
72.7000000000000028
21
-160.1624999999999943
0
LINE
8
BLACK
6
CONTINUOUS
10
72.7000000000000028
20
-160.1624999999999943
11
72.7104669999999942
21
-160.1098810000000014
0
LINE
8
BLACK
6
CONTINUOUS
10
72.7104669999999942
20
-160.1098810000000014
11
72.740273000000002
21
-160.0652729999999906
0
LINE
8
BLACK
6
CONTINUOUS
10
72.740273000000002
20
-160.0652729999999906
11
72.7848809999999986
21
-160.0354669999999828
0
LINE
8
BLACK
6
CONTINUOUS
10
72.7848809999999986
20
-160.0354669999999828
11
72.8374999999999915
21
-160.0250000000000057
0
LINE
8
BLACK
6
CONTINUOUS
10
72.8374999999999915
20
-160.0250000000000057
11
73.3624999999999972
21
-160.0250000000000057
0
LINE
8
BLACK
6
CONTINUOUS
10
73.3624999999999972
20
-160.0250000000000057
11
73.41511899999999
21
-160.0354669999999828
0
LINE
8
BLACK
6
CONTINUOUS
10
71.0151189999999986
20
-159.0854669999999942
11
71.0597269999999952
21
-159.115273000000002
0
LINE
8
BLACK
6
CONTINUOUS
10
71.0597269999999952
20
-159.115273000000002
11
71.089533000000003
21
-159.1598809999999844
0
LINE
8
BLACK
6
CONTINUOUS
10
71.089533000000003
20
-159.1598809999999844
11
71.0999999999999943
21
-159.2125000000000057
0
LINE
8
BLACK
6
CONTINUOUS
10
71.0999999999999943
20
-159.2125000000000057
11
71.0999999999999943
21
-159.4874999999999829
0
LINE
8
BLACK
6
CONTINUOUS
10
71.0999999999999943
20
-159.4874999999999829
11
71.089533000000003
21
-159.5401190000000042
0
LINE
8
BLACK
6
CONTINUOUS
10
71.089533000000003
20
-159.5401190000000042
11
71.0597269999999952
21
-159.5847269999999867
0
LINE
8
BLACK
6
CONTINUOUS
10
71.0597269999999952
20
-159.5847269999999867
11
71.0151189999999986
21
-159.6145329999999944
0
LINE
8
BLACK
6
CONTINUOUS
10
71.0151189999999986
20
-159.6145329999999944
11
70.9624999999999915
21
-159.625
0
LINE
8
BLACK
6
CONTINUOUS
10
70.9624999999999915
20
-159.625
11
70.4375
21
-159.625
0
LINE
8
BLACK
6
CONTINUOUS
10
70.4375
20
-159.625
11
70.3848809999999929
21
-159.6145329999999944
0
LINE
8
BLACK
6
CONTINUOUS
10
70.3848809999999929
20
-159.6145329999999944
11
70.3402729999999963
21
-159.5847269999999867
0
LINE
8
BLACK
6
CONTINUOUS
10
70.3402729999999963
20
-159.5847269999999867
11
70.3104670000000027
21
-159.5401190000000042
0
LINE
8
BLACK
6
CONTINUOUS
10
70.3104670000000027
20
-159.5401190000000042
11
70.2999999999999972
21
-159.4874999999999829
0
LINE
8
BLACK
6
CONTINUOUS
10
70.2999999999999972
20
-159.4874999999999829
11
70.2999999999999972
21
-159.2125000000000057
0
LINE
8
BLACK
6
CONTINUOUS
10
70.2999999999999972
20
-159.2125000000000057
11
70.3104670000000027
21
-159.1598809999999844
0
LINE
8
BLACK
6
CONTINUOUS
10
70.3104670000000027
20
-159.1598809999999844
11
70.3402729999999963
21
-159.115273000000002
0
LINE
8
BLACK
6
CONTINUOUS
10
70.3402729999999963
20
-159.115273000000002
11
70.3848809999999929
21
-159.0854669999999942
0
LINE
8
BLACK
6
CONTINUOUS
10
70.3848809999999929
20
-159.0854669999999942
11
70.4375
21
-159.0749999999999886
0
LINE
8
BLACK
6
CONTINUOUS
10
70.4375
20
-159.0749999999999886
11
70.9624999999999915
21
-159.0749999999999886
0
LINE
8
BLACK
6
CONTINUOUS
10
70.9624999999999915
20
-159.0749999999999886
11
71.0151189999999986
21
-159.0854669999999942
0
LINE
8
BLACK
6
CONTINUOUS
10
73.41511899999999
20
-159.0854669999999942
11
73.4597270000000009
21
-159.115273000000002
0
LINE
8
BLACK
6
CONTINUOUS
10
73.4597270000000009
20
-159.115273000000002
11
73.4895329999999944
21
-159.1598809999999844
0
LINE
8
BLACK
6
CONTINUOUS
10
73.4895329999999944
20
-159.1598809999999844
11
73.5
21
-159.2125000000000057
0
LINE
8
BLACK
6
CONTINUOUS
10
73.5
20
-159.2125000000000057
11
73.5
21
-159.4874999999999829
0
LINE
8
BLACK
6
CONTINUOUS
10
73.5
20
-159.4874999999999829
11
73.4895329999999944
21
-159.5401190000000042
0
LINE
8
BLACK
6
CONTINUOUS
10
73.4895329999999944
20
-159.5401190000000042
11
73.4597270000000009
21
-159.5847269999999867
0
LINE
8
BLACK
6
CONTINUOUS
10
73.4597270000000009
20
-159.5847269999999867
11
73.41511899999999
21
-159.6145329999999944
0
LINE
8
BLACK
6
CONTINUOUS
10
73.41511899999999
20
-159.6145329999999944
11
73.3624999999999972
21
-159.625
0
LINE
8
BLACK
6
CONTINUOUS
10
73.3624999999999972
20
-159.625
11
72.8374999999999915
21
-159.625
0
LINE
8
BLACK
6
CONTINUOUS
10
72.8374999999999915
20
-159.625
11
72.7848809999999986
21
-159.6145329999999944
0
LINE
8
BLACK
6
CONTINUOUS
10
72.7848809999999986
20
-159.6145329999999944
11
72.740273000000002
21
-159.5847269999999867
0
LINE
8
BLACK
6
CONTINUOUS
10
72.740273000000002
20
-159.5847269999999867
11
72.7104669999999942
21
-159.5401190000000042
0
LINE
8
BLACK
6
CONTINUOUS
10
72.7104669999999942
20
-159.5401190000000042
11
72.7000000000000028
21
-159.4874999999999829
0
LINE
8
BLACK
6
CONTINUOUS
10
72.7000000000000028
20
-159.4874999999999829
11
72.7000000000000028
21
-159.2125000000000057
0
LINE
8
BLACK
6
CONTINUOUS
10
72.7000000000000028
20
-159.2125000000000057
11
72.7104669999999942
21
-159.1598809999999844
0
LINE
8
BLACK
6
CONTINUOUS
10
72.7104669999999942
20
-159.1598809999999844
11
72.740273000000002
21
-159.115273000000002
0
LINE
8
BLACK
6
CONTINUOUS
10
72.740273000000002
20
-159.115273000000002
11
72.7848809999999986
21
-159.0854669999999942
0
LINE
8
BLACK
6
CONTINUOUS
10
72.7848809999999986
20
-159.0854669999999942
11
72.8374999999999915
21
-159.0749999999999886
0
LINE
8
BLACK
6
CONTINUOUS
10
72.8374999999999915
20
-159.0749999999999886
11
73.3624999999999972
21
-159.0749999999999886
0
LINE
8
BLACK
6
CONTINUOUS
10
73.3624999999999972
20
-159.0749999999999886
11
73.41511899999999
21
-159.0854669999999942
0
LINE
8
BLACK
6
CONTINUOUS
10
71.0151189999999986
20
-158.1354670000000056
11
71.0597269999999952
21
-158.1652729999999849
0
LINE
8
BLACK
6
CONTINUOUS
10
71.0597269999999952
20
-158.1652729999999849
11
71.089533000000003
21
-158.2098809999999958
0
LINE
8
BLACK
6
CONTINUOUS
10
71.089533000000003
20
-158.2098809999999958
11
71.0999999999999943
21
-158.2624999999999886
0
LINE
8
BLACK
6
CONTINUOUS
10
71.0999999999999943
20
-158.2624999999999886
11
71.0999999999999943
21
-158.5374999999999943
0
LINE
8
BLACK
6
CONTINUOUS
10
71.0999999999999943
20
-158.5374999999999943
11
71.089533000000003
21
-158.5901189999999872
0
LINE
8
BLACK
6
CONTINUOUS
10
71.089533000000003
20
-158.5901189999999872
11
71.0597269999999952
21
-158.634726999999998
0
LINE
8
BLACK
6
CONTINUOUS
10
71.0597269999999952
20
-158.634726999999998
11
71.0151189999999986
21
-158.6645330000000058
0
LINE
8
BLACK
6
CONTINUOUS
10
71.0151189999999986
20
-158.6645330000000058
11
70.9624999999999915
21
-158.6749999999999829
0
LINE
8
BLACK
6
CONTINUOUS
10
70.9624999999999915
20
-158.6749999999999829
11
70.4375
21
-158.6749999999999829
0
LINE
8
BLACK
6
CONTINUOUS
10
70.4375
20
-158.6749999999999829
11
70.3848809999999929
21
-158.6645330000000058
0
LINE
8
BLACK
6
CONTINUOUS
10
70.3848809999999929
20
-158.6645330000000058
11
70.3402729999999963
21
-158.634726999999998
0
LINE
8
BLACK
6
CONTINUOUS
10
70.3402729999999963
20
-158.634726999999998
11
70.3104670000000027
21
-158.5901189999999872
0
LINE
8
BLACK
6
CONTINUOUS
10
70.3104670000000027
20
-158.5901189999999872
11
70.2999999999999972
21
-158.5374999999999943
0
LINE
8
BLACK
6
CONTINUOUS
10
70.2999999999999972
20
-158.5374999999999943
11
70.2999999999999972
21
-158.2624999999999886
0
LINE
8
BLACK
6
CONTINUOUS
10
70.2999999999999972
20
-158.2624999999999886
11
70.3104670000000027
21
-158.2098809999999958
0
LINE
8
BLACK
6
CONTINUOUS
10
70.3104670000000027
20
-158.2098809999999958
11
70.3402729999999963
21
-158.1652729999999849
0
LINE
8
BLACK
6
CONTINUOUS
10
70.3402729999999963
20
-158.1652729999999849
11
70.3848809999999929
21
-158.1354670000000056
0
LINE
8
BLACK
6
CONTINUOUS
10
70.3848809999999929
20
-158.1354670000000056
11
70.4375
21
-158.125
0
LINE
8
BLACK
6
CONTINUOUS
10
70.4375
20
-158.125
11
70.9624999999999915
21
-158.125
0
LINE
8
BLACK
6
CONTINUOUS
10
70.9624999999999915
20
-158.125
11
71.0151189999999986
21
-158.1354670000000056
0
LINE
8
BLACK
6
CONTINUOUS
10
73.41511899999999
20
-158.1354670000000056
11
73.4597270000000009
21
-158.1652729999999849
0
LINE
8
BLACK
6
CONTINUOUS
10
73.4597270000000009
20
-158.1652729999999849
11
73.4895329999999944
21
-158.2098809999999958
0
LINE
8
BLACK
6
CONTINUOUS
10
73.4895329999999944
20
-158.2098809999999958
11
73.5
21
-158.2624999999999886
0
LINE
8
BLACK
6
CONTINUOUS
10
73.5
20
-158.2624999999999886
11
73.5
21
-158.5374999999999943
0
LINE
8
BLACK
6
CONTINUOUS
10
73.5
20
-158.5374999999999943
11
73.4895329999999944
21
-158.5901189999999872
0
LINE
8
BLACK
6
CONTINUOUS
10
73.4895329999999944
20
-158.5901189999999872
11
73.4597270000000009
21
-158.634726999999998
0
LINE
8
BLACK
6
CONTINUOUS
10
73.4597270000000009
20
-158.634726999999998
11
73.41511899999999
21
-158.6645330000000058
0
LINE
8
BLACK
6
CONTINUOUS
10
73.41511899999999
20
-158.6645330000000058
11
73.3624999999999972
21
-158.6749999999999829
0
LINE
8
BLACK
6
CONTINUOUS
10
73.3624999999999972
20
-158.6749999999999829
11
72.8374999999999915
21
-158.6749999999999829
0
LINE
8
BLACK
6
CONTINUOUS
10
72.8374999999999915
20
-158.6749999999999829
11
72.7848809999999986
21
-158.6645330000000058
0
LINE
8
BLACK
6
CONTINUOUS
10
72.7848809999999986
20
-158.6645330000000058
11
72.740273000000002
21
-158.634726999999998
0
LINE
8
BLACK
6
CONTINUOUS
10
72.740273000000002
20
-158.634726999999998
11
72.7104669999999942
21
-158.5901189999999872
0
LINE
8
BLACK
6
CONTINUOUS
10
72.7104669999999942
20
-158.5901189999999872
11
72.7000000000000028
21
-158.5374999999999943
0
LINE
8
BLACK
6
CONTINUOUS
10
72.7000000000000028
20
-158.5374999999999943
11
72.7000000000000028
21
-158.2624999999999886
0
LINE
8
BLACK
6
CONTINUOUS
10
72.7000000000000028
20
-158.2624999999999886
11
72.7104669999999942
21
-158.2098809999999958
0
LINE
8
BLACK
6
CONTINUOUS
10
72.7104669999999942
20
-158.2098809999999958
11
72.740273000000002
21
-158.1652729999999849
0
LINE
8
BLACK
6
CONTINUOUS
10
72.740273000000002
20
-158.1652729999999849
11
72.7848809999999986
21
-158.1354670000000056
0
LINE
8
BLACK
6
CONTINUOUS
10
72.7848809999999986
20
-158.1354670000000056
11
72.8374999999999915
21
-158.125
0
LINE
8
BLACK
6
CONTINUOUS
10
72.8374999999999915
20
-158.125
11
73.3624999999999972
21
-158.125
0
LINE
8
BLACK
6
CONTINUOUS
10
73.3624999999999972
20
-158.125
11
73.41511899999999
21
-158.1354670000000056
0
LINE
8
BLACK
6
CONTINUOUS
10
129.1151189999999929
20
-108.6854669999999885
11
129.1597270000000037
21
-108.7152729999999963
0
LINE
8
BLACK
6
CONTINUOUS
10
129.1597270000000037
20
-108.7152729999999963
11
129.1895329999999831
21
-108.7598809999999929
0
LINE
8
BLACK
6
CONTINUOUS
10
129.1895329999999831
20
-108.7598809999999929
11
129.1999999999999886
21
-108.8125
0
LINE
8
BLACK
6
CONTINUOUS
10
129.1999999999999886
20
-108.8125
11
129.1999999999999886
21
-109.0874999999999915
0
LINE
8
BLACK
6
CONTINUOUS
10
129.1999999999999886
20
-109.0874999999999915
11
129.1895329999999831
21
-109.1401189999999986
0
LINE
8
BLACK
6
CONTINUOUS
10
129.1895329999999831
20
-109.1401189999999986
11
129.1597270000000037
21
-109.1847269999999952
0
LINE
8
BLACK
6
CONTINUOUS
10
129.1597270000000037
20
-109.1847269999999952
11
129.1151189999999929
21
-109.2145329999999888
0
LINE
8
BLACK
6
CONTINUOUS
10
129.1151189999999929
20
-109.2145329999999888
11
129.0625
21
-109.2249999999999943
0
LINE
8
BLACK
6
CONTINUOUS
10
129.0625
20
-109.2249999999999943
11
128.5374999999999943
21
-109.2249999999999943
0
LINE
8
BLACK
6
CONTINUOUS
10
128.5374999999999943
20
-109.2249999999999943
11
128.4848810000000014
21
-109.2145329999999888
0
LINE
8
BLACK
6
CONTINUOUS
10
128.4848810000000014
20
-109.2145329999999888
11
128.4402729999999906
21
-109.1847269999999952
0
LINE
8
BLACK
6
CONTINUOUS
10
128.4402729999999906
20
-109.1847269999999952
11
128.4104669999999828
21
-109.1401189999999986
0
LINE
8
BLACK
6
CONTINUOUS
10
128.4104669999999828
20
-109.1401189999999986
11
128.4000000000000057
21
-109.0874999999999915
0
LINE
8
BLACK
6
CONTINUOUS
10
128.4000000000000057
20
-109.0874999999999915
11
128.4000000000000057
21
-108.8125
0
LINE
8
BLACK
6
CONTINUOUS
10
128.4000000000000057
20
-108.8125
11
128.4104669999999828
21
-108.7598809999999929
0
LINE
8
BLACK
6
CONTINUOUS
10
128.4104669999999828
20
-108.7598809999999929
11
128.4402729999999906
21
-108.7152729999999963
0
LINE
8
BLACK
6
CONTINUOUS
10
128.4402729999999906
20
-108.7152729999999963
11
128.4848810000000014
21
-108.6854669999999885
0
LINE
8
BLACK
6
CONTINUOUS
10
128.4848810000000014
20
-108.6854669999999885
11
128.5374999999999943
21
-108.6749999999999972
0
LINE
8
BLACK
6
CONTINUOUS
10
128.5374999999999943
20
-108.6749999999999972
11
129.0625
21
-108.6749999999999972
0
LINE
8
BLACK
6
CONTINUOUS
10
129.0625
20
-108.6749999999999972
11
129.1151189999999929
21
-108.6854669999999885
0
LINE
8
BLACK
6
CONTINUOUS
10
131.5151189999999986
20
-108.6854669999999885
11
131.559726999999981
21
-108.7152729999999963
0
LINE
8
BLACK
6
CONTINUOUS
10
131.559726999999981
20
-108.7152729999999963
11
131.5895329999999888
21
-108.7598809999999929
0
LINE
8
BLACK
6
CONTINUOUS
10
131.5895329999999888
20
-108.7598809999999929
11
131.5999999999999943
21
-108.8125
0
LINE
8
BLACK
6
CONTINUOUS
10
131.5999999999999943
20
-108.8125
11
131.5999999999999943
21
-109.0874999999999915
0
LINE
8
BLACK
6
CONTINUOUS
10
131.5999999999999943
20
-109.0874999999999915
11
131.5895329999999888
21
-109.1401189999999986
0
LINE
8
BLACK
6
CONTINUOUS
10
131.5895329999999888
20
-109.1401189999999986
11
131.559726999999981
21
-109.1847269999999952
0
LINE
8
BLACK
6
CONTINUOUS
10
131.559726999999981
20
-109.1847269999999952
11
131.5151189999999986
21
-109.2145329999999888
0
LINE
8
BLACK
6
CONTINUOUS
10
131.5151189999999986
20
-109.2145329999999888
11
131.4625000000000057
21
-109.2249999999999943
0
LINE
8
BLACK
6
CONTINUOUS
10
131.4625000000000057
20
-109.2249999999999943
11
130.9375
21
-109.2249999999999943
0
LINE
8
BLACK
6
CONTINUOUS
10
130.9375
20
-109.2249999999999943
11
130.8848810000000071
21
-109.2145329999999888
0
LINE
8
BLACK
6
CONTINUOUS
10
130.8848810000000071
20
-109.2145329999999888
11
130.8402729999999963
21
-109.1847269999999952
0
LINE
8
BLACK
6
CONTINUOUS
10
130.8402729999999963
20
-109.1847269999999952
11
130.8104669999999885
21
-109.1401189999999986
0
LINE
8
BLACK
6
CONTINUOUS
10
130.8104669999999885
20
-109.1401189999999986
11
130.7999999999999829
21
-109.0874999999999915
0
LINE
8
BLACK
6
CONTINUOUS
10
130.7999999999999829
20
-109.0874999999999915
11
130.7999999999999829
21
-108.8125
0
LINE
8
BLACK
6
CONTINUOUS
10
130.7999999999999829
20
-108.8125
11
130.8104669999999885
21
-108.7598809999999929
0
LINE
8
BLACK
6
CONTINUOUS
10
130.8104669999999885
20
-108.7598809999999929
11
130.8402729999999963
21
-108.7152729999999963
0
LINE
8
BLACK
6
CONTINUOUS
10
130.8402729999999963
20
-108.7152729999999963
11
130.8848810000000071
21
-108.6854669999999885
0
LINE
8
BLACK
6
CONTINUOUS
10
130.8848810000000071
20
-108.6854669999999885
11
130.9375
21
-108.6749999999999972
0
LINE
8
BLACK
6
CONTINUOUS
10
130.9375
20
-108.6749999999999972
11
131.4625000000000057
21
-108.6749999999999972
0
LINE
8
BLACK
6
CONTINUOUS
10
131.4625000000000057
20
-108.6749999999999972
11
131.5151189999999986
21
-108.6854669999999885
0
LINE
8
BLACK
6
CONTINUOUS
10
129.1151189999999929
20
-107.7354669999999999
11
129.1597270000000037
21
-107.7652729999999934
0
LINE
8
BLACK
6
CONTINUOUS
10
129.1597270000000037
20
-107.7652729999999934
11
129.1895329999999831
21
-107.8098809999999901
0
LINE
8
BLACK
6
CONTINUOUS
10
129.1895329999999831
20
-107.8098809999999901
11
129.1999999999999886
21
-107.8624999999999972
0
LINE
8
BLACK
6
CONTINUOUS
10
129.1999999999999886
20
-107.8624999999999972
11
129.1999999999999886
21
-108.1374999999999886
0
LINE
8
BLACK
6
CONTINUOUS
10
129.1999999999999886
20
-108.1374999999999886
11
129.1895329999999831
21
-108.1901189999999957
0
LINE
8
BLACK
6
CONTINUOUS
10
129.1895329999999831
20
-108.1901189999999957
11
129.1597270000000037
21
-108.2347269999999924
0
LINE
8
BLACK
6
CONTINUOUS
10
129.1597270000000037
20
-108.2347269999999924
11
129.1151189999999929
21
-108.2645330000000001
0
LINE
8
BLACK
6
CONTINUOUS
10
129.1151189999999929
20
-108.2645330000000001
11
129.0625
21
-108.2749999999999915
0
LINE
8
BLACK
6
CONTINUOUS
10
129.0625
20
-108.2749999999999915
11
128.5374999999999943
21
-108.2749999999999915
0
LINE
8
BLACK
6
CONTINUOUS
10
128.5374999999999943
20
-108.2749999999999915
11
128.4848810000000014
21
-108.2645330000000001
0
LINE
8
BLACK
6
CONTINUOUS
10
128.4848810000000014
20
-108.2645330000000001
11
128.4402729999999906
21
-108.2347269999999924
0
LINE
8
BLACK
6
CONTINUOUS
10
128.4402729999999906
20
-108.2347269999999924
11
128.4104669999999828
21
-108.1901189999999957
0
LINE
8
BLACK
6
CONTINUOUS
10
128.4104669999999828
20
-108.1901189999999957
11
128.4000000000000057
21
-108.1374999999999886
0
LINE
8
BLACK
6
CONTINUOUS
10
128.4000000000000057
20
-108.1374999999999886
11
128.4000000000000057
21
-107.8624999999999972
0
LINE
8
BLACK
6
CONTINUOUS
10
128.4000000000000057
20
-107.8624999999999972
11
128.4104669999999828
21
-107.8098809999999901
0
LINE
8
BLACK
6
CONTINUOUS
10
128.4104669999999828
20
-107.8098809999999901
11
128.4402729999999906
21
-107.7652729999999934
0
LINE
8
BLACK
6
CONTINUOUS
10
128.4402729999999906
20
-107.7652729999999934
11
128.4848810000000014
21
-107.7354669999999999
0
LINE
8
BLACK
6
CONTINUOUS
10
128.4848810000000014
20
-107.7354669999999999
11
128.5374999999999943
21
-107.7249999999999943
0
LINE
8
BLACK
6
CONTINUOUS
10
128.5374999999999943
20
-107.7249999999999943
11
129.0625
21
-107.7249999999999943
0
LINE
8
BLACK
6
CONTINUOUS
10
129.0625
20
-107.7249999999999943
11
129.1151189999999929
21
-107.7354669999999999
0
LINE
8
BLACK
6
CONTINUOUS
10
131.5151189999999986
20
-107.7354669999999999
11
131.559726999999981
21
-107.7652729999999934
0
LINE
8
BLACK
6
CONTINUOUS
10
131.559726999999981
20
-107.7652729999999934
11
131.5895329999999888
21
-107.8098809999999901
0
LINE
8
BLACK
6
CONTINUOUS
10
131.5895329999999888
20
-107.8098809999999901
11
131.5999999999999943
21
-107.8624999999999972
0
LINE
8
BLACK
6
CONTINUOUS
10
131.5999999999999943
20
-107.8624999999999972
11
131.5999999999999943
21
-108.1374999999999886
0
LINE
8
BLACK
6
CONTINUOUS
10
131.5999999999999943
20
-108.1374999999999886
11
131.5895329999999888
21
-108.1901189999999957
0
LINE
8
BLACK
6
CONTINUOUS
10
131.5895329999999888
20
-108.1901189999999957
11
131.559726999999981
21
-108.2347269999999924
0
LINE
8
BLACK
6
CONTINUOUS
10
131.559726999999981
20
-108.2347269999999924
11
131.5151189999999986
21
-108.2645330000000001
0
LINE
8
BLACK
6
CONTINUOUS
10
131.5151189999999986
20
-108.2645330000000001
11
131.4625000000000057
21
-108.2749999999999915
0
LINE
8
BLACK
6
CONTINUOUS
10
131.4625000000000057
20
-108.2749999999999915
11
130.9375
21
-108.2749999999999915
0
LINE
8
BLACK
6
CONTINUOUS
10
130.9375
20
-108.2749999999999915
11
130.8848810000000071
21
-108.2645330000000001
0
LINE
8
BLACK
6
CONTINUOUS
10
130.8848810000000071
20
-108.2645330000000001
11
130.8402729999999963
21
-108.2347269999999924
0
LINE
8
BLACK
6
CONTINUOUS
10
130.8402729999999963
20
-108.2347269999999924
11
130.8104669999999885
21
-108.1901189999999957
0
LINE
8
BLACK
6
CONTINUOUS
10
130.8104669999999885
20
-108.1901189999999957
11
130.7999999999999829
21
-108.1374999999999886
0
LINE
8
BLACK
6
CONTINUOUS
10
130.7999999999999829
20
-108.1374999999999886
11
130.7999999999999829
21
-107.8624999999999972
0
LINE
8
BLACK
6
CONTINUOUS
10
130.7999999999999829
20
-107.8624999999999972
11
130.8104669999999885
21
-107.8098809999999901
0
LINE
8
BLACK
6
CONTINUOUS
10
130.8104669999999885
20
-107.8098809999999901
11
130.8402729999999963
21
-107.7652729999999934
0
LINE
8
BLACK
6
CONTINUOUS
10
130.8402729999999963
20
-107.7652729999999934
11
130.8848810000000071
21
-107.7354669999999999
0
LINE
8
BLACK
6
CONTINUOUS
10
130.8848810000000071
20
-107.7354669999999999
11
130.9375
21
-107.7249999999999943
0
LINE
8
BLACK
6
CONTINUOUS
10
130.9375
20
-107.7249999999999943
11
131.4625000000000057
21
-107.7249999999999943
0
LINE
8
BLACK
6
CONTINUOUS
10
131.4625000000000057
20
-107.7249999999999943
11
131.5151189999999986
21
-107.7354669999999999
0
LINE
8
BLACK
6
CONTINUOUS
10
129.1151189999999929
20
-106.785466999999997
11
129.1597270000000037
21
-106.8152729999999906
0
LINE
8
BLACK
6
CONTINUOUS
10
129.1597270000000037
20
-106.8152729999999906
11
129.1895329999999831
21
-106.8598810000000014
0
LINE
8
BLACK
6
CONTINUOUS
10
129.1895329999999831
20
-106.8598810000000014
11
129.1999999999999886
21
-106.9124999999999943
0
LINE
8
BLACK
6
CONTINUOUS
10
129.1999999999999886
20
-106.9124999999999943
11
129.1999999999999886
21
-107.1875
0
LINE
8
BLACK
6
CONTINUOUS
10
129.1999999999999886
20
-107.1875
11
129.1895329999999831
21
-107.2401189999999929
0
LINE
8
BLACK
6
CONTINUOUS
10
129.1895329999999831
20
-107.2401189999999929
11
129.1597270000000037
21
-107.2847269999999895
0
LINE
8
BLACK
6
CONTINUOUS
10
129.1597270000000037
20
-107.2847269999999895
11
129.1151189999999929
21
-107.3145329999999973
0
LINE
8
BLACK
6
CONTINUOUS
10
129.1151189999999929
20
-107.3145329999999973
11
129.0625
21
-107.3249999999999886
0
LINE
8
BLACK
6
CONTINUOUS
10
129.0625
20
-107.3249999999999886
11
128.5374999999999943
21
-107.3249999999999886
0
LINE
8
BLACK
6
CONTINUOUS
10
128.5374999999999943
20
-107.3249999999999886
11
128.4848810000000014
21
-107.3145329999999973
0
LINE
8
BLACK
6
CONTINUOUS
10
128.4848810000000014
20
-107.3145329999999973
11
128.4402729999999906
21
-107.2847269999999895
0
LINE
8
BLACK
6
CONTINUOUS
10
128.4402729999999906
20
-107.2847269999999895
11
128.4104669999999828
21
-107.2401189999999929
0
LINE
8
BLACK
6
CONTINUOUS
10
128.4104669999999828
20
-107.2401189999999929
11
128.4000000000000057
21
-107.1875
0
LINE
8
BLACK
6
CONTINUOUS
10
128.4000000000000057
20
-107.1875
11
128.4000000000000057
21
-106.9124999999999943
0
LINE
8
BLACK
6
CONTINUOUS
10
128.4000000000000057
20
-106.9124999999999943
11
128.4104669999999828
21
-106.8598810000000014
0
LINE
8
BLACK
6
CONTINUOUS
10
128.4104669999999828
20
-106.8598810000000014
11
128.4402729999999906
21
-106.8152729999999906
0
LINE
8
BLACK
6
CONTINUOUS
10
128.4402729999999906
20
-106.8152729999999906
11
128.4848810000000014
21
-106.785466999999997
0
LINE
8
BLACK
6
CONTINUOUS
10
128.4848810000000014
20
-106.785466999999997
11
128.5374999999999943
21
-106.7749999999999915
0
LINE
8
BLACK
6
CONTINUOUS
10
128.5374999999999943
20
-106.7749999999999915
11
129.0625
21
-106.7749999999999915
0
LINE
8
BLACK
6
CONTINUOUS
10
129.0625
20
-106.7749999999999915
11
129.1151189999999929
21
-106.785466999999997
0
LINE
8
BLACK
6
CONTINUOUS
10
131.5151189999999986
20
-106.785466999999997
11
131.559726999999981
21
-106.8152729999999906
0
LINE
8
BLACK
6
CONTINUOUS
10
131.559726999999981
20
-106.8152729999999906
11
131.5895329999999888
21
-106.8598810000000014
0
LINE
8
BLACK
6
CONTINUOUS
10
131.5895329999999888
20
-106.8598810000000014
11
131.5999999999999943
21
-106.9124999999999943
0
LINE
8
BLACK
6
CONTINUOUS
10
131.5999999999999943
20
-106.9124999999999943
11
131.5999999999999943
21
-107.1875
0
LINE
8
BLACK
6
CONTINUOUS
10
131.5999999999999943
20
-107.1875
11
131.5895329999999888
21
-107.2401189999999929
0
LINE
8
BLACK
6
CONTINUOUS
10
131.5895329999999888
20
-107.2401189999999929
11
131.559726999999981
21
-107.2847269999999895
0
LINE
8
BLACK
6
CONTINUOUS
10
131.559726999999981
20
-107.2847269999999895
11
131.5151189999999986
21
-107.3145329999999973
0
LINE
8
BLACK
6
CONTINUOUS
10
131.5151189999999986
20
-107.3145329999999973
11
131.4625000000000057
21
-107.3249999999999886
0
LINE
8
BLACK
6
CONTINUOUS
10
131.4625000000000057
20
-107.3249999999999886
11
130.9375
21
-107.3249999999999886
0
LINE
8
BLACK
6
CONTINUOUS
10
130.9375
20
-107.3249999999999886
11
130.8848810000000071
21
-107.3145329999999973
0
LINE
8
BLACK
6
CONTINUOUS
10
130.8848810000000071
20
-107.3145329999999973
11
130.8402729999999963
21
-107.2847269999999895
0
LINE
8
BLACK
6
CONTINUOUS
10
130.8402729999999963
20
-107.2847269999999895
11
130.8104669999999885
21
-107.2401189999999929
0
LINE
8
BLACK
6
CONTINUOUS
10
130.8104669999999885
20
-107.2401189999999929
11
130.7999999999999829
21
-107.1875
0
LINE
8
BLACK
6
CONTINUOUS
10
130.7999999999999829
20
-107.1875
11
130.7999999999999829
21
-106.9124999999999943
0
LINE
8
BLACK
6
CONTINUOUS
10
130.7999999999999829
20
-106.9124999999999943
11
130.8104669999999885
21
-106.8598810000000014
0
LINE
8
BLACK
6
CONTINUOUS
10
130.8104669999999885
20
-106.8598810000000014
11
130.8402729999999963
21
-106.8152729999999906
0
LINE
8
BLACK
6
CONTINUOUS
10
130.8402729999999963
20
-106.8152729999999906
11
130.8848810000000071
21
-106.785466999999997
0
LINE
8
BLACK
6
CONTINUOUS
10
130.8848810000000071
20
-106.785466999999997
11
130.9375
21
-106.7749999999999915
0
LINE
8
BLACK
6
CONTINUOUS
10
130.9375
20
-106.7749999999999915
11
131.4625000000000057
21
-106.7749999999999915
0
LINE
8
BLACK
6
CONTINUOUS
10
131.4625000000000057
20
-106.7749999999999915
11
131.5151189999999986
21
-106.785466999999997
0
LINE
8
BLACK
6
CONTINUOUS
10
63.0851189999999988
20
-106.1854669999999885
11
63.1297269999999955
21
-106.2152729999999963
0
LINE
8
BLACK
6
CONTINUOUS
10
63.1297269999999955
20
-106.2152729999999963
11
63.1595329999999962
21
-106.2598809999999929
0
LINE
8
BLACK
6
CONTINUOUS
10
63.1595329999999962
20
-106.2598809999999929
11
63.1699999999999946
21
-106.3125
0
LINE
8
BLACK
6
CONTINUOUS
10
63.1699999999999946
20
-106.3125
11
63.1699999999999946
21
-106.5874999999999915
0
LINE
8
BLACK
6
CONTINUOUS
10
63.1699999999999946
20
-106.5874999999999915
11
63.1595329999999962
21
-106.6401189999999986
0
LINE
8
BLACK
6
CONTINUOUS
10
63.1595329999999962
20
-106.6401189999999986
11
63.1297269999999955
21
-106.6847269999999952
0
LINE
8
BLACK
6
CONTINUOUS
10
63.1297269999999955
20
-106.6847269999999952
11
63.0851189999999988
21
-106.7145329999999888
0
LINE
8
BLACK
6
CONTINUOUS
10
63.0851189999999988
20
-106.7145329999999888
11
63.0324999999999989
21
-106.7249999999999943
0
LINE
8
BLACK
6
CONTINUOUS
10
63.0324999999999989
20
-106.7249999999999943
11
62.5075000000000003
21
-106.7249999999999943
0
LINE
8
BLACK
6
CONTINUOUS
10
62.5075000000000003
20
-106.7249999999999943
11
62.4548810000000003
21
-106.7145329999999888
0
LINE
8
BLACK
6
CONTINUOUS
10
62.4548810000000003
20
-106.7145329999999888
11
62.4102729999999966
21
-106.6847269999999952
0
LINE
8
BLACK
6
CONTINUOUS
10
62.4102729999999966
20
-106.6847269999999952
11
62.3804669999999959
21
-106.6401189999999986
0
LINE
8
BLACK
6
CONTINUOUS
10
62.3804669999999959
20
-106.6401189999999986
11
62.3699999999999974
21
-106.5874999999999915
0
LINE
8
BLACK
6
CONTINUOUS
10
62.3699999999999974
20
-106.5874999999999915
11
62.3699999999999974
21
-106.3125
0
LINE
8
BLACK
6
CONTINUOUS
10
62.3699999999999974
20
-106.3125
11
62.3804669999999959
21
-106.2598809999999929
0
LINE
8
BLACK
6
CONTINUOUS
10
62.3804669999999959
20
-106.2598809999999929
11
62.4102729999999966
21
-106.2152729999999963
0
LINE
8
BLACK
6
CONTINUOUS
10
62.4102729999999966
20
-106.2152729999999963
11
62.4548810000000003
21
-106.1854669999999885
0
LINE
8
BLACK
6
CONTINUOUS
10
62.4548810000000003
20
-106.1854669999999885
11
62.5075000000000003
21
-106.1749999999999972
0
LINE
8
BLACK
6
CONTINUOUS
10
62.5075000000000003
20
-106.1749999999999972
11
63.0324999999999989
21
-106.1749999999999972
0
LINE
8
BLACK
6
CONTINUOUS
10
63.0324999999999989
20
-106.1749999999999972
11
63.0851189999999988
21
-106.1854669999999885
0
LINE
8
BLACK
6
CONTINUOUS
10
65.4851189999999974
20
-106.1854669999999885
11
65.5297269999999941
21
-106.2152729999999963
0
LINE
8
BLACK
6
CONTINUOUS
10
65.5297269999999941
20
-106.2152729999999963
11
65.5595330000000018
21
-106.2598809999999929
0
LINE
8
BLACK
6
CONTINUOUS
10
65.5595330000000018
20
-106.2598809999999929
11
65.5699999999999932
21
-106.3125
0
LINE
8
BLACK
6
CONTINUOUS
10
65.5699999999999932
20
-106.3125
11
65.5699999999999932
21
-106.5874999999999915
0
LINE
8
BLACK
6
CONTINUOUS
10
65.5699999999999932
20
-106.5874999999999915
11
65.5595330000000018
21
-106.6401189999999986
0
LINE
8
BLACK
6
CONTINUOUS
10
65.5595330000000018
20
-106.6401189999999986
11
65.5297269999999941
21
-106.6847269999999952
0
LINE
8
BLACK
6
CONTINUOUS
10
65.5297269999999941
20
-106.6847269999999952
11
65.4851189999999974
21
-106.7145329999999888
0
LINE
8
BLACK
6
CONTINUOUS
10
65.4851189999999974
20
-106.7145329999999888
11
65.4324999999999903
21
-106.7249999999999943
0
LINE
8
BLACK
6
CONTINUOUS
10
65.4324999999999903
20
-106.7249999999999943
11
64.9074999999999989
21
-106.7249999999999943
0
LINE
8
BLACK
6
CONTINUOUS
10
64.9074999999999989
20
-106.7249999999999943
11
64.8548809999999918
21
-106.7145329999999888
0
LINE
8
BLACK
6
CONTINUOUS
10
64.8548809999999918
20
-106.7145329999999888
11
64.8102729999999951
21
-106.6847269999999952
0
LINE
8
BLACK
6
CONTINUOUS
10
64.8102729999999951
20
-106.6847269999999952
11
64.7804670000000016
21
-106.6401189999999986
0
LINE
8
BLACK
6
CONTINUOUS
10
64.7804670000000016
20
-106.6401189999999986
11
64.769999999999996
21
-106.5874999999999915
0
LINE
8
BLACK
6
CONTINUOUS
10
64.769999999999996
20
-106.5874999999999915
11
64.769999999999996
21
-106.3125
0
LINE
8
BLACK
6
CONTINUOUS
10
64.769999999999996
20
-106.3125
11
64.7804670000000016
21
-106.2598809999999929
0
LINE
8
BLACK
6
CONTINUOUS
10
64.7804670000000016
20
-106.2598809999999929
11
64.8102729999999951
21
-106.2152729999999963
0
LINE
8
BLACK
6
CONTINUOUS
10
64.8102729999999951
20
-106.2152729999999963
11
64.8548809999999918
21
-106.1854669999999885
0
LINE
8
BLACK
6
CONTINUOUS
10
64.8548809999999918
20
-106.1854669999999885
11
64.9074999999999989
21
-106.1749999999999972
0
LINE
8
BLACK
6
CONTINUOUS
10
64.9074999999999989
20
-106.1749999999999972
11
65.4324999999999903
21
-106.1749999999999972
0
LINE
8
BLACK
6
CONTINUOUS
10
65.4324999999999903
20
-106.1749999999999972
11
65.4851189999999974
21
-106.1854669999999885
0
LINE
8
BLACK
6
CONTINUOUS
10
63.0851189999999988
20
-105.2354669999999999
11
63.1297269999999955
21
-105.2652729999999934
0
LINE
8
BLACK
6
CONTINUOUS
10
63.1297269999999955
20
-105.2652729999999934
11
63.1595329999999962
21
-105.3098809999999901
0
LINE
8
BLACK
6
CONTINUOUS
10
63.1595329999999962
20
-105.3098809999999901
11
63.1699999999999946
21
-105.3624999999999972
0
LINE
8
BLACK
6
CONTINUOUS
10
63.1699999999999946
20
-105.3624999999999972
11
63.1699999999999946
21
-105.6374999999999886
0
LINE
8
BLACK
6
CONTINUOUS
10
63.1699999999999946
20
-105.6374999999999886
11
63.1595329999999962
21
-105.6901189999999957
0
LINE
8
BLACK
6
CONTINUOUS
10
63.1595329999999962
20
-105.6901189999999957
11
63.1297269999999955
21
-105.7347269999999924
0
LINE
8
BLACK
6
CONTINUOUS
10
63.1297269999999955
20
-105.7347269999999924
11
63.0851189999999988
21
-105.7645330000000001
0
LINE
8
BLACK
6
CONTINUOUS
10
63.0851189999999988
20
-105.7645330000000001
11
63.0324999999999989
21
-105.7749999999999915
0
LINE
8
BLACK
6
CONTINUOUS
10
63.0324999999999989
20
-105.7749999999999915
11
62.5075000000000003
21
-105.7749999999999915
0
LINE
8
BLACK
6
CONTINUOUS
10
62.5075000000000003
20
-105.7749999999999915
11
62.4548810000000003
21
-105.7645330000000001
0
LINE
8
BLACK
6
CONTINUOUS
10
62.4548810000000003
20
-105.7645330000000001
11
62.4102729999999966
21
-105.7347269999999924
0
LINE
8
BLACK
6
CONTINUOUS
10
62.4102729999999966
20
-105.7347269999999924
11
62.3804669999999959
21
-105.6901189999999957
0
LINE
8
BLACK
6
CONTINUOUS
10
62.3804669999999959
20
-105.6901189999999957
11
62.3699999999999974
21
-105.6374999999999886
0
LINE
8
BLACK
6
CONTINUOUS
10
62.3699999999999974
20
-105.6374999999999886
11
62.3699999999999974
21
-105.3624999999999972
0
LINE
8
BLACK
6
CONTINUOUS
10
62.3699999999999974
20
-105.3624999999999972
11
62.3804669999999959
21
-105.3098809999999901
0
LINE
8
BLACK
6
CONTINUOUS
10
62.3804669999999959
20
-105.3098809999999901
11
62.4102729999999966
21
-105.2652729999999934
0
LINE
8
BLACK
6
CONTINUOUS
10
62.4102729999999966
20
-105.2652729999999934
11
62.4548810000000003
21
-105.2354669999999999
0
LINE
8
BLACK
6
CONTINUOUS
10
62.4548810000000003
20
-105.2354669999999999
11
62.5075000000000003
21
-105.2249999999999943
0
LINE
8
BLACK
6
CONTINUOUS
10
62.5075000000000003
20
-105.2249999999999943
11
63.0324999999999989
21
-105.2249999999999943
0
LINE
8
BLACK
6
CONTINUOUS
10
63.0324999999999989
20
-105.2249999999999943
11
63.0851189999999988
21
-105.2354669999999999
0
LINE
8
BLACK
6
CONTINUOUS
10
65.4851189999999974
20
-105.2354669999999999
11
65.5297269999999941
21
-105.2652729999999934
0
LINE
8
BLACK
6
CONTINUOUS
10
65.5297269999999941
20
-105.2652729999999934
11
65.5595330000000018
21
-105.3098809999999901
0
LINE
8
BLACK
6
CONTINUOUS
10
65.5595330000000018
20
-105.3098809999999901
11
65.5699999999999932
21
-105.3624999999999972
0
LINE
8
BLACK
6
CONTINUOUS
10
65.5699999999999932
20
-105.3624999999999972
11
65.5699999999999932
21
-105.6374999999999886
0
LINE
8
BLACK
6
CONTINUOUS
10
65.5699999999999932
20
-105.6374999999999886
11
65.5595330000000018
21
-105.6901189999999957
0
LINE
8
BLACK
6
CONTINUOUS
10
65.5595330000000018
20
-105.6901189999999957
11
65.5297269999999941
21
-105.7347269999999924
0
LINE
8
BLACK
6
CONTINUOUS
10
65.5297269999999941
20
-105.7347269999999924
11
65.4851189999999974
21
-105.7645330000000001
0
LINE
8
BLACK
6
CONTINUOUS
10
65.4851189999999974
20
-105.7645330000000001
11
65.4324999999999903
21
-105.7749999999999915
0
LINE
8
BLACK
6
CONTINUOUS
10
65.4324999999999903
20
-105.7749999999999915
11
64.9074999999999989
21
-105.7749999999999915
0
LINE
8
BLACK
6
CONTINUOUS
10
64.9074999999999989
20
-105.7749999999999915
11
64.8548809999999918
21
-105.7645330000000001
0
LINE
8
BLACK
6
CONTINUOUS
10
64.8548809999999918
20
-105.7645330000000001
11
64.8102729999999951
21
-105.7347269999999924
0
LINE
8
BLACK
6
CONTINUOUS
10
64.8102729999999951
20
-105.7347269999999924
11
64.7804670000000016
21
-105.6901189999999957
0
LINE
8
BLACK
6
CONTINUOUS
10
64.7804670000000016
20
-105.6901189999999957
11
64.769999999999996
21
-105.6374999999999886
0
LINE
8
BLACK
6
CONTINUOUS
10
64.769999999999996
20
-105.6374999999999886
11
64.769999999999996
21
-105.3624999999999972
0
LINE
8
BLACK
6
CONTINUOUS
10
64.769999999999996
20
-105.3624999999999972
11
64.7804670000000016
21
-105.3098809999999901
0
LINE
8
BLACK
6
CONTINUOUS
10
64.7804670000000016
20
-105.3098809999999901
11
64.8102729999999951
21
-105.2652729999999934
0
LINE
8
BLACK
6
CONTINUOUS
10
64.8102729999999951
20
-105.2652729999999934
11
64.8548809999999918
21
-105.2354669999999999
0
LINE
8
BLACK
6
CONTINUOUS
10
64.8548809999999918
20
-105.2354669999999999
11
64.9074999999999989
21
-105.2249999999999943
0
LINE
8
BLACK
6
CONTINUOUS
10
64.9074999999999989
20
-105.2249999999999943
11
65.4324999999999903
21
-105.2249999999999943
0
LINE
8
BLACK
6
CONTINUOUS
10
65.4324999999999903
20
-105.2249999999999943
11
65.4851189999999974
21
-105.2354669999999999
0
LINE
8
BLACK
6
CONTINUOUS
10
129.1151189999999929
20
-104.8854669999999913
11
129.1597270000000037
21
-104.9152729999999991
0
LINE
8
BLACK
6
CONTINUOUS
10
129.1597270000000037
20
-104.9152729999999991
11
129.1895329999999831
21
-104.9598809999999958
0
LINE
8
BLACK
6
CONTINUOUS
10
129.1895329999999831
20
-104.9598809999999958
11
129.1999999999999886
21
-105.0124999999999886
0
LINE
8
BLACK
6
CONTINUOUS
10
129.1999999999999886
20
-105.0124999999999886
11
129.1999999999999886
21
-105.2874999999999943
0
LINE
8
BLACK
6
CONTINUOUS
10
129.1999999999999886
20
-105.2874999999999943
11
129.1895329999999831
21
-105.3401190000000014
0
LINE
8
BLACK
6
CONTINUOUS
10
129.1895329999999831
20
-105.3401190000000014
11
129.1597270000000037
21
-105.384726999999998
0
LINE
8
BLACK
6
CONTINUOUS
10
129.1597270000000037
20
-105.384726999999998
11
129.1151189999999929
21
-105.4145329999999916
0
LINE
8
BLACK
6
CONTINUOUS
10
129.1151189999999929
20
-105.4145329999999916
11
129.0625
21
-105.4249999999999972
0
LINE
8
BLACK
6
CONTINUOUS
10
129.0625
20
-105.4249999999999972
11
128.5374999999999943
21
-105.4249999999999972
0
LINE
8
BLACK
6
CONTINUOUS
10
128.5374999999999943
20
-105.4249999999999972
11
128.4848810000000014
21
-105.4145329999999916
0
LINE
8
BLACK
6
CONTINUOUS
10
128.4848810000000014
20
-105.4145329999999916
11
128.4402729999999906
21
-105.384726999999998
0
LINE
8
BLACK
6
CONTINUOUS
10
128.4402729999999906
20
-105.384726999999998
11
128.4104669999999828
21
-105.3401190000000014
0
LINE
8
BLACK
6
CONTINUOUS
10
128.4104669999999828
20
-105.3401190000000014
11
128.4000000000000057
21
-105.2874999999999943
0
LINE
8
BLACK
6
CONTINUOUS
10
128.4000000000000057
20
-105.2874999999999943
11
128.4000000000000057
21
-105.0124999999999886
0
LINE
8
BLACK
6
CONTINUOUS
10
128.4000000000000057
20
-105.0124999999999886
11
128.4104669999999828
21
-104.9598809999999958
0
LINE
8
BLACK
6
CONTINUOUS
10
128.4104669999999828
20
-104.9598809999999958
11
128.4402729999999906
21
-104.9152729999999991
0
LINE
8
BLACK
6
CONTINUOUS
10
128.4402729999999906
20
-104.9152729999999991
11
128.4848810000000014
21
-104.8854669999999913
0
LINE
8
BLACK
6
CONTINUOUS
10
128.4848810000000014
20
-104.8854669999999913
11
128.5374999999999943
21
-104.875
0
LINE
8
BLACK
6
CONTINUOUS
10
128.5374999999999943
20
-104.875
11
129.0625
21
-104.875
0
LINE
8
BLACK
6
CONTINUOUS
10
129.0625
20
-104.875
11
129.1151189999999929
21
-104.8854669999999913
0
LINE
8
BLACK
6
CONTINUOUS
10
131.5151189999999986
20
-104.8854669999999913
11
131.559726999999981
21
-104.9152729999999991
0
LINE
8
BLACK
6
CONTINUOUS
10
131.559726999999981
20
-104.9152729999999991
11
131.5895329999999888
21
-104.9598809999999958
0
LINE
8
BLACK
6
CONTINUOUS
10
131.5895329999999888
20
-104.9598809999999958
11
131.5999999999999943
21
-105.0124999999999886
0
LINE
8
BLACK
6
CONTINUOUS
10
131.5999999999999943
20
-105.0124999999999886
11
131.5999999999999943
21
-105.2874999999999943
0
LINE
8
BLACK
6
CONTINUOUS
10
131.5999999999999943
20
-105.2874999999999943
11
131.5895329999999888
21
-105.3401190000000014
0
LINE
8
BLACK
6
CONTINUOUS
10
131.5895329999999888
20
-105.3401190000000014
11
131.559726999999981
21
-105.384726999999998
0
LINE
8
BLACK
6
CONTINUOUS
10
131.559726999999981
20
-105.384726999999998
11
131.5151189999999986
21
-105.4145329999999916
0
LINE
8
BLACK
6
CONTINUOUS
10
131.5151189999999986
20
-105.4145329999999916
11
131.4625000000000057
21
-105.4249999999999972
0
LINE
8
BLACK
6
CONTINUOUS
10
131.4625000000000057
20
-105.4249999999999972
11
130.9375
21
-105.4249999999999972
0
LINE
8
BLACK
6
CONTINUOUS
10
130.9375
20
-105.4249999999999972
11
130.8848810000000071
21
-105.4145329999999916
0
LINE
8
BLACK
6
CONTINUOUS
10
130.8848810000000071
20
-105.4145329999999916
11
130.8402729999999963
21
-105.384726999999998
0
LINE
8
BLACK
6
CONTINUOUS
10
130.8402729999999963
20
-105.384726999999998
11
130.8104669999999885
21
-105.3401190000000014
0
LINE
8
BLACK
6
CONTINUOUS
10
130.8104669999999885
20
-105.3401190000000014
11
130.7999999999999829
21
-105.2874999999999943
0
LINE
8
BLACK
6
CONTINUOUS
10
130.7999999999999829
20
-105.2874999999999943
11
130.7999999999999829
21
-105.0124999999999886
0
LINE
8
BLACK
6
CONTINUOUS
10
130.7999999999999829
20
-105.0124999999999886
11
130.8104669999999885
21
-104.9598809999999958
0
LINE
8
BLACK
6
CONTINUOUS
10
130.8104669999999885
20
-104.9598809999999958
11
130.8402729999999963
21
-104.9152729999999991
0
LINE
8
BLACK
6
CONTINUOUS
10
130.8402729999999963
20
-104.9152729999999991
11
130.8848810000000071
21
-104.8854669999999913
0
LINE
8
BLACK
6
CONTINUOUS
10
130.8848810000000071
20
-104.8854669999999913
11
130.9375
21
-104.875
0
LINE
8
BLACK
6
CONTINUOUS
10
130.9375
20
-104.875
11
131.4625000000000057
21
-104.875
0
LINE
8
BLACK
6
CONTINUOUS
10
131.4625000000000057
20
-104.875
11
131.5151189999999986
21
-104.8854669999999913
0
LINE
8
BLACK
6
CONTINUOUS
10
63.0851189999999988
20
-104.285466999999997
11
63.1297269999999955
21
-104.3152729999999906
0
LINE
8
BLACK
6
CONTINUOUS
10
63.1297269999999955
20
-104.3152729999999906
11
63.1595329999999962
21
-104.3598810000000014
0
LINE
8
BLACK
6
CONTINUOUS
10
63.1595329999999962
20
-104.3598810000000014
11
63.1699999999999946
21
-104.4124999999999943
0
LINE
8
BLACK
6
CONTINUOUS
10
63.1699999999999946
20
-104.4124999999999943
11
63.1699999999999946
21
-104.6875
0
LINE
8
BLACK
6
CONTINUOUS
10
63.1699999999999946
20
-104.6875
11
63.1595329999999962
21
-104.7401189999999929
0
LINE
8
BLACK
6
CONTINUOUS
10
63.1595329999999962
20
-104.7401189999999929
11
63.1297269999999955
21
-104.7847269999999895
0
LINE
8
BLACK
6
CONTINUOUS
10
63.1297269999999955
20
-104.7847269999999895
11
63.0851189999999988
21
-104.8145329999999973
0
LINE
8
BLACK
6
CONTINUOUS
10
63.0851189999999988
20
-104.8145329999999973
11
63.0324999999999989
21
-104.8249999999999886
0
LINE
8
BLACK
6
CONTINUOUS
10
63.0324999999999989
20
-104.8249999999999886
11
62.5075000000000003
21
-104.8249999999999886
0
LINE
8
BLACK
6
CONTINUOUS
10
62.5075000000000003
20
-104.8249999999999886
11
62.4548810000000003
21
-104.8145329999999973
0
LINE
8
BLACK
6
CONTINUOUS
10
62.4548810000000003
20
-104.8145329999999973
11
62.4102729999999966
21
-104.7847269999999895
0
LINE
8
BLACK
6
CONTINUOUS
10
62.4102729999999966
20
-104.7847269999999895
11
62.3804669999999959
21
-104.7401189999999929
0
LINE
8
BLACK
6
CONTINUOUS
10
62.3804669999999959
20
-104.7401189999999929
11
62.3699999999999974
21
-104.6875
0
LINE
8
BLACK
6
CONTINUOUS
10
62.3699999999999974
20
-104.6875
11
62.3699999999999974
21
-104.4124999999999943
0
LINE
8
BLACK
6
CONTINUOUS
10
62.3699999999999974
20
-104.4124999999999943
11
62.3804669999999959
21
-104.3598810000000014
0
LINE
8
BLACK
6
CONTINUOUS
10
62.3804669999999959
20
-104.3598810000000014
11
62.4102729999999966
21
-104.3152729999999906
0
LINE
8
BLACK
6
CONTINUOUS
10
62.4102729999999966
20
-104.3152729999999906
11
62.4548810000000003
21
-104.285466999999997
0
LINE
8
BLACK
6
CONTINUOUS
10
62.4548810000000003
20
-104.285466999999997
11
62.5075000000000003
21
-104.2749999999999915
0
LINE
8
BLACK
6
CONTINUOUS
10
62.5075000000000003
20
-104.2749999999999915
11
63.0324999999999989
21
-104.2749999999999915
0
LINE
8
BLACK
6
CONTINUOUS
10
63.0324999999999989
20
-104.2749999999999915
11
63.0851189999999988
21
-104.285466999999997
0
LINE
8
BLACK
6
CONTINUOUS
10
65.4851189999999974
20
-104.285466999999997
11
65.5297269999999941
21
-104.3152729999999906
0
LINE
8
BLACK
6
CONTINUOUS
10
65.5297269999999941
20
-104.3152729999999906
11
65.5595330000000018
21
-104.3598810000000014
0
LINE
8
BLACK
6
CONTINUOUS
10
65.5595330000000018
20
-104.3598810000000014
11
65.5699999999999932
21
-104.4124999999999943
0
LINE
8
BLACK
6
CONTINUOUS
10
65.5699999999999932
20
-104.4124999999999943
11
65.5699999999999932
21
-104.6875
0
LINE
8
BLACK
6
CONTINUOUS
10
65.5699999999999932
20
-104.6875
11
65.5595330000000018
21
-104.7401189999999929
0
LINE
8
BLACK
6
CONTINUOUS
10
65.5595330000000018
20
-104.7401189999999929
11
65.5297269999999941
21
-104.7847269999999895
0
LINE
8
BLACK
6
CONTINUOUS
10
65.5297269999999941
20
-104.7847269999999895
11
65.4851189999999974
21
-104.8145329999999973
0
LINE
8
BLACK
6
CONTINUOUS
10
65.4851189999999974
20
-104.8145329999999973
11
65.4324999999999903
21
-104.8249999999999886
0
LINE
8
BLACK
6
CONTINUOUS
10
65.4324999999999903
20
-104.8249999999999886
11
64.9074999999999989
21
-104.8249999999999886
0
LINE
8
BLACK
6
CONTINUOUS
10
64.9074999999999989
20
-104.8249999999999886
11
64.8548809999999918
21
-104.8145329999999973
0
LINE
8
BLACK
6
CONTINUOUS
10
64.8548809999999918
20
-104.8145329999999973
11
64.8102729999999951
21
-104.7847269999999895
0
LINE
8
BLACK
6
CONTINUOUS
10
64.8102729999999951
20
-104.7847269999999895
11
64.7804670000000016
21
-104.7401189999999929
0
LINE
8
BLACK
6
CONTINUOUS
10
64.7804670000000016
20
-104.7401189999999929
11
64.769999999999996
21
-104.6875
0
LINE
8
BLACK
6
CONTINUOUS
10
64.769999999999996
20
-104.6875
11
64.769999999999996
21
-104.4124999999999943
0
LINE
8
BLACK
6
CONTINUOUS
10
64.769999999999996
20
-104.4124999999999943
11
64.7804670000000016
21
-104.3598810000000014
0
LINE
8
BLACK
6
CONTINUOUS
10
64.7804670000000016
20
-104.3598810000000014
11
64.8102729999999951
21
-104.3152729999999906
0
LINE
8
BLACK
6
CONTINUOUS
10
64.8102729999999951
20
-104.3152729999999906
11
64.8548809999999918
21
-104.285466999999997
0
LINE
8
BLACK
6
CONTINUOUS
10
64.8548809999999918
20
-104.285466999999997
11
64.9074999999999989
21
-104.2749999999999915
0
LINE
8
BLACK
6
CONTINUOUS
10
64.9074999999999989
20
-104.2749999999999915
11
65.4324999999999903
21
-104.2749999999999915
0
LINE
8
BLACK
6
CONTINUOUS
10
65.4324999999999903
20
-104.2749999999999915
11
65.4851189999999974
21
-104.285466999999997
0
LINE
8
BLACK
6
CONTINUOUS
10
129.1151189999999929
20
-103.9354669999999885
11
129.1597270000000037
21
-103.9652729999999963
0
LINE
8
BLACK
6
CONTINUOUS
10
129.1597270000000037
20
-103.9652729999999963
11
129.1895329999999831
21
-104.0098809999999929
0
LINE
8
BLACK
6
CONTINUOUS
10
129.1895329999999831
20
-104.0098809999999929
11
129.1999999999999886
21
-104.0625
0
LINE
8
BLACK
6
CONTINUOUS
10
129.1999999999999886
20
-104.0625
11
129.1999999999999886
21
-104.3374999999999915
0
LINE
8
BLACK
6
CONTINUOUS
10
129.1999999999999886
20
-104.3374999999999915
11
129.1895329999999831
21
-104.3901189999999986
0
LINE
8
BLACK
6
CONTINUOUS
10
129.1895329999999831
20
-104.3901189999999986
11
129.1597270000000037
21
-104.4347269999999952
0
LINE
8
BLACK
6
CONTINUOUS
10
129.1597270000000037
20
-104.4347269999999952
11
129.1151189999999929
21
-104.4645329999999888
0
LINE
8
BLACK
6
CONTINUOUS
10
129.1151189999999929
20
-104.4645329999999888
11
129.0625
21
-104.4749999999999943
0
LINE
8
BLACK
6
CONTINUOUS
10
129.0625
20
-104.4749999999999943
11
128.5374999999999943
21
-104.4749999999999943
0
LINE
8
BLACK
6
CONTINUOUS
10
128.5374999999999943
20
-104.4749999999999943
11
128.4848810000000014
21
-104.4645329999999888
0
LINE
8
BLACK
6
CONTINUOUS
10
128.4848810000000014
20
-104.4645329999999888
11
128.4402729999999906
21
-104.4347269999999952
0
LINE
8
BLACK
6
CONTINUOUS
10
128.4402729999999906
20
-104.4347269999999952
11
128.4104669999999828
21
-104.3901189999999986
0
LINE
8
BLACK
6
CONTINUOUS
10
128.4104669999999828
20
-104.3901189999999986
11
128.4000000000000057
21
-104.3374999999999915
0
LINE
8
BLACK
6
CONTINUOUS
10
128.4000000000000057
20
-104.3374999999999915
11
128.4000000000000057
21
-104.0625
0
LINE
8
BLACK
6
CONTINUOUS
10
128.4000000000000057
20
-104.0625
11
128.4104669999999828
21
-104.0098809999999929
0
LINE
8
BLACK
6
CONTINUOUS
10
128.4104669999999828
20
-104.0098809999999929
11
128.4402729999999906
21
-103.9652729999999963
0
LINE
8
BLACK
6
CONTINUOUS
10
128.4402729999999906
20
-103.9652729999999963
11
128.4848810000000014
21
-103.9354669999999885
0
LINE
8
BLACK
6
CONTINUOUS
10
128.4848810000000014
20
-103.9354669999999885
11
128.5374999999999943
21
-103.9249999999999972
0
LINE
8
BLACK
6
CONTINUOUS
10
128.5374999999999943
20
-103.9249999999999972
11
129.0625
21
-103.9249999999999972
0
LINE
8
BLACK
6
CONTINUOUS
10
129.0625
20
-103.9249999999999972
11
129.1151189999999929
21
-103.9354669999999885
0
LINE
8
BLACK
6
CONTINUOUS
10
131.5151189999999986
20
-103.9354669999999885
11
131.559726999999981
21
-103.9652729999999963
0
LINE
8
BLACK
6
CONTINUOUS
10
131.559726999999981
20
-103.9652729999999963
11
131.5895329999999888
21
-104.0098809999999929
0
LINE
8
BLACK
6
CONTINUOUS
10
131.5895329999999888
20
-104.0098809999999929
11
131.5999999999999943
21
-104.0625
0
LINE
8
BLACK
6
CONTINUOUS
10
131.5999999999999943
20
-104.0625
11
131.5999999999999943
21
-104.3374999999999915
0
LINE
8
BLACK
6
CONTINUOUS
10
131.5999999999999943
20
-104.3374999999999915
11
131.5895329999999888
21
-104.3901189999999986
0
LINE
8
BLACK
6
CONTINUOUS
10
131.5895329999999888
20
-104.3901189999999986
11
131.559726999999981
21
-104.4347269999999952
0
LINE
8
BLACK
6
CONTINUOUS
10
131.559726999999981
20
-104.4347269999999952
11
131.5151189999999986
21
-104.4645329999999888
0
LINE
8
BLACK
6
CONTINUOUS
10
131.5151189999999986
20
-104.4645329999999888
11
131.4625000000000057
21
-104.4749999999999943
0
LINE
8
BLACK
6
CONTINUOUS
10
131.4625000000000057
20
-104.4749999999999943
11
130.9375
21
-104.4749999999999943
0
LINE
8
BLACK
6
CONTINUOUS
10
130.9375
20
-104.4749999999999943
11
130.8848810000000071
21
-104.4645329999999888
0
LINE
8
BLACK
6
CONTINUOUS
10
130.8848810000000071
20
-104.4645329999999888
11
130.8402729999999963
21
-104.4347269999999952
0
LINE
8
BLACK
6
CONTINUOUS
10
130.8402729999999963
20
-104.4347269999999952
11
130.8104669999999885
21
-104.3901189999999986
0
LINE
8
BLACK
6
CONTINUOUS
10
130.8104669999999885
20
-104.3901189999999986
11
130.7999999999999829
21
-104.3374999999999915
0
LINE
8
BLACK
6
CONTINUOUS
10
130.7999999999999829
20
-104.3374999999999915
11
130.7999999999999829
21
-104.0625
0
LINE
8
BLACK
6
CONTINUOUS
10
130.7999999999999829
20
-104.0625
11
130.8104669999999885
21
-104.0098809999999929
0
LINE
8
BLACK
6
CONTINUOUS
10
130.8104669999999885
20
-104.0098809999999929
11
130.8402729999999963
21
-103.9652729999999963
0
LINE
8
BLACK
6
CONTINUOUS
10
130.8402729999999963
20
-103.9652729999999963
11
130.8848810000000071
21
-103.9354669999999885
0
LINE
8
BLACK
6
CONTINUOUS
10
130.8848810000000071
20
-103.9354669999999885
11
130.9375
21
-103.9249999999999972
0
LINE
8
BLACK
6
CONTINUOUS
10
130.9375
20
-103.9249999999999972
11
131.4625000000000057
21
-103.9249999999999972
0
LINE
8
BLACK
6
CONTINUOUS
10
131.4625000000000057
20
-103.9249999999999972
11
131.5151189999999986
21
-103.9354669999999885
0
LINE
8
BLACK
6
CONTINUOUS
10
129.1151189999999929
20
-102.9854669999999999
11
129.1597270000000037
21
-103.0152729999999934
0
LINE
8
BLACK
6
CONTINUOUS
10
129.1597270000000037
20
-103.0152729999999934
11
129.1895329999999831
21
-103.0598809999999901
0
LINE
8
BLACK
6
CONTINUOUS
10
129.1895329999999831
20
-103.0598809999999901
11
129.1999999999999886
21
-103.1124999999999972
0
LINE
8
BLACK
6
CONTINUOUS
10
129.1999999999999886
20
-103.1124999999999972
11
129.1999999999999886
21
-103.3874999999999886
0
LINE
8
BLACK
6
CONTINUOUS
10
129.1999999999999886
20
-103.3874999999999886
11
129.1895329999999831
21
-103.4401189999999957
0
LINE
8
BLACK
6
CONTINUOUS
10
129.1895329999999831
20
-103.4401189999999957
11
129.1597270000000037
21
-103.4847269999999924
0
LINE
8
BLACK
6
CONTINUOUS
10
129.1597270000000037
20
-103.4847269999999924
11
129.1151189999999929
21
-103.5145330000000001
0
LINE
8
BLACK
6
CONTINUOUS
10
129.1151189999999929
20
-103.5145330000000001
11
129.0625
21
-103.5249999999999915
0
LINE
8
BLACK
6
CONTINUOUS
10
129.0625
20
-103.5249999999999915
11
128.5374999999999943
21
-103.5249999999999915
0
LINE
8
BLACK
6
CONTINUOUS
10
128.5374999999999943
20
-103.5249999999999915
11
128.4848810000000014
21
-103.5145330000000001
0
LINE
8
BLACK
6
CONTINUOUS
10
128.4848810000000014
20
-103.5145330000000001
11
128.4402729999999906
21
-103.4847269999999924
0
LINE
8
BLACK
6
CONTINUOUS
10
128.4402729999999906
20
-103.4847269999999924
11
128.4104669999999828
21
-103.4401189999999957
0
LINE
8
BLACK
6
CONTINUOUS
10
128.4104669999999828
20
-103.4401189999999957
11
128.4000000000000057
21
-103.3874999999999886
0
LINE
8
BLACK
6
CONTINUOUS
10
128.4000000000000057
20
-103.3874999999999886
11
128.4000000000000057
21
-103.1124999999999972
0
LINE
8
BLACK
6
CONTINUOUS
10
128.4000000000000057
20
-103.1124999999999972
11
128.4104669999999828
21
-103.0598809999999901
0
LINE
8
BLACK
6
CONTINUOUS
10
128.4104669999999828
20
-103.0598809999999901
11
128.4402729999999906
21
-103.0152729999999934
0
LINE
8
BLACK
6
CONTINUOUS
10
128.4402729999999906
20
-103.0152729999999934
11
128.4848810000000014
21
-102.9854669999999999
0
LINE
8
BLACK
6
CONTINUOUS
10
128.4848810000000014
20
-102.9854669999999999
11
128.5374999999999943
21
-102.9749999999999943
0
LINE
8
BLACK
6
CONTINUOUS
10
128.5374999999999943
20
-102.9749999999999943
11
129.0625
21
-102.9749999999999943
0
LINE
8
BLACK
6
CONTINUOUS
10
129.0625
20
-102.9749999999999943
11
129.1151189999999929
21
-102.9854669999999999
0
LINE
8
BLACK
6
CONTINUOUS
10
131.5151189999999986
20
-102.9854669999999999
11
131.559726999999981
21
-103.0152729999999934
0
LINE
8
BLACK
6
CONTINUOUS
10
131.559726999999981
20
-103.0152729999999934
11
131.5895329999999888
21
-103.0598809999999901
0
LINE
8
BLACK
6
CONTINUOUS
10
131.5895329999999888
20
-103.0598809999999901
11
131.5999999999999943
21
-103.1124999999999972
0
LINE
8
BLACK
6
CONTINUOUS
10
131.5999999999999943
20
-103.1124999999999972
11
131.5999999999999943
21
-103.3874999999999886
0
LINE
8
BLACK
6
CONTINUOUS
10
131.5999999999999943
20
-103.3874999999999886
11
131.5895329999999888
21
-103.4401189999999957
0
LINE
8
BLACK
6
CONTINUOUS
10
131.5895329999999888
20
-103.4401189999999957
11
131.559726999999981
21
-103.4847269999999924
0
LINE
8
BLACK
6
CONTINUOUS
10
131.559726999999981
20
-103.4847269999999924
11
131.5151189999999986
21
-103.5145330000000001
0
LINE
8
BLACK
6
CONTINUOUS
10
131.5151189999999986
20
-103.5145330000000001
11
131.4625000000000057
21
-103.5249999999999915
0
LINE
8
BLACK
6
CONTINUOUS
10
131.4625000000000057
20
-103.5249999999999915
11
130.9375
21
-103.5249999999999915
0
LINE
8
BLACK
6
CONTINUOUS
10
130.9375
20
-103.5249999999999915
11
130.8848810000000071
21
-103.5145330000000001
0
LINE
8
BLACK
6
CONTINUOUS
10
130.8848810000000071
20
-103.5145330000000001
11
130.8402729999999963
21
-103.4847269999999924
0
LINE
8
BLACK
6
CONTINUOUS
10
130.8402729999999963
20
-103.4847269999999924
11
130.8104669999999885
21
-103.4401189999999957
0
LINE
8
BLACK
6
CONTINUOUS
10
130.8104669999999885
20
-103.4401189999999957
11
130.7999999999999829
21
-103.3874999999999886
0
LINE
8
BLACK
6
CONTINUOUS
10
130.7999999999999829
20
-103.3874999999999886
11
130.7999999999999829
21
-103.1124999999999972
0
LINE
8
BLACK
6
CONTINUOUS
10
130.7999999999999829
20
-103.1124999999999972
11
130.8104669999999885
21
-103.0598809999999901
0
LINE
8
BLACK
6
CONTINUOUS
10
130.8104669999999885
20
-103.0598809999999901
11
130.8402729999999963
21
-103.0152729999999934
0
LINE
8
BLACK
6
CONTINUOUS
10
130.8402729999999963
20
-103.0152729999999934
11
130.8848810000000071
21
-102.9854669999999999
0
LINE
8
BLACK
6
CONTINUOUS
10
130.8848810000000071
20
-102.9854669999999999
11
130.9375
21
-102.9749999999999943
0
LINE
8
BLACK
6
CONTINUOUS
10
130.9375
20
-102.9749999999999943
11
131.4625000000000057
21
-102.9749999999999943
0
LINE
8
BLACK
6
CONTINUOUS
10
131.4625000000000057
20
-102.9749999999999943
11
131.5151189999999986
21
-102.9854669999999999
0
LINE
8
BLACK
6
CONTINUOUS
10
87.3499999999999943
20
-77.8999999999999915
11
86.6499999999999915
21
-77.8999999999999915
0
LINE
8
BLACK
6
CONTINUOUS
10
86.6499999999999915
20
-77.8999999999999915
11
86.6499999999999915
21
-77.7000000000000028
0
LINE
8
BLACK
6
CONTINUOUS
10
86.6499999999999915
20
-77.7000000000000028
11
87.3499999999999943
21
-77.7000000000000028
0
LINE
8
BLACK
6
CONTINUOUS
10
87.3499999999999943
20
-77.7000000000000028
11
87.3499999999999943
21
-77.8999999999999915
0
LINE
8
BLACK
6
CONTINUOUS
10
90.4299999999999926
20
-77.8999999999999915
11
89.7299999999999898
21
-77.8999999999999915
0
LINE
8
BLACK
6
CONTINUOUS
10
89.7299999999999898
20
-77.8999999999999915
11
89.7299999999999898
21
-77.7000000000000028
0
LINE
8
BLACK
6
CONTINUOUS
10
89.7299999999999898
20
-77.7000000000000028
11
90.4299999999999926
21
-77.7000000000000028
0
LINE
8
BLACK
6
CONTINUOUS
10
90.4299999999999926
20
-77.7000000000000028
11
90.4299999999999926
21
-77.8999999999999915
0
LINE
8
BLACK
6
CONTINUOUS
10
121.269999999999996
20
-77.8999999999999915
11
120.5699999999999932
21
-77.8999999999999915
0
LINE
8
BLACK
6
CONTINUOUS
10
120.5699999999999932
20
-77.8999999999999915
11
120.5699999999999932
21
-77.7000000000000028
0
LINE
8
BLACK
6
CONTINUOUS
10
120.5699999999999932
20
-77.7000000000000028
11
121.269999999999996
21
-77.7000000000000028
0
LINE
8
BLACK
6
CONTINUOUS
10
121.269999999999996
20
-77.7000000000000028
11
121.269999999999996
21
-77.8999999999999915
0
LINE
8
BLACK
6
CONTINUOUS
10
124.3499999999999943
20
-77.8999999999999915
11
123.6499999999999915
21
-77.8999999999999915
0
LINE
8
BLACK
6
CONTINUOUS
10
123.6499999999999915
20
-77.8999999999999915
11
123.6499999999999915
21
-77.7000000000000028
0
LINE
8
BLACK
6
CONTINUOUS
10
123.6499999999999915
20
-77.7000000000000028
11
124.3499999999999943
21
-77.7000000000000028
0
LINE
8
BLACK
6
CONTINUOUS
10
124.3499999999999943
20
-77.7000000000000028
11
124.3499999999999943
21
-77.8999999999999915
0
LINE
8
BLACK
6
CONTINUOUS
10
87.3499999999999943
20
-77.5
11
86.6499999999999915
21
-77.5
0
LINE
8
BLACK
6
CONTINUOUS
10
86.6499999999999915
20
-77.5
11
86.6499999999999915
21
-77.2999999999999972
0
LINE
8
BLACK
6
CONTINUOUS
10
86.6499999999999915
20
-77.2999999999999972
11
87.3499999999999943
21
-77.2999999999999972
0
LINE
8
BLACK
6
CONTINUOUS
10
87.3499999999999943
20
-77.2999999999999972
11
87.3499999999999943
21
-77.5
0
LINE
8
BLACK
6
CONTINUOUS
10
90.4299999999999926
20
-77.5
11
89.7299999999999898
21
-77.5
0
LINE
8
BLACK
6
CONTINUOUS
10
89.7299999999999898
20
-77.5
11
89.7299999999999898
21
-77.2999999999999972
0
LINE
8
BLACK
6
CONTINUOUS
10
89.7299999999999898
20
-77.2999999999999972
11
90.4299999999999926
21
-77.2999999999999972
0
LINE
8
BLACK
6
CONTINUOUS
10
90.4299999999999926
20
-77.2999999999999972
11
90.4299999999999926
21
-77.5
0
LINE
8
BLACK
6
CONTINUOUS
10
121.269999999999996
20
-77.5
11
120.5699999999999932
21
-77.5
0
LINE
8
BLACK
6
CONTINUOUS
10
120.5699999999999932
20
-77.5
11
120.5699999999999932
21
-77.2999999999999972
0
LINE
8
BLACK
6
CONTINUOUS
10
120.5699999999999932
20
-77.2999999999999972
11
121.269999999999996
21
-77.2999999999999972
0
LINE
8
BLACK
6
CONTINUOUS
10
121.269999999999996
20
-77.2999999999999972
11
121.269999999999996
21
-77.5
0
LINE
8
BLACK
6
CONTINUOUS
10
124.3499999999999943
20
-77.5
11
123.6499999999999915
21
-77.5
0
LINE
8
BLACK
6
CONTINUOUS
10
123.6499999999999915
20
-77.5
11
123.6499999999999915
21
-77.2999999999999972
0
LINE
8
BLACK
6
CONTINUOUS
10
123.6499999999999915
20
-77.2999999999999972
11
124.3499999999999943
21
-77.2999999999999972
0
LINE
8
BLACK
6
CONTINUOUS
10
124.3499999999999943
20
-77.2999999999999972
11
124.3499999999999943
21
-77.5
0
LINE
8
BLACK
6
CONTINUOUS
10
87.3499999999999943
20
-77.0999999999999943
11
86.6499999999999915
21
-77.0999999999999943
0
LINE
8
BLACK
6
CONTINUOUS
10
86.6499999999999915
20
-77.0999999999999943
11
86.6499999999999915
21
-76.8999999999999915
0
LINE
8
BLACK
6
CONTINUOUS
10
86.6499999999999915
20
-76.8999999999999915
11
87.3499999999999943
21
-76.8999999999999915
0
LINE
8
BLACK
6
CONTINUOUS
10
87.3499999999999943
20
-76.8999999999999915
11
87.3499999999999943
21
-77.0999999999999943
0
LINE
8
BLACK
6
CONTINUOUS
10
90.4299999999999926
20
-77.0999999999999943
11
89.7299999999999898
21
-77.0999999999999943
0
LINE
8
BLACK
6
CONTINUOUS
10
89.7299999999999898
20
-77.0999999999999943
11
89.7299999999999898
21
-76.8999999999999915
0
LINE
8
BLACK
6
CONTINUOUS
10
89.7299999999999898
20
-76.8999999999999915
11
90.4299999999999926
21
-76.8999999999999915
0
LINE
8
BLACK
6
CONTINUOUS
10
90.4299999999999926
20
-76.8999999999999915
11
90.4299999999999926
21
-77.0999999999999943
0
LINE
8
BLACK
6
CONTINUOUS
10
121.269999999999996
20
-77.0999999999999943
11
120.5699999999999932
21
-77.0999999999999943
0
LINE
8
BLACK
6
CONTINUOUS
10
120.5699999999999932
20
-77.0999999999999943
11
120.5699999999999932
21
-76.8999999999999915
0
LINE
8
BLACK
6
CONTINUOUS
10
120.5699999999999932
20
-76.8999999999999915
11
121.269999999999996
21
-76.8999999999999915
0
LINE
8
BLACK
6
CONTINUOUS
10
121.269999999999996
20
-76.8999999999999915
11
121.269999999999996
21
-77.0999999999999943
0
LINE
8
BLACK
6
CONTINUOUS
10
124.3499999999999943
20
-77.0999999999999943
11
123.6499999999999915
21
-77.0999999999999943
0
LINE
8
BLACK
6
CONTINUOUS
10
123.6499999999999915
20
-77.0999999999999943
11
123.6499999999999915
21
-76.8999999999999915
0
LINE
8
BLACK
6
CONTINUOUS
10
123.6499999999999915
20
-76.8999999999999915
11
124.3499999999999943
21
-76.8999999999999915
0
LINE
8
BLACK
6
CONTINUOUS
10
124.3499999999999943
20
-76.8999999999999915
11
124.3499999999999943
21
-77.0999999999999943
0
LINE
8
BLACK
6
CONTINUOUS
10
87.3499999999999943
20
-76.7000000000000028
11
86.6499999999999915
21
-76.7000000000000028
0
LINE
8
BLACK
6
CONTINUOUS
10
86.6499999999999915
20
-76.7000000000000028
11
86.6499999999999915
21
-76.5
0
LINE
8
BLACK
6
CONTINUOUS
10
86.6499999999999915
20
-76.5
11
87.3499999999999943
21
-76.5
0
LINE
8
BLACK
6
CONTINUOUS
10
87.3499999999999943
20
-76.5
11
87.3499999999999943
21
-76.7000000000000028
0
LINE
8
BLACK
6
CONTINUOUS
10
90.4299999999999926
20
-76.7000000000000028
11
89.7299999999999898
21
-76.7000000000000028
0
LINE
8
BLACK
6
CONTINUOUS
10
89.7299999999999898
20
-76.7000000000000028
11
89.7299999999999898
21
-76.5
0
LINE
8
BLACK
6
CONTINUOUS
10
89.7299999999999898
20
-76.5
11
90.4299999999999926
21
-76.5
0
LINE
8
BLACK
6
CONTINUOUS
10
90.4299999999999926
20
-76.5
11
90.4299999999999926
21
-76.7000000000000028
0
LINE
8
BLACK
6
CONTINUOUS
10
121.269999999999996
20
-76.7000000000000028
11
120.5699999999999932
21
-76.7000000000000028
0
LINE
8
BLACK
6
CONTINUOUS
10
120.5699999999999932
20
-76.7000000000000028
11
120.5699999999999932
21
-76.5
0
LINE
8
BLACK
6
CONTINUOUS
10
120.5699999999999932
20
-76.5
11
121.269999999999996
21
-76.5
0
LINE
8
BLACK
6
CONTINUOUS
10
121.269999999999996
20
-76.5
11
121.269999999999996
21
-76.7000000000000028
0
LINE
8
BLACK
6
CONTINUOUS
10
124.3499999999999943
20
-76.7000000000000028
11
123.6499999999999915
21
-76.7000000000000028
0
LINE
8
BLACK
6
CONTINUOUS
10
123.6499999999999915
20
-76.7000000000000028
11
123.6499999999999915
21
-76.5
0
LINE
8
BLACK
6
CONTINUOUS
10
123.6499999999999915
20
-76.5
11
124.3499999999999943
21
-76.5
0
LINE
8
BLACK
6
CONTINUOUS
10
124.3499999999999943
20
-76.5
11
124.3499999999999943
21
-76.7000000000000028
0
LINE
8
BLACK
6
CONTINUOUS
10
87.3499999999999943
20
-76.2999999999999972
11
86.6499999999999915
21
-76.2999999999999972
0
LINE
8
BLACK
6
CONTINUOUS
10
86.6499999999999915
20
-76.2999999999999972
11
86.6499999999999915
21
-76.0999999999999943
0
LINE
8
BLACK
6
CONTINUOUS
10
86.6499999999999915
20
-76.0999999999999943
11
87.3499999999999943
21
-76.0999999999999943
0
LINE
8
BLACK
6
CONTINUOUS
10
87.3499999999999943
20
-76.0999999999999943
11
87.3499999999999943
21
-76.2999999999999972
0
LINE
8
BLACK
6
CONTINUOUS
10
90.4299999999999926
20
-76.2999999999999972
11
89.7299999999999898
21
-76.2999999999999972
0
LINE
8
BLACK
6
CONTINUOUS
10
89.7299999999999898
20
-76.2999999999999972
11
89.7299999999999898
21
-76.0999999999999943
0
LINE
8
BLACK
6
CONTINUOUS
10
89.7299999999999898
20
-76.0999999999999943
11
90.4299999999999926
21
-76.0999999999999943
0
LINE
8
BLACK
6
CONTINUOUS
10
90.4299999999999926
20
-76.0999999999999943
11
90.4299999999999926
21
-76.2999999999999972
0
LINE
8
BLACK
6
CONTINUOUS
10
121.269999999999996
20
-76.2999999999999972
11
120.5699999999999932
21
-76.2999999999999972
0
LINE
8
BLACK
6
CONTINUOUS
10
120.5699999999999932
20
-76.2999999999999972
11
120.5699999999999932
21
-76.0999999999999943
0
LINE
8
BLACK
6
CONTINUOUS
10
120.5699999999999932
20
-76.0999999999999943
11
121.269999999999996
21
-76.0999999999999943
0
LINE
8
BLACK
6
CONTINUOUS
10
121.269999999999996
20
-76.0999999999999943
11
121.269999999999996
21
-76.2999999999999972
0
LINE
8
BLACK
6
CONTINUOUS
10
124.3499999999999943
20
-76.2999999999999972
11
123.6499999999999915
21
-76.2999999999999972
0
LINE
8
BLACK
6
CONTINUOUS
10
123.6499999999999915
20
-76.2999999999999972
11
123.6499999999999915
21
-76.0999999999999943
0
LINE
8
BLACK
6
CONTINUOUS
10
123.6499999999999915
20
-76.0999999999999943
11
124.3499999999999943
21
-76.0999999999999943
0
LINE
8
BLACK
6
CONTINUOUS
10
124.3499999999999943
20
-76.0999999999999943
11
124.3499999999999943
21
-76.2999999999999972
0
LINE
8
BLACK
6
CONTINUOUS
10
87.3499999999999943
20
-75.8999999999999915
11
86.6499999999999915
21
-75.8999999999999915
0
LINE
8
BLACK
6
CONTINUOUS
10
86.6499999999999915
20
-75.8999999999999915
11
86.6499999999999915
21
-75.7000000000000028
0
LINE
8
BLACK
6
CONTINUOUS
10
86.6499999999999915
20
-75.7000000000000028
11
87.3499999999999943
21
-75.7000000000000028
0
LINE
8
BLACK
6
CONTINUOUS
10
87.3499999999999943
20
-75.7000000000000028
11
87.3499999999999943
21
-75.8999999999999915
0
LINE
8
BLACK
6
CONTINUOUS
10
90.4299999999999926
20
-75.8999999999999915
11
89.7299999999999898
21
-75.8999999999999915
0
LINE
8
BLACK
6
CONTINUOUS
10
89.7299999999999898
20
-75.8999999999999915
11
89.7299999999999898
21
-75.7000000000000028
0
LINE
8
BLACK
6
CONTINUOUS
10
89.7299999999999898
20
-75.7000000000000028
11
90.4299999999999926
21
-75.7000000000000028
0
LINE
8
BLACK
6
CONTINUOUS
10
90.4299999999999926
20
-75.7000000000000028
11
90.4299999999999926
21
-75.8999999999999915
0
LINE
8
BLACK
6
CONTINUOUS
10
121.269999999999996
20
-75.8999999999999915
11
120.5699999999999932
21
-75.8999999999999915
0
LINE
8
BLACK
6
CONTINUOUS
10
120.5699999999999932
20
-75.8999999999999915
11
120.5699999999999932
21
-75.7000000000000028
0
LINE
8
BLACK
6
CONTINUOUS
10
120.5699999999999932
20
-75.7000000000000028
11
121.269999999999996
21
-75.7000000000000028
0
LINE
8
BLACK
6
CONTINUOUS
10
121.269999999999996
20
-75.7000000000000028
11
121.269999999999996
21
-75.8999999999999915
0
LINE
8
BLACK
6
CONTINUOUS
10
124.3499999999999943
20
-75.8999999999999915
11
123.6499999999999915
21
-75.8999999999999915
0
LINE
8
BLACK
6
CONTINUOUS
10
123.6499999999999915
20
-75.8999999999999915
11
123.6499999999999915
21
-75.7000000000000028
0
LINE
8
BLACK
6
CONTINUOUS
10
123.6499999999999915
20
-75.7000000000000028
11
124.3499999999999943
21
-75.7000000000000028
0
LINE
8
BLACK
6
CONTINUOUS
10
124.3499999999999943
20
-75.7000000000000028
11
124.3499999999999943
21
-75.8999999999999915
0
LINE
8
BLACK
6
CONTINUOUS
10
87.3499999999999943
20
-75.5
11
86.6499999999999915
21
-75.5
0
LINE
8
BLACK
6
CONTINUOUS
10
86.6499999999999915
20
-75.5
11
86.6499999999999915
21
-75.2999999999999972
0
LINE
8
BLACK
6
CONTINUOUS
10
86.6499999999999915
20
-75.2999999999999972
11
87.3499999999999943
21
-75.2999999999999972
0
LINE
8
BLACK
6
CONTINUOUS
10
87.3499999999999943
20
-75.2999999999999972
11
87.3499999999999943
21
-75.5
0
LINE
8
BLACK
6
CONTINUOUS
10
90.4299999999999926
20
-75.5
11
89.7299999999999898
21
-75.5
0
LINE
8
BLACK
6
CONTINUOUS
10
89.7299999999999898
20
-75.5
11
89.7299999999999898
21
-75.2999999999999972
0
LINE
8
BLACK
6
CONTINUOUS
10
89.7299999999999898
20
-75.2999999999999972
11
90.4299999999999926
21
-75.2999999999999972
0
LINE
8
BLACK
6
CONTINUOUS
10
90.4299999999999926
20
-75.2999999999999972
11
90.4299999999999926
21
-75.5
0
LINE
8
BLACK
6
CONTINUOUS
10
121.269999999999996
20
-75.5
11
120.5699999999999932
21
-75.5
0
LINE
8
BLACK
6
CONTINUOUS
10
120.5699999999999932
20
-75.5
11
120.5699999999999932
21
-75.2999999999999972
0
LINE
8
BLACK
6
CONTINUOUS
10
120.5699999999999932
20
-75.2999999999999972
11
121.269999999999996
21
-75.2999999999999972
0
LINE
8
BLACK
6
CONTINUOUS
10
121.269999999999996
20
-75.2999999999999972
11
121.269999999999996
21
-75.5
0
LINE
8
BLACK
6
CONTINUOUS
10
124.3499999999999943
20
-75.5
11
123.6499999999999915
21
-75.5
0
LINE
8
BLACK
6
CONTINUOUS
10
123.6499999999999915
20
-75.5
11
123.6499999999999915
21
-75.2999999999999972
0
LINE
8
BLACK
6
CONTINUOUS
10
123.6499999999999915
20
-75.2999999999999972
11
124.3499999999999943
21
-75.2999999999999972
0
LINE
8
BLACK
6
CONTINUOUS
10
124.3499999999999943
20
-75.2999999999999972
11
124.3499999999999943
21
-75.5
0
LINE
8
BLACK
6
CONTINUOUS
10
87.3499999999999943
20
-75.0999999999999943
11
86.6499999999999915
21
-75.0999999999999943
0
LINE
8
BLACK
6
CONTINUOUS
10
86.6499999999999915
20
-75.0999999999999943
11
86.6499999999999915
21
-74.8999999999999915
0
LINE
8
BLACK
6
CONTINUOUS
10
86.6499999999999915
20
-74.8999999999999915
11
87.3499999999999943
21
-74.8999999999999915
0
LINE
8
BLACK
6
CONTINUOUS
10
87.3499999999999943
20
-74.8999999999999915
11
87.3499999999999943
21
-75.0999999999999943
0
LINE
8
BLACK
6
CONTINUOUS
10
90.4299999999999926
20
-75.0999999999999943
11
89.7299999999999898
21
-75.0999999999999943
0
LINE
8
BLACK
6
CONTINUOUS
10
89.7299999999999898
20
-75.0999999999999943
11
89.7299999999999898
21
-74.8999999999999915
0
LINE
8
BLACK
6
CONTINUOUS
10
89.7299999999999898
20
-74.8999999999999915
11
90.4299999999999926
21
-74.8999999999999915
0
LINE
8
BLACK
6
CONTINUOUS
10
90.4299999999999926
20
-74.8999999999999915
11
90.4299999999999926
21
-75.0999999999999943
0
LINE
8
BLACK
6
CONTINUOUS
10
121.269999999999996
20
-75.0999999999999943
11
120.5699999999999932
21
-75.0999999999999943
0
LINE
8
BLACK
6
CONTINUOUS
10
120.5699999999999932
20
-75.0999999999999943
11
120.5699999999999932
21
-74.8999999999999915
0
LINE
8
BLACK
6
CONTINUOUS
10
120.5699999999999932
20
-74.8999999999999915
11
121.269999999999996
21
-74.8999999999999915
0
LINE
8
BLACK
6
CONTINUOUS
10
121.269999999999996
20
-74.8999999999999915
11
121.269999999999996
21
-75.0999999999999943
0
LINE
8
BLACK
6
CONTINUOUS
10
124.3499999999999943
20
-75.0999999999999943
11
123.6499999999999915
21
-75.0999999999999943
0
LINE
8
BLACK
6
CONTINUOUS
10
123.6499999999999915
20
-75.0999999999999943
11
123.6499999999999915
21
-74.8999999999999915
0
LINE
8
BLACK
6
CONTINUOUS
10
123.6499999999999915
20
-74.8999999999999915
11
124.3499999999999943
21
-74.8999999999999915
0
LINE
8
BLACK
6
CONTINUOUS
10
124.3499999999999943
20
-74.8999999999999915
11
124.3499999999999943
21
-75.0999999999999943
0
LINE
8
BLACK
6
CONTINUOUS
10
87.3499999999999943
20
-74.7000000000000028
11
86.6499999999999915
21
-74.7000000000000028
0
LINE
8
BLACK
6
CONTINUOUS
10
86.6499999999999915
20
-74.7000000000000028
11
86.6499999999999915
21
-74.5
0
LINE
8
BLACK
6
CONTINUOUS
10
86.6499999999999915
20
-74.5
11
87.3499999999999943
21
-74.5
0
LINE
8
BLACK
6
CONTINUOUS
10
87.3499999999999943
20
-74.5
11
87.3499999999999943
21
-74.7000000000000028
0
LINE
8
BLACK
6
CONTINUOUS
10
90.4299999999999926
20
-74.7000000000000028
11
89.7299999999999898
21
-74.7000000000000028
0
LINE
8
BLACK
6
CONTINUOUS
10
89.7299999999999898
20
-74.7000000000000028
11
89.7299999999999898
21
-74.5
0
LINE
8
BLACK
6
CONTINUOUS
10
89.7299999999999898
20
-74.5
11
90.4299999999999926
21
-74.5
0
LINE
8
BLACK
6
CONTINUOUS
10
90.4299999999999926
20
-74.5
11
90.4299999999999926
21
-74.7000000000000028
0
LINE
8
BLACK
6
CONTINUOUS
10
121.269999999999996
20
-74.7000000000000028
11
120.5699999999999932
21
-74.7000000000000028
0
LINE
8
BLACK
6
CONTINUOUS
10
120.5699999999999932
20
-74.7000000000000028
11
120.5699999999999932
21
-74.5
0
LINE
8
BLACK
6
CONTINUOUS
10
120.5699999999999932
20
-74.5
11
121.269999999999996
21
-74.5
0
LINE
8
BLACK
6
CONTINUOUS
10
121.269999999999996
20
-74.5
11
121.269999999999996
21
-74.7000000000000028
0
LINE
8
BLACK
6
CONTINUOUS
10
124.3499999999999943
20
-74.7000000000000028
11
123.6499999999999915
21
-74.7000000000000028
0
LINE
8
BLACK
6
CONTINUOUS
10
123.6499999999999915
20
-74.7000000000000028
11
123.6499999999999915
21
-74.5
0
LINE
8
BLACK
6
CONTINUOUS
10
123.6499999999999915
20
-74.5
11
124.3499999999999943
21
-74.5
0
LINE
8
BLACK
6
CONTINUOUS
10
124.3499999999999943
20
-74.5
11
124.3499999999999943
21
-74.7000000000000028
0
LINE
8
BLACK
6
CONTINUOUS
10
87.3499999999999943
20
-74.2999999999999972
11
86.6499999999999915
21
-74.2999999999999972
0
LINE
8
BLACK
6
CONTINUOUS
10
86.6499999999999915
20
-74.2999999999999972
11
86.6499999999999915
21
-74.0999999999999943
0
LINE
8
BLACK
6
CONTINUOUS
10
86.6499999999999915
20
-74.0999999999999943
11
87.3499999999999943
21
-74.0999999999999943
0
LINE
8
BLACK
6
CONTINUOUS
10
87.3499999999999943
20
-74.0999999999999943
11
87.3499999999999943
21
-74.2999999999999972
0
LINE
8
BLACK
6
CONTINUOUS
10
90.4299999999999926
20
-74.2999999999999972
11
89.7299999999999898
21
-74.2999999999999972
0
LINE
8
BLACK
6
CONTINUOUS
10
89.7299999999999898
20
-74.2999999999999972
11
89.7299999999999898
21
-74.0999999999999943
0
LINE
8
BLACK
6
CONTINUOUS
10
89.7299999999999898
20
-74.0999999999999943
11
90.4299999999999926
21
-74.0999999999999943
0
LINE
8
BLACK
6
CONTINUOUS
10
90.4299999999999926
20
-74.0999999999999943
11
90.4299999999999926
21
-74.2999999999999972
0
LINE
8
BLACK
6
CONTINUOUS
10
121.269999999999996
20
-74.2999999999999972
11
120.5699999999999932
21
-74.2999999999999972
0
LINE
8
BLACK
6
CONTINUOUS
10
120.5699999999999932
20
-74.2999999999999972
11
120.5699999999999932
21
-74.0999999999999943
0
LINE
8
BLACK
6
CONTINUOUS
10
120.5699999999999932
20
-74.0999999999999943
11
121.269999999999996
21
-74.0999999999999943
0
LINE
8
BLACK
6
CONTINUOUS
10
121.269999999999996
20
-74.0999999999999943
11
121.269999999999996
21
-74.2999999999999972
0
LINE
8
BLACK
6
CONTINUOUS
10
124.3499999999999943
20
-74.2999999999999972
11
123.6499999999999915
21
-74.2999999999999972
0
LINE
8
BLACK
6
CONTINUOUS
10
123.6499999999999915
20
-74.2999999999999972
11
123.6499999999999915
21
-74.0999999999999943
0
LINE
8
BLACK
6
CONTINUOUS
10
123.6499999999999915
20
-74.0999999999999943
11
124.3499999999999943
21
-74.0999999999999943
0
LINE
8
BLACK
6
CONTINUOUS
10
124.3499999999999943
20
-74.0999999999999943
11
124.3499999999999943
21
-74.2999999999999972
0
LINE
8
BLACK
6
CONTINUOUS
10
87.3499999999999943
20
-73.8999999999999915
11
86.6499999999999915
21
-73.8999999999999915
0
LINE
8
BLACK
6
CONTINUOUS
10
86.6499999999999915
20
-73.8999999999999915
11
86.6499999999999915
21
-73.7000000000000028
0
LINE
8
BLACK
6
CONTINUOUS
10
86.6499999999999915
20
-73.7000000000000028
11
87.3499999999999943
21
-73.7000000000000028
0
LINE
8
BLACK
6
CONTINUOUS
10
87.3499999999999943
20
-73.7000000000000028
11
87.3499999999999943
21
-73.8999999999999915
0
LINE
8
BLACK
6
CONTINUOUS
10
90.4299999999999926
20
-73.8999999999999915
11
89.7299999999999898
21
-73.8999999999999915
0
LINE
8
BLACK
6
CONTINUOUS
10
89.7299999999999898
20
-73.8999999999999915
11
89.7299999999999898
21
-73.7000000000000028
0
LINE
8
BLACK
6
CONTINUOUS
10
89.7299999999999898
20
-73.7000000000000028
11
90.4299999999999926
21
-73.7000000000000028
0
LINE
8
BLACK
6
CONTINUOUS
10
90.4299999999999926
20
-73.7000000000000028
11
90.4299999999999926
21
-73.8999999999999915
0
LINE
8
BLACK
6
CONTINUOUS
10
121.269999999999996
20
-73.8999999999999915
11
120.5699999999999932
21
-73.8999999999999915
0
LINE
8
BLACK
6
CONTINUOUS
10
120.5699999999999932
20
-73.8999999999999915
11
120.5699999999999932
21
-73.7000000000000028
0
LINE
8
BLACK
6
CONTINUOUS
10
120.5699999999999932
20
-73.7000000000000028
11
121.269999999999996
21
-73.7000000000000028
0
LINE
8
BLACK
6
CONTINUOUS
10
121.269999999999996
20
-73.7000000000000028
11
121.269999999999996
21
-73.8999999999999915
0
LINE
8
BLACK
6
CONTINUOUS
10
124.3499999999999943
20
-73.8999999999999915
11
123.6499999999999915
21
-73.8999999999999915
0
LINE
8
BLACK
6
CONTINUOUS
10
123.6499999999999915
20
-73.8999999999999915
11
123.6499999999999915
21
-73.7000000000000028
0
LINE
8
BLACK
6
CONTINUOUS
10
123.6499999999999915
20
-73.7000000000000028
11
124.3499999999999943
21
-73.7000000000000028
0
LINE
8
BLACK
6
CONTINUOUS
10
124.3499999999999943
20
-73.7000000000000028
11
124.3499999999999943
21
-73.8999999999999915
0
LINE
8
BLACK
6
CONTINUOUS
10
87.3499999999999943
20
-73.5
11
86.6499999999999915
21
-73.5
0
LINE
8
BLACK
6
CONTINUOUS
10
86.6499999999999915
20
-73.5
11
86.6499999999999915
21
-73.2999999999999972
0
LINE
8
BLACK
6
CONTINUOUS
10
86.6499999999999915
20
-73.2999999999999972
11
87.3499999999999943
21
-73.2999999999999972
0
LINE
8
BLACK
6
CONTINUOUS
10
87.3499999999999943
20
-73.2999999999999972
11
87.3499999999999943
21
-73.5
0
LINE
8
BLACK
6
CONTINUOUS
10
90.4299999999999926
20
-73.5
11
89.7299999999999898
21
-73.5
0
LINE
8
BLACK
6
CONTINUOUS
10
89.7299999999999898
20
-73.5
11
89.7299999999999898
21
-73.2999999999999972
0
LINE
8
BLACK
6
CONTINUOUS
10
89.7299999999999898
20
-73.2999999999999972
11
90.4299999999999926
21
-73.2999999999999972
0
LINE
8
BLACK
6
CONTINUOUS
10
90.4299999999999926
20
-73.2999999999999972
11
90.4299999999999926
21
-73.5
0
LINE
8
BLACK
6
CONTINUOUS
10
121.269999999999996
20
-73.5
11
120.5699999999999932
21
-73.5
0
LINE
8
BLACK
6
CONTINUOUS
10
120.5699999999999932
20
-73.5
11
120.5699999999999932
21
-73.2999999999999972
0
LINE
8
BLACK
6
CONTINUOUS
10
120.5699999999999932
20
-73.2999999999999972
11
121.269999999999996
21
-73.2999999999999972
0
LINE
8
BLACK
6
CONTINUOUS
10
121.269999999999996
20
-73.2999999999999972
11
121.269999999999996
21
-73.5
0
LINE
8
BLACK
6
CONTINUOUS
10
124.3499999999999943
20
-73.5
11
123.6499999999999915
21
-73.5
0
LINE
8
BLACK
6
CONTINUOUS
10
123.6499999999999915
20
-73.5
11
123.6499999999999915
21
-73.2999999999999972
0
LINE
8
BLACK
6
CONTINUOUS
10
123.6499999999999915
20
-73.2999999999999972
11
124.3499999999999943
21
-73.2999999999999972
0
LINE
8
BLACK
6
CONTINUOUS
10
124.3499999999999943
20
-73.2999999999999972
11
124.3499999999999943
21
-73.5
0
LINE
8
BLACK
6
CONTINUOUS
10
87.3499999999999943
20
-73.0999999999999943
11
86.6499999999999915
21
-73.0999999999999943
0
LINE
8
BLACK
6
CONTINUOUS
10
86.6499999999999915
20
-73.0999999999999943
11
86.6499999999999915
21
-72.8999999999999915
0
LINE
8
BLACK
6
CONTINUOUS
10
86.6499999999999915
20
-72.8999999999999915
11
87.3499999999999943
21
-72.8999999999999915
0
LINE
8
BLACK
6
CONTINUOUS
10
87.3499999999999943
20
-72.8999999999999915
11
87.3499999999999943
21
-73.0999999999999943
0
LINE
8
BLACK
6
CONTINUOUS
10
90.4299999999999926
20
-73.0999999999999943
11
89.7299999999999898
21
-73.0999999999999943
0
LINE
8
BLACK
6
CONTINUOUS
10
89.7299999999999898
20
-73.0999999999999943
11
89.7299999999999898
21
-72.8999999999999915
0
LINE
8
BLACK
6
CONTINUOUS
10
89.7299999999999898
20
-72.8999999999999915
11
90.4299999999999926
21
-72.8999999999999915
0
LINE
8
BLACK
6
CONTINUOUS
10
90.4299999999999926
20
-72.8999999999999915
11
90.4299999999999926
21
-73.0999999999999943
0
LINE
8
BLACK
6
CONTINUOUS
10
121.269999999999996
20
-73.0999999999999943
11
120.5699999999999932
21
-73.0999999999999943
0
LINE
8
BLACK
6
CONTINUOUS
10
120.5699999999999932
20
-73.0999999999999943
11
120.5699999999999932
21
-72.8999999999999915
0
LINE
8
BLACK
6
CONTINUOUS
10
120.5699999999999932
20
-72.8999999999999915
11
121.269999999999996
21
-72.8999999999999915
0
LINE
8
BLACK
6
CONTINUOUS
10
121.269999999999996
20
-72.8999999999999915
11
121.269999999999996
21
-73.0999999999999943
0
LINE
8
BLACK
6
CONTINUOUS
10
124.3499999999999943
20
-73.0999999999999943
11
123.6499999999999915
21
-73.0999999999999943
0
LINE
8
BLACK
6
CONTINUOUS
10
123.6499999999999915
20
-73.0999999999999943
11
123.6499999999999915
21
-72.8999999999999915
0
LINE
8
BLACK
6
CONTINUOUS
10
123.6499999999999915
20
-72.8999999999999915
11
124.3499999999999943
21
-72.8999999999999915
0
LINE
8
BLACK
6
CONTINUOUS
10
124.3499999999999943
20
-72.8999999999999915
11
124.3499999999999943
21
-73.0999999999999943
0
LINE
8
BLACK
6
CONTINUOUS
10
87.3499999999999943
20
-72.7000000000000028
11
86.6499999999999915
21
-72.7000000000000028
0
LINE
8
BLACK
6
CONTINUOUS
10
86.6499999999999915
20
-72.7000000000000028
11
86.6499999999999915
21
-72.5
0
LINE
8
BLACK
6
CONTINUOUS
10
86.6499999999999915
20
-72.5
11
87.3499999999999943
21
-72.5
0
LINE
8
BLACK
6
CONTINUOUS
10
87.3499999999999943
20
-72.5
11
87.3499999999999943
21
-72.7000000000000028
0
LINE
8
BLACK
6
CONTINUOUS
10
90.4299999999999926
20
-72.7000000000000028
11
89.7299999999999898
21
-72.7000000000000028
0
LINE
8
BLACK
6
CONTINUOUS
10
89.7299999999999898
20
-72.7000000000000028
11
89.7299999999999898
21
-72.5
0
LINE
8
BLACK
6
CONTINUOUS
10
89.7299999999999898
20
-72.5
11
90.4299999999999926
21
-72.5
0
LINE
8
BLACK
6
CONTINUOUS
10
90.4299999999999926
20
-72.5
11
90.4299999999999926
21
-72.7000000000000028
0
LINE
8
BLACK
6
CONTINUOUS
10
121.269999999999996
20
-72.7000000000000028
11
120.5699999999999932
21
-72.7000000000000028
0
LINE
8
BLACK
6
CONTINUOUS
10
120.5699999999999932
20
-72.7000000000000028
11
120.5699999999999932
21
-72.5
0
LINE
8
BLACK
6
CONTINUOUS
10
120.5699999999999932
20
-72.5
11
121.269999999999996
21
-72.5
0
LINE
8
BLACK
6
CONTINUOUS
10
121.269999999999996
20
-72.5
11
121.269999999999996
21
-72.7000000000000028
0
LINE
8
BLACK
6
CONTINUOUS
10
124.3499999999999943
20
-72.7000000000000028
11
123.6499999999999915
21
-72.7000000000000028
0
LINE
8
BLACK
6
CONTINUOUS
10
123.6499999999999915
20
-72.7000000000000028
11
123.6499999999999915
21
-72.5
0
LINE
8
BLACK
6
CONTINUOUS
10
123.6499999999999915
20
-72.5
11
124.3499999999999943
21
-72.5
0
LINE
8
BLACK
6
CONTINUOUS
10
124.3499999999999943
20
-72.5
11
124.3499999999999943
21
-72.7000000000000028
0
LINE
8
BLACK
6
CONTINUOUS
10
87.3499999999999943
20
-72.2999999999999972
11
86.6499999999999915
21
-72.2999999999999972
0
LINE
8
BLACK
6
CONTINUOUS
10
86.6499999999999915
20
-72.2999999999999972
11
86.6499999999999915
21
-72.0999999999999943
0
LINE
8
BLACK
6
CONTINUOUS
10
86.6499999999999915
20
-72.0999999999999943
11
87.3499999999999943
21
-72.0999999999999943
0
LINE
8
BLACK
6
CONTINUOUS
10
87.3499999999999943
20
-72.0999999999999943
11
87.3499999999999943
21
-72.2999999999999972
0
LINE
8
BLACK
6
CONTINUOUS
10
90.4299999999999926
20
-72.2999999999999972
11
89.7299999999999898
21
-72.2999999999999972
0
LINE
8
BLACK
6
CONTINUOUS
10
89.7299999999999898
20
-72.2999999999999972
11
89.7299999999999898
21
-72.0999999999999943
0
LINE
8
BLACK
6
CONTINUOUS
10
89.7299999999999898
20
-72.0999999999999943
11
90.4299999999999926
21
-72.0999999999999943
0
LINE
8
BLACK
6
CONTINUOUS
10
90.4299999999999926
20
-72.0999999999999943
11
90.4299999999999926
21
-72.2999999999999972
0
LINE
8
BLACK
6
CONTINUOUS
10
121.269999999999996
20
-72.2999999999999972
11
120.5699999999999932
21
-72.2999999999999972
0
LINE
8
BLACK
6
CONTINUOUS
10
120.5699999999999932
20
-72.2999999999999972
11
120.5699999999999932
21
-72.0999999999999943
0
LINE
8
BLACK
6
CONTINUOUS
10
120.5699999999999932
20
-72.0999999999999943
11
121.269999999999996
21
-72.0999999999999943
0
LINE
8
BLACK
6
CONTINUOUS
10
121.269999999999996
20
-72.0999999999999943
11
121.269999999999996
21
-72.2999999999999972
0
LINE
8
BLACK
6
CONTINUOUS
10
124.3499999999999943
20
-72.2999999999999972
11
123.6499999999999915
21
-72.2999999999999972
0
LINE
8
BLACK
6
CONTINUOUS
10
123.6499999999999915
20
-72.2999999999999972
11
123.6499999999999915
21
-72.0999999999999943
0
LINE
8
BLACK
6
CONTINUOUS
10
123.6499999999999915
20
-72.0999999999999943
11
124.3499999999999943
21
-72.0999999999999943
0
LINE
8
BLACK
6
CONTINUOUS
10
124.3499999999999943
20
-72.0999999999999943
11
124.3499999999999943
21
-72.2999999999999972
0
LINE
8
BLACK
6
CONTINUOUS
10
87.3499999999999943
20
-71.8999999999999915
11
86.6499999999999915
21
-71.8999999999999915
0
LINE
8
BLACK
6
CONTINUOUS
10
86.6499999999999915
20
-71.8999999999999915
11
86.6499999999999915
21
-71.7000000000000028
0
LINE
8
BLACK
6
CONTINUOUS
10
86.6499999999999915
20
-71.7000000000000028
11
87.3499999999999943
21
-71.7000000000000028
0
LINE
8
BLACK
6
CONTINUOUS
10
87.3499999999999943
20
-71.7000000000000028
11
87.3499999999999943
21
-71.8999999999999915
0
LINE
8
BLACK
6
CONTINUOUS
10
90.4299999999999926
20
-71.8999999999999915
11
89.7299999999999898
21
-71.8999999999999915
0
LINE
8
BLACK
6
CONTINUOUS
10
89.7299999999999898
20
-71.8999999999999915
11
89.7299999999999898
21
-71.7000000000000028
0
LINE
8
BLACK
6
CONTINUOUS
10
89.7299999999999898
20
-71.7000000000000028
11
90.4299999999999926
21
-71.7000000000000028
0
LINE
8
BLACK
6
CONTINUOUS
10
90.4299999999999926
20
-71.7000000000000028
11
90.4299999999999926
21
-71.8999999999999915
0
LINE
8
BLACK
6
CONTINUOUS
10
121.269999999999996
20
-71.8999999999999915
11
120.5699999999999932
21
-71.8999999999999915
0
LINE
8
BLACK
6
CONTINUOUS
10
120.5699999999999932
20
-71.8999999999999915
11
120.5699999999999932
21
-71.7000000000000028
0
LINE
8
BLACK
6
CONTINUOUS
10
120.5699999999999932
20
-71.7000000000000028
11
121.269999999999996
21
-71.7000000000000028
0
LINE
8
BLACK
6
CONTINUOUS
10
121.269999999999996
20
-71.7000000000000028
11
121.269999999999996
21
-71.8999999999999915
0
LINE
8
BLACK
6
CONTINUOUS
10
124.3499999999999943
20
-71.8999999999999915
11
123.6499999999999915
21
-71.8999999999999915
0
LINE
8
BLACK
6
CONTINUOUS
10
123.6499999999999915
20
-71.8999999999999915
11
123.6499999999999915
21
-71.7000000000000028
0
LINE
8
BLACK
6
CONTINUOUS
10
123.6499999999999915
20
-71.7000000000000028
11
124.3499999999999943
21
-71.7000000000000028
0
LINE
8
BLACK
6
CONTINUOUS
10
124.3499999999999943
20
-71.7000000000000028
11
124.3499999999999943
21
-71.8999999999999915
0
LINE
8
BLACK
6
CONTINUOUS
10
87.3499999999999943
20
-71.5
11
86.6499999999999915
21
-71.5
0
LINE
8
BLACK
6
CONTINUOUS
10
86.6499999999999915
20
-71.5
11
86.6499999999999915
21
-71.2999999999999972
0
LINE
8
BLACK
6
CONTINUOUS
10
86.6499999999999915
20
-71.2999999999999972
11
87.3499999999999943
21
-71.2999999999999972
0
LINE
8
BLACK
6
CONTINUOUS
10
87.3499999999999943
20
-71.2999999999999972
11
87.3499999999999943
21
-71.5
0
LINE
8
BLACK
6
CONTINUOUS
10
90.4299999999999926
20
-71.5
11
89.7299999999999898
21
-71.5
0
LINE
8
BLACK
6
CONTINUOUS
10
89.7299999999999898
20
-71.5
11
89.7299999999999898
21
-71.2999999999999972
0
LINE
8
BLACK
6
CONTINUOUS
10
89.7299999999999898
20
-71.2999999999999972
11
90.4299999999999926
21
-71.2999999999999972
0
LINE
8
BLACK
6
CONTINUOUS
10
90.4299999999999926
20
-71.2999999999999972
11
90.4299999999999926
21
-71.5
0
LINE
8
BLACK
6
CONTINUOUS
10
121.269999999999996
20
-71.5
11
120.5699999999999932
21
-71.5
0
LINE
8
BLACK
6
CONTINUOUS
10
120.5699999999999932
20
-71.5
11
120.5699999999999932
21
-71.2999999999999972
0
LINE
8
BLACK
6
CONTINUOUS
10
120.5699999999999932
20
-71.2999999999999972
11
121.269999999999996
21
-71.2999999999999972
0
LINE
8
BLACK
6
CONTINUOUS
10
121.269999999999996
20
-71.2999999999999972
11
121.269999999999996
21
-71.5
0
LINE
8
BLACK
6
CONTINUOUS
10
124.3499999999999943
20
-71.5
11
123.6499999999999915
21
-71.5
0
LINE
8
BLACK
6
CONTINUOUS
10
123.6499999999999915
20
-71.5
11
123.6499999999999915
21
-71.2999999999999972
0
LINE
8
BLACK
6
CONTINUOUS
10
123.6499999999999915
20
-71.2999999999999972
11
124.3499999999999943
21
-71.2999999999999972
0
LINE
8
BLACK
6
CONTINUOUS
10
124.3499999999999943
20
-71.2999999999999972
11
124.3499999999999943
21
-71.5
0
LINE
8
BLACK
6
CONTINUOUS
10
87.3499999999999943
20
-71.0999999999999943
11
86.6499999999999915
21
-71.0999999999999943
0
LINE
8
BLACK
6
CONTINUOUS
10
86.6499999999999915
20
-71.0999999999999943
11
86.6499999999999915
21
-70.8999999999999915
0
LINE
8
BLACK
6
CONTINUOUS
10
86.6499999999999915
20
-70.8999999999999915
11
87.3499999999999943
21
-70.8999999999999915
0
LINE
8
BLACK
6
CONTINUOUS
10
87.3499999999999943
20
-70.8999999999999915
11
87.3499999999999943
21
-71.0999999999999943
0
LINE
8
BLACK
6
CONTINUOUS
10
90.4299999999999926
20
-71.0999999999999943
11
89.7299999999999898
21
-71.0999999999999943
0
LINE
8
BLACK
6
CONTINUOUS
10
89.7299999999999898
20
-71.0999999999999943
11
89.7299999999999898
21
-70.8999999999999915
0
LINE
8
BLACK
6
CONTINUOUS
10
89.7299999999999898
20
-70.8999999999999915
11
90.4299999999999926
21
-70.8999999999999915
0
LINE
8
BLACK
6
CONTINUOUS
10
90.4299999999999926
20
-70.8999999999999915
11
90.4299999999999926
21
-71.0999999999999943
0
LINE
8
BLACK
6
CONTINUOUS
10
121.269999999999996
20
-71.0999999999999943
11
120.5699999999999932
21
-71.0999999999999943
0
LINE
8
BLACK
6
CONTINUOUS
10
120.5699999999999932
20
-71.0999999999999943
11
120.5699999999999932
21
-70.8999999999999915
0
LINE
8
BLACK
6
CONTINUOUS
10
120.5699999999999932
20
-70.8999999999999915
11
121.269999999999996
21
-70.8999999999999915
0
LINE
8
BLACK
6
CONTINUOUS
10
121.269999999999996
20
-70.8999999999999915
11
121.269999999999996
21
-71.0999999999999943
0
LINE
8
BLACK
6
CONTINUOUS
10
124.3499999999999943
20
-71.0999999999999943
11
123.6499999999999915
21
-71.0999999999999943
0
LINE
8
BLACK
6
CONTINUOUS
10
123.6499999999999915
20
-71.0999999999999943
11
123.6499999999999915
21
-70.8999999999999915
0
LINE
8
BLACK
6
CONTINUOUS
10
123.6499999999999915
20
-70.8999999999999915
11
124.3499999999999943
21
-70.8999999999999915
0
LINE
8
BLACK
6
CONTINUOUS
10
124.3499999999999943
20
-70.8999999999999915
11
124.3499999999999943
21
-71.0999999999999943
0
LINE
8
BLACK
6
CONTINUOUS
10
87.3499999999999943
20
-70.7000000000000028
11
86.6499999999999915
21
-70.7000000000000028
0
LINE
8
BLACK
6
CONTINUOUS
10
86.6499999999999915
20
-70.7000000000000028
11
86.6499999999999915
21
-70.5
0
LINE
8
BLACK
6
CONTINUOUS
10
86.6499999999999915
20
-70.5
11
87.3499999999999943
21
-70.5
0
LINE
8
BLACK
6
CONTINUOUS
10
87.3499999999999943
20
-70.5
11
87.3499999999999943
21
-70.7000000000000028
0
LINE
8
BLACK
6
CONTINUOUS
10
90.4299999999999926
20
-70.7000000000000028
11
89.7299999999999898
21
-70.7000000000000028
0
LINE
8
BLACK
6
CONTINUOUS
10
89.7299999999999898
20
-70.7000000000000028
11
89.7299999999999898
21
-70.5
0
LINE
8
BLACK
6
CONTINUOUS
10
89.7299999999999898
20
-70.5
11
90.4299999999999926
21
-70.5
0
LINE
8
BLACK
6
CONTINUOUS
10
90.4299999999999926
20
-70.5
11
90.4299999999999926
21
-70.7000000000000028
0
LINE
8
BLACK
6
CONTINUOUS
10
121.269999999999996
20
-70.7000000000000028
11
120.5699999999999932
21
-70.7000000000000028
0
LINE
8
BLACK
6
CONTINUOUS
10
120.5699999999999932
20
-70.7000000000000028
11
120.5699999999999932
21
-70.5
0
LINE
8
BLACK
6
CONTINUOUS
10
120.5699999999999932
20
-70.5
11
121.269999999999996
21
-70.5
0
LINE
8
BLACK
6
CONTINUOUS
10
121.269999999999996
20
-70.5
11
121.269999999999996
21
-70.7000000000000028
0
LINE
8
BLACK
6
CONTINUOUS
10
124.3499999999999943
20
-70.7000000000000028
11
123.6499999999999915
21
-70.7000000000000028
0
LINE
8
BLACK
6
CONTINUOUS
10
123.6499999999999915
20
-70.7000000000000028
11
123.6499999999999915
21
-70.5
0
LINE
8
BLACK
6
CONTINUOUS
10
123.6499999999999915
20
-70.5
11
124.3499999999999943
21
-70.5
0
LINE
8
BLACK
6
CONTINUOUS
10
124.3499999999999943
20
-70.5
11
124.3499999999999943
21
-70.7000000000000028
0
LINE
8
BLACK
6
CONTINUOUS
10
87.3499999999999943
20
-70.2999999999999972
11
86.6499999999999915
21
-70.2999999999999972
0
LINE
8
BLACK
6
CONTINUOUS
10
86.6499999999999915
20
-70.2999999999999972
11
86.6499999999999915
21
-70.0999999999999943
0
LINE
8
BLACK
6
CONTINUOUS
10
86.6499999999999915
20
-70.0999999999999943
11
87.3499999999999943
21
-70.0999999999999943
0
LINE
8
BLACK
6
CONTINUOUS
10
87.3499999999999943
20
-70.0999999999999943
11
87.3499999999999943
21
-70.2999999999999972
0
LINE
8
BLACK
6
CONTINUOUS
10
90.4299999999999926
20
-70.2999999999999972
11
89.7299999999999898
21
-70.2999999999999972
0
LINE
8
BLACK
6
CONTINUOUS
10
89.7299999999999898
20
-70.2999999999999972
11
89.7299999999999898
21
-70.0999999999999943
0
LINE
8
BLACK
6
CONTINUOUS
10
89.7299999999999898
20
-70.0999999999999943
11
90.4299999999999926
21
-70.0999999999999943
0
LINE
8
BLACK
6
CONTINUOUS
10
90.4299999999999926
20
-70.0999999999999943
11
90.4299999999999926
21
-70.2999999999999972
0
LINE
8
BLACK
6
CONTINUOUS
10
121.269999999999996
20
-70.2999999999999972
11
120.5699999999999932
21
-70.2999999999999972
0
LINE
8
BLACK
6
CONTINUOUS
10
120.5699999999999932
20
-70.2999999999999972
11
120.5699999999999932
21
-70.0999999999999943
0
LINE
8
BLACK
6
CONTINUOUS
10
120.5699999999999932
20
-70.0999999999999943
11
121.269999999999996
21
-70.0999999999999943
0
LINE
8
BLACK
6
CONTINUOUS
10
121.269999999999996
20
-70.0999999999999943
11
121.269999999999996
21
-70.2999999999999972
0
LINE
8
BLACK
6
CONTINUOUS
10
124.3499999999999943
20
-70.2999999999999972
11
123.6499999999999915
21
-70.2999999999999972
0
LINE
8
BLACK
6
CONTINUOUS
10
123.6499999999999915
20
-70.2999999999999972
11
123.6499999999999915
21
-70.0999999999999943
0
LINE
8
BLACK
6
CONTINUOUS
10
123.6499999999999915
20
-70.0999999999999943
11
124.3499999999999943
21
-70.0999999999999943
0
LINE
8
BLACK
6
CONTINUOUS
10
124.3499999999999943
20
-70.0999999999999943
11
124.3499999999999943
21
-70.2999999999999972
0
LINE
8
BLACK
6
CONTINUOUS
10
87.3499999999999943
20
-69.8999999999999915
11
86.6499999999999915
21
-69.8999999999999915
0
LINE
8
BLACK
6
CONTINUOUS
10
86.6499999999999915
20
-69.8999999999999915
11
86.6499999999999915
21
-69.7000000000000028
0
LINE
8
BLACK
6
CONTINUOUS
10
86.6499999999999915
20
-69.7000000000000028
11
87.3499999999999943
21
-69.7000000000000028
0
LINE
8
BLACK
6
CONTINUOUS
10
87.3499999999999943
20
-69.7000000000000028
11
87.3499999999999943
21
-69.8999999999999915
0
LINE
8
BLACK
6
CONTINUOUS
10
90.4299999999999926
20
-69.8999999999999915
11
89.7299999999999898
21
-69.8999999999999915
0
LINE
8
BLACK
6
CONTINUOUS
10
89.7299999999999898
20
-69.8999999999999915
11
89.7299999999999898
21
-69.7000000000000028
0
LINE
8
BLACK
6
CONTINUOUS
10
89.7299999999999898
20
-69.7000000000000028
11
90.4299999999999926
21
-69.7000000000000028
0
LINE
8
BLACK
6
CONTINUOUS
10
90.4299999999999926
20
-69.7000000000000028
11
90.4299999999999926
21
-69.8999999999999915
0
LINE
8
BLACK
6
CONTINUOUS
10
121.269999999999996
20
-69.8999999999999915
11
120.5699999999999932
21
-69.8999999999999915
0
LINE
8
BLACK
6
CONTINUOUS
10
120.5699999999999932
20
-69.8999999999999915
11
120.5699999999999932
21
-69.7000000000000028
0
LINE
8
BLACK
6
CONTINUOUS
10
120.5699999999999932
20
-69.7000000000000028
11
121.269999999999996
21
-69.7000000000000028
0
LINE
8
BLACK
6
CONTINUOUS
10
121.269999999999996
20
-69.7000000000000028
11
121.269999999999996
21
-69.8999999999999915
0
LINE
8
BLACK
6
CONTINUOUS
10
124.3499999999999943
20
-69.8999999999999915
11
123.6499999999999915
21
-69.8999999999999915
0
LINE
8
BLACK
6
CONTINUOUS
10
123.6499999999999915
20
-69.8999999999999915
11
123.6499999999999915
21
-69.7000000000000028
0
LINE
8
BLACK
6
CONTINUOUS
10
123.6499999999999915
20
-69.7000000000000028
11
124.3499999999999943
21
-69.7000000000000028
0
LINE
8
BLACK
6
CONTINUOUS
10
124.3499999999999943
20
-69.7000000000000028
11
124.3499999999999943
21
-69.8999999999999915
0
LINE
8
BLACK
6
CONTINUOUS
10
87.3499999999999943
20
-69.5
11
86.6499999999999915
21
-69.5
0
LINE
8
BLACK
6
CONTINUOUS
10
86.6499999999999915
20
-69.5
11
86.6499999999999915
21
-69.2999999999999972
0
LINE
8
BLACK
6
CONTINUOUS
10
86.6499999999999915
20
-69.2999999999999972
11
87.3499999999999943
21
-69.2999999999999972
0
LINE
8
BLACK
6
CONTINUOUS
10
87.3499999999999943
20
-69.2999999999999972
11
87.3499999999999943
21
-69.5
0
LINE
8
BLACK
6
CONTINUOUS
10
90.4299999999999926
20
-69.5
11
89.7299999999999898
21
-69.5
0
LINE
8
BLACK
6
CONTINUOUS
10
89.7299999999999898
20
-69.5
11
89.7299999999999898
21
-69.2999999999999972
0
LINE
8
BLACK
6
CONTINUOUS
10
89.7299999999999898
20
-69.2999999999999972
11
90.4299999999999926
21
-69.2999999999999972
0
LINE
8
BLACK
6
CONTINUOUS
10
90.4299999999999926
20
-69.2999999999999972
11
90.4299999999999926
21
-69.5
0
LINE
8
BLACK
6
CONTINUOUS
10
121.269999999999996
20
-69.5
11
120.5699999999999932
21
-69.5
0
LINE
8
BLACK
6
CONTINUOUS
10
120.5699999999999932
20
-69.5
11
120.5699999999999932
21
-69.2999999999999972
0
LINE
8
BLACK
6
CONTINUOUS
10
120.5699999999999932
20
-69.2999999999999972
11
121.269999999999996
21
-69.2999999999999972
0
LINE
8
BLACK
6
CONTINUOUS
10
121.269999999999996
20
-69.2999999999999972
11
121.269999999999996
21
-69.5
0
LINE
8
BLACK
6
CONTINUOUS
10
124.3499999999999943
20
-69.5
11
123.6499999999999915
21
-69.5
0
LINE
8
BLACK
6
CONTINUOUS
10
123.6499999999999915
20
-69.5
11
123.6499999999999915
21
-69.2999999999999972
0
LINE
8
BLACK
6
CONTINUOUS
10
123.6499999999999915
20
-69.2999999999999972
11
124.3499999999999943
21
-69.2999999999999972
0
LINE
8
BLACK
6
CONTINUOUS
10
124.3499999999999943
20
-69.2999999999999972
11
124.3499999999999943
21
-69.5
0
LINE
8
BLACK
6
CONTINUOUS
10
87.3499999999999943
20
-69.0999999999999943
11
86.6499999999999915
21
-69.0999999999999943
0
LINE
8
BLACK
6
CONTINUOUS
10
86.6499999999999915
20
-69.0999999999999943
11
86.6499999999999915
21
-68.8999999999999915
0
LINE
8
BLACK
6
CONTINUOUS
10
86.6499999999999915
20
-68.8999999999999915
11
87.3499999999999943
21
-68.8999999999999915
0
LINE
8
BLACK
6
CONTINUOUS
10
87.3499999999999943
20
-68.8999999999999915
11
87.3499999999999943
21
-69.0999999999999943
0
LINE
8
BLACK
6
CONTINUOUS
10
90.4299999999999926
20
-69.0999999999999943
11
89.7299999999999898
21
-69.0999999999999943
0
LINE
8
BLACK
6
CONTINUOUS
10
89.7299999999999898
20
-69.0999999999999943
11
89.7299999999999898
21
-68.8999999999999915
0
LINE
8
BLACK
6
CONTINUOUS
10
89.7299999999999898
20
-68.8999999999999915
11
90.4299999999999926
21
-68.8999999999999915
0
LINE
8
BLACK
6
CONTINUOUS
10
90.4299999999999926
20
-68.8999999999999915
11
90.4299999999999926
21
-69.0999999999999943
0
LINE
8
BLACK
6
CONTINUOUS
10
121.269999999999996
20
-69.0999999999999943
11
120.5699999999999932
21
-69.0999999999999943
0
LINE
8
BLACK
6
CONTINUOUS
10
120.5699999999999932
20
-69.0999999999999943
11
120.5699999999999932
21
-68.8999999999999915
0
LINE
8
BLACK
6
CONTINUOUS
10
120.5699999999999932
20
-68.8999999999999915
11
121.269999999999996
21
-68.8999999999999915
0
LINE
8
BLACK
6
CONTINUOUS
10
121.269999999999996
20
-68.8999999999999915
11
121.269999999999996
21
-69.0999999999999943
0
LINE
8
BLACK
6
CONTINUOUS
10
124.3499999999999943
20
-69.0999999999999943
11
123.6499999999999915
21
-69.0999999999999943
0
LINE
8
BLACK
6
CONTINUOUS
10
123.6499999999999915
20
-69.0999999999999943
11
123.6499999999999915
21
-68.8999999999999915
0
LINE
8
BLACK
6
CONTINUOUS
10
123.6499999999999915
20
-68.8999999999999915
11
124.3499999999999943
21
-68.8999999999999915
0
LINE
8
BLACK
6
CONTINUOUS
10
124.3499999999999943
20
-68.8999999999999915
11
124.3499999999999943
21
-69.0999999999999943
0
LINE
8
BLACK
6
CONTINUOUS
10
87.3499999999999943
20
-68.7000000000000028
11
86.6499999999999915
21
-68.7000000000000028
0
LINE
8
BLACK
6
CONTINUOUS
10
86.6499999999999915
20
-68.7000000000000028
11
86.6499999999999915
21
-68.5
0
LINE
8
BLACK
6
CONTINUOUS
10
86.6499999999999915
20
-68.5
11
87.3499999999999943
21
-68.5
0
LINE
8
BLACK
6
CONTINUOUS
10
87.3499999999999943
20
-68.5
11
87.3499999999999943
21
-68.7000000000000028
0
LINE
8
BLACK
6
CONTINUOUS
10
90.4299999999999926
20
-68.7000000000000028
11
89.7299999999999898
21
-68.7000000000000028
0
LINE
8
BLACK
6
CONTINUOUS
10
89.7299999999999898
20
-68.7000000000000028
11
89.7299999999999898
21
-68.5
0
LINE
8
BLACK
6
CONTINUOUS
10
89.7299999999999898
20
-68.5
11
90.4299999999999926
21
-68.5
0
LINE
8
BLACK
6
CONTINUOUS
10
90.4299999999999926
20
-68.5
11
90.4299999999999926
21
-68.7000000000000028
0
LINE
8
BLACK
6
CONTINUOUS
10
121.269999999999996
20
-68.7000000000000028
11
120.5699999999999932
21
-68.7000000000000028
0
LINE
8
BLACK
6
CONTINUOUS
10
120.5699999999999932
20
-68.7000000000000028
11
120.5699999999999932
21
-68.5
0
LINE
8
BLACK
6
CONTINUOUS
10
120.5699999999999932
20
-68.5
11
121.269999999999996
21
-68.5
0
LINE
8
BLACK
6
CONTINUOUS
10
121.269999999999996
20
-68.5
11
121.269999999999996
21
-68.7000000000000028
0
LINE
8
BLACK
6
CONTINUOUS
10
124.3499999999999943
20
-68.7000000000000028
11
123.6499999999999915
21
-68.7000000000000028
0
LINE
8
BLACK
6
CONTINUOUS
10
123.6499999999999915
20
-68.7000000000000028
11
123.6499999999999915
21
-68.5
0
LINE
8
BLACK
6
CONTINUOUS
10
123.6499999999999915
20
-68.5
11
124.3499999999999943
21
-68.5
0
LINE
8
BLACK
6
CONTINUOUS
10
124.3499999999999943
20
-68.5
11
124.3499999999999943
21
-68.7000000000000028
0
LINE
8
BLACK
6
CONTINUOUS
10
87.3499999999999943
20
-68.2999999999999972
11
86.6499999999999915
21
-68.2999999999999972
0
LINE
8
BLACK
6
CONTINUOUS
10
86.6499999999999915
20
-68.2999999999999972
11
86.6499999999999915
21
-68.0999999999999943
0
LINE
8
BLACK
6
CONTINUOUS
10
86.6499999999999915
20
-68.0999999999999943
11
87.3499999999999943
21
-68.0999999999999943
0
LINE
8
BLACK
6
CONTINUOUS
10
87.3499999999999943
20
-68.0999999999999943
11
87.3499999999999943
21
-68.2999999999999972
0
LINE
8
BLACK
6
CONTINUOUS
10
90.4299999999999926
20
-68.2999999999999972
11
89.7299999999999898
21
-68.2999999999999972
0
LINE
8
BLACK
6
CONTINUOUS
10
89.7299999999999898
20
-68.2999999999999972
11
89.7299999999999898
21
-68.0999999999999943
0
LINE
8
BLACK
6
CONTINUOUS
10
89.7299999999999898
20
-68.0999999999999943
11
90.4299999999999926
21
-68.0999999999999943
0
LINE
8
BLACK
6
CONTINUOUS
10
90.4299999999999926
20
-68.0999999999999943
11
90.4299999999999926
21
-68.2999999999999972
0
LINE
8
BLACK
6
CONTINUOUS
10
121.269999999999996
20
-68.2999999999999972
11
120.5699999999999932
21
-68.2999999999999972
0
LINE
8
BLACK
6
CONTINUOUS
10
120.5699999999999932
20
-68.2999999999999972
11
120.5699999999999932
21
-68.0999999999999943
0
LINE
8
BLACK
6
CONTINUOUS
10
120.5699999999999932
20
-68.0999999999999943
11
121.269999999999996
21
-68.0999999999999943
0
LINE
8
BLACK
6
CONTINUOUS
10
121.269999999999996
20
-68.0999999999999943
11
121.269999999999996
21
-68.2999999999999972
0
LINE
8
BLACK
6
CONTINUOUS
10
124.3499999999999943
20
-68.2999999999999972
11
123.6499999999999915
21
-68.2999999999999972
0
LINE
8
BLACK
6
CONTINUOUS
10
123.6499999999999915
20
-68.2999999999999972
11
123.6499999999999915
21
-68.0999999999999943
0
LINE
8
BLACK
6
CONTINUOUS
10
123.6499999999999915
20
-68.0999999999999943
11
124.3499999999999943
21
-68.0999999999999943
0
LINE
8
BLACK
6
CONTINUOUS
10
124.3499999999999943
20
-68.0999999999999943
11
124.3499999999999943
21
-68.2999999999999972
0
LINE
8
BLACK
6
CONTINUOUS
10
87.3499999999999943
20
-67.8999999999999915
11
86.6499999999999915
21
-67.8999999999999915
0
LINE
8
BLACK
6
CONTINUOUS
10
86.6499999999999915
20
-67.8999999999999915
11
86.6499999999999915
21
-67.7000000000000028
0
LINE
8
BLACK
6
CONTINUOUS
10
86.6499999999999915
20
-67.7000000000000028
11
87.3499999999999943
21
-67.7000000000000028
0
LINE
8
BLACK
6
CONTINUOUS
10
87.3499999999999943
20
-67.7000000000000028
11
87.3499999999999943
21
-67.8999999999999915
0
LINE
8
BLACK
6
CONTINUOUS
10
90.4299999999999926
20
-67.8999999999999915
11
89.7299999999999898
21
-67.8999999999999915
0
LINE
8
BLACK
6
CONTINUOUS
10
89.7299999999999898
20
-67.8999999999999915
11
89.7299999999999898
21
-67.7000000000000028
0
LINE
8
BLACK
6
CONTINUOUS
10
89.7299999999999898
20
-67.7000000000000028
11
90.4299999999999926
21
-67.7000000000000028
0
LINE
8
BLACK
6
CONTINUOUS
10
90.4299999999999926
20
-67.7000000000000028
11
90.4299999999999926
21
-67.8999999999999915
0
LINE
8
BLACK
6
CONTINUOUS
10
121.269999999999996
20
-67.8999999999999915
11
120.5699999999999932
21
-67.8999999999999915
0
LINE
8
BLACK
6
CONTINUOUS
10
120.5699999999999932
20
-67.8999999999999915
11
120.5699999999999932
21
-67.7000000000000028
0
LINE
8
BLACK
6
CONTINUOUS
10
120.5699999999999932
20
-67.7000000000000028
11
121.269999999999996
21
-67.7000000000000028
0
LINE
8
BLACK
6
CONTINUOUS
10
121.269999999999996
20
-67.7000000000000028
11
121.269999999999996
21
-67.8999999999999915
0
LINE
8
BLACK
6
CONTINUOUS
10
124.3499999999999943
20
-67.8999999999999915
11
123.6499999999999915
21
-67.8999999999999915
0
LINE
8
BLACK
6
CONTINUOUS
10
123.6499999999999915
20
-67.8999999999999915
11
123.6499999999999915
21
-67.7000000000000028
0
LINE
8
BLACK
6
CONTINUOUS
10
123.6499999999999915
20
-67.7000000000000028
11
124.3499999999999943
21
-67.7000000000000028
0
LINE
8
BLACK
6
CONTINUOUS
10
124.3499999999999943
20
-67.7000000000000028
11
124.3499999999999943
21
-67.8999999999999915
0
LINE
8
BLACK
6
CONTINUOUS
10
87.3499999999999943
20
-67.5
11
86.6499999999999915
21
-67.5
0
LINE
8
BLACK
6
CONTINUOUS
10
86.6499999999999915
20
-67.5
11
86.6499999999999915
21
-67.2999999999999972
0
LINE
8
BLACK
6
CONTINUOUS
10
86.6499999999999915
20
-67.2999999999999972
11
87.3499999999999943
21
-67.2999999999999972
0
LINE
8
BLACK
6
CONTINUOUS
10
87.3499999999999943
20
-67.2999999999999972
11
87.3499999999999943
21
-67.5
0
LINE
8
BLACK
6
CONTINUOUS
10
90.4299999999999926
20
-67.5
11
89.7299999999999898
21
-67.5
0
LINE
8
BLACK
6
CONTINUOUS
10
89.7299999999999898
20
-67.5
11
89.7299999999999898
21
-67.2999999999999972
0
LINE
8
BLACK
6
CONTINUOUS
10
89.7299999999999898
20
-67.2999999999999972
11
90.4299999999999926
21
-67.2999999999999972
0
LINE
8
BLACK
6
CONTINUOUS
10
90.4299999999999926
20
-67.2999999999999972
11
90.4299999999999926
21
-67.5
0
LINE
8
BLACK
6
CONTINUOUS
10
121.269999999999996
20
-67.5
11
120.5699999999999932
21
-67.5
0
LINE
8
BLACK
6
CONTINUOUS
10
120.5699999999999932
20
-67.5
11
120.5699999999999932
21
-67.2999999999999972
0
LINE
8
BLACK
6
CONTINUOUS
10
120.5699999999999932
20
-67.2999999999999972
11
121.269999999999996
21
-67.2999999999999972
0
LINE
8
BLACK
6
CONTINUOUS
10
121.269999999999996
20
-67.2999999999999972
11
121.269999999999996
21
-67.5
0
LINE
8
BLACK
6
CONTINUOUS
10
124.3499999999999943
20
-67.5
11
123.6499999999999915
21
-67.5
0
LINE
8
BLACK
6
CONTINUOUS
10
123.6499999999999915
20
-67.5
11
123.6499999999999915
21
-67.2999999999999972
0
LINE
8
BLACK
6
CONTINUOUS
10
123.6499999999999915
20
-67.2999999999999972
11
124.3499999999999943
21
-67.2999999999999972
0
LINE
8
BLACK
6
CONTINUOUS
10
124.3499999999999943
20
-67.2999999999999972
11
124.3499999999999943
21
-67.5
0
LINE
8
BLACK
6
CONTINUOUS
10
87.3499999999999943
20
-67.0999999999999943
11
86.6499999999999915
21
-67.0999999999999943
0
LINE
8
BLACK
6
CONTINUOUS
10
86.6499999999999915
20
-67.0999999999999943
11
86.6499999999999915
21
-66.8999999999999915
0
LINE
8
BLACK
6
CONTINUOUS
10
86.6499999999999915
20
-66.8999999999999915
11
87.3499999999999943
21
-66.8999999999999915
0
LINE
8
BLACK
6
CONTINUOUS
10
87.3499999999999943
20
-66.8999999999999915
11
87.3499999999999943
21
-67.0999999999999943
0
LINE
8
BLACK
6
CONTINUOUS
10
90.4299999999999926
20
-67.0999999999999943
11
89.7299999999999898
21
-67.0999999999999943
0
LINE
8
BLACK
6
CONTINUOUS
10
89.7299999999999898
20
-67.0999999999999943
11
89.7299999999999898
21
-66.8999999999999915
0
LINE
8
BLACK
6
CONTINUOUS
10
89.7299999999999898
20
-66.8999999999999915
11
90.4299999999999926
21
-66.8999999999999915
0
LINE
8
BLACK
6
CONTINUOUS
10
90.4299999999999926
20
-66.8999999999999915
11
90.4299999999999926
21
-67.0999999999999943
0
LINE
8
BLACK
6
CONTINUOUS
10
121.269999999999996
20
-67.0999999999999943
11
120.5699999999999932
21
-67.0999999999999943
0
LINE
8
BLACK
6
CONTINUOUS
10
120.5699999999999932
20
-67.0999999999999943
11
120.5699999999999932
21
-66.8999999999999915
0
LINE
8
BLACK
6
CONTINUOUS
10
120.5699999999999932
20
-66.8999999999999915
11
121.269999999999996
21
-66.8999999999999915
0
LINE
8
BLACK
6
CONTINUOUS
10
121.269999999999996
20
-66.8999999999999915
11
121.269999999999996
21
-67.0999999999999943
0
LINE
8
BLACK
6
CONTINUOUS
10
124.3499999999999943
20
-67.0999999999999943
11
123.6499999999999915
21
-67.0999999999999943
0
LINE
8
BLACK
6
CONTINUOUS
10
123.6499999999999915
20
-67.0999999999999943
11
123.6499999999999915
21
-66.8999999999999915
0
LINE
8
BLACK
6
CONTINUOUS
10
123.6499999999999915
20
-66.8999999999999915
11
124.3499999999999943
21
-66.8999999999999915
0
LINE
8
BLACK
6
CONTINUOUS
10
124.3499999999999943
20
-66.8999999999999915
11
124.3499999999999943
21
-67.0999999999999943
0
LINE
8
BLACK
6
CONTINUOUS
10
87.3499999999999943
20
-66.7000000000000028
11
86.6499999999999915
21
-66.7000000000000028
0
LINE
8
BLACK
6
CONTINUOUS
10
86.6499999999999915
20
-66.7000000000000028
11
86.6499999999999915
21
-66.5
0
LINE
8
BLACK
6
CONTINUOUS
10
86.6499999999999915
20
-66.5
11
87.3499999999999943
21
-66.5
0
LINE
8
BLACK
6
CONTINUOUS
10
87.3499999999999943
20
-66.5
11
87.3499999999999943
21
-66.7000000000000028
0
LINE
8
BLACK
6
CONTINUOUS
10
90.4299999999999926
20
-66.7000000000000028
11
89.7299999999999898
21
-66.7000000000000028
0
LINE
8
BLACK
6
CONTINUOUS
10
89.7299999999999898
20
-66.7000000000000028
11
89.7299999999999898
21
-66.5
0
LINE
8
BLACK
6
CONTINUOUS
10
89.7299999999999898
20
-66.5
11
90.4299999999999926
21
-66.5
0
LINE
8
BLACK
6
CONTINUOUS
10
90.4299999999999926
20
-66.5
11
90.4299999999999926
21
-66.7000000000000028
0
LINE
8
BLACK
6
CONTINUOUS
10
121.269999999999996
20
-66.7000000000000028
11
120.5699999999999932
21
-66.7000000000000028
0
LINE
8
BLACK
6
CONTINUOUS
10
120.5699999999999932
20
-66.7000000000000028
11
120.5699999999999932
21
-66.5
0
LINE
8
BLACK
6
CONTINUOUS
10
120.5699999999999932
20
-66.5
11
121.269999999999996
21
-66.5
0
LINE
8
BLACK
6
CONTINUOUS
10
121.269999999999996
20
-66.5
11
121.269999999999996
21
-66.7000000000000028
0
LINE
8
BLACK
6
CONTINUOUS
10
124.3499999999999943
20
-66.7000000000000028
11
123.6499999999999915
21
-66.7000000000000028
0
LINE
8
BLACK
6
CONTINUOUS
10
123.6499999999999915
20
-66.7000000000000028
11
123.6499999999999915
21
-66.5
0
LINE
8
BLACK
6
CONTINUOUS
10
123.6499999999999915
20
-66.5
11
124.3499999999999943
21
-66.5
0
LINE
8
BLACK
6
CONTINUOUS
10
124.3499999999999943
20
-66.5
11
124.3499999999999943
21
-66.7000000000000028
0
LINE
8
BLACK
6
CONTINUOUS
10
87.3499999999999943
20
-66.2999999999999972
11
86.6499999999999915
21
-66.2999999999999972
0
LINE
8
BLACK
6
CONTINUOUS
10
86.6499999999999915
20
-66.2999999999999972
11
86.6499999999999915
21
-66.0999999999999943
0
LINE
8
BLACK
6
CONTINUOUS
10
86.6499999999999915
20
-66.0999999999999943
11
87.3499999999999943
21
-66.0999999999999943
0
LINE
8
BLACK
6
CONTINUOUS
10
87.3499999999999943
20
-66.0999999999999943
11
87.3499999999999943
21
-66.2999999999999972
0
LINE
8
BLACK
6
CONTINUOUS
10
90.4299999999999926
20
-66.2999999999999972
11
89.7299999999999898
21
-66.2999999999999972
0
LINE
8
BLACK
6
CONTINUOUS
10
89.7299999999999898
20
-66.2999999999999972
11
89.7299999999999898
21
-66.0999999999999943
0
LINE
8
BLACK
6
CONTINUOUS
10
89.7299999999999898
20
-66.0999999999999943
11
90.4299999999999926
21
-66.0999999999999943
0
LINE
8
BLACK
6
CONTINUOUS
10
90.4299999999999926
20
-66.0999999999999943
11
90.4299999999999926
21
-66.2999999999999972
0
LINE
8
BLACK
6
CONTINUOUS
10
121.269999999999996
20
-66.2999999999999972
11
120.5699999999999932
21
-66.2999999999999972
0
LINE
8
BLACK
6
CONTINUOUS
10
120.5699999999999932
20
-66.2999999999999972
11
120.5699999999999932
21
-66.0999999999999943
0
LINE
8
BLACK
6
CONTINUOUS
10
120.5699999999999932
20
-66.0999999999999943
11
121.269999999999996
21
-66.0999999999999943
0
LINE
8
BLACK
6
CONTINUOUS
10
121.269999999999996
20
-66.0999999999999943
11
121.269999999999996
21
-66.2999999999999972
0
LINE
8
BLACK
6
CONTINUOUS
10
124.3499999999999943
20
-66.2999999999999972
11
123.6499999999999915
21
-66.2999999999999972
0
LINE
8
BLACK
6
CONTINUOUS
10
123.6499999999999915
20
-66.2999999999999972
11
123.6499999999999915
21
-66.0999999999999943
0
LINE
8
BLACK
6
CONTINUOUS
10
123.6499999999999915
20
-66.0999999999999943
11
124.3499999999999943
21
-66.0999999999999943
0
LINE
8
BLACK
6
CONTINUOUS
10
124.3499999999999943
20
-66.0999999999999943
11
124.3499999999999943
21
-66.2999999999999972
0
LINE
8
BLACK
6
CONTINUOUS
10
87.3499999999999943
20
-65.8999999999999915
11
86.6499999999999915
21
-65.8999999999999915
0
LINE
8
BLACK
6
CONTINUOUS
10
86.6499999999999915
20
-65.8999999999999915
11
86.6499999999999915
21
-65.7000000000000028
0
LINE
8
BLACK
6
CONTINUOUS
10
86.6499999999999915
20
-65.7000000000000028
11
87.3499999999999943
21
-65.7000000000000028
0
LINE
8
BLACK
6
CONTINUOUS
10
87.3499999999999943
20
-65.7000000000000028
11
87.3499999999999943
21
-65.8999999999999915
0
LINE
8
BLACK
6
CONTINUOUS
10
90.4299999999999926
20
-65.8999999999999915
11
89.7299999999999898
21
-65.8999999999999915
0
LINE
8
BLACK
6
CONTINUOUS
10
89.7299999999999898
20
-65.8999999999999915
11
89.7299999999999898
21
-65.7000000000000028
0
LINE
8
BLACK
6
CONTINUOUS
10
89.7299999999999898
20
-65.7000000000000028
11
90.4299999999999926
21
-65.7000000000000028
0
LINE
8
BLACK
6
CONTINUOUS
10
90.4299999999999926
20
-65.7000000000000028
11
90.4299999999999926
21
-65.8999999999999915
0
LINE
8
BLACK
6
CONTINUOUS
10
121.269999999999996
20
-65.8999999999999915
11
120.5699999999999932
21
-65.8999999999999915
0
LINE
8
BLACK
6
CONTINUOUS
10
120.5699999999999932
20
-65.8999999999999915
11
120.5699999999999932
21
-65.7000000000000028
0
LINE
8
BLACK
6
CONTINUOUS
10
120.5699999999999932
20
-65.7000000000000028
11
121.269999999999996
21
-65.7000000000000028
0
LINE
8
BLACK
6
CONTINUOUS
10
121.269999999999996
20
-65.7000000000000028
11
121.269999999999996
21
-65.8999999999999915
0
LINE
8
BLACK
6
CONTINUOUS
10
124.3499999999999943
20
-65.8999999999999915
11
123.6499999999999915
21
-65.8999999999999915
0
LINE
8
BLACK
6
CONTINUOUS
10
123.6499999999999915
20
-65.8999999999999915
11
123.6499999999999915
21
-65.7000000000000028
0
LINE
8
BLACK
6
CONTINUOUS
10
123.6499999999999915
20
-65.7000000000000028
11
124.3499999999999943
21
-65.7000000000000028
0
LINE
8
BLACK
6
CONTINUOUS
10
124.3499999999999943
20
-65.7000000000000028
11
124.3499999999999943
21
-65.8999999999999915
0
LINE
8
BLACK
6
CONTINUOUS
10
87.3499999999999943
20
-65.5
11
86.6499999999999915
21
-65.5
0
LINE
8
BLACK
6
CONTINUOUS
10
86.6499999999999915
20
-65.5
11
86.6499999999999915
21
-65.2999999999999972
0
LINE
8
BLACK
6
CONTINUOUS
10
86.6499999999999915
20
-65.2999999999999972
11
87.3499999999999943
21
-65.2999999999999972
0
LINE
8
BLACK
6
CONTINUOUS
10
87.3499999999999943
20
-65.2999999999999972
11
87.3499999999999943
21
-65.5
0
LINE
8
BLACK
6
CONTINUOUS
10
90.4299999999999926
20
-65.5
11
89.7299999999999898
21
-65.5
0
LINE
8
BLACK
6
CONTINUOUS
10
89.7299999999999898
20
-65.5
11
89.7299999999999898
21
-65.2999999999999972
0
LINE
8
BLACK
6
CONTINUOUS
10
89.7299999999999898
20
-65.2999999999999972
11
90.4299999999999926
21
-65.2999999999999972
0
LINE
8
BLACK
6
CONTINUOUS
10
90.4299999999999926
20
-65.2999999999999972
11
90.4299999999999926
21
-65.5
0
LINE
8
BLACK
6
CONTINUOUS
10
121.269999999999996
20
-65.5
11
120.5699999999999932
21
-65.5
0
LINE
8
BLACK
6
CONTINUOUS
10
120.5699999999999932
20
-65.5
11
120.5699999999999932
21
-65.2999999999999972
0
LINE
8
BLACK
6
CONTINUOUS
10
120.5699999999999932
20
-65.2999999999999972
11
121.269999999999996
21
-65.2999999999999972
0
LINE
8
BLACK
6
CONTINUOUS
10
121.269999999999996
20
-65.2999999999999972
11
121.269999999999996
21
-65.5
0
LINE
8
BLACK
6
CONTINUOUS
10
124.3499999999999943
20
-65.5
11
123.6499999999999915
21
-65.5
0
LINE
8
BLACK
6
CONTINUOUS
10
123.6499999999999915
20
-65.5
11
123.6499999999999915
21
-65.2999999999999972
0
LINE
8
BLACK
6
CONTINUOUS
10
123.6499999999999915
20
-65.2999999999999972
11
124.3499999999999943
21
-65.2999999999999972
0
LINE
8
BLACK
6
CONTINUOUS
10
124.3499999999999943
20
-65.2999999999999972
11
124.3499999999999943
21
-65.5
0
LINE
8
BLACK
6
CONTINUOUS
10
87.3499999999999943
20
-65.0999999999999943
11
86.6499999999999915
21
-65.0999999999999943
0
LINE
8
BLACK
6
CONTINUOUS
10
86.6499999999999915
20
-65.0999999999999943
11
86.6499999999999915
21
-64.8999999999999915
0
LINE
8
BLACK
6
CONTINUOUS
10
86.6499999999999915
20
-64.8999999999999915
11
87.3499999999999943
21
-64.8999999999999915
0
LINE
8
BLACK
6
CONTINUOUS
10
87.3499999999999943
20
-64.8999999999999915
11
87.3499999999999943
21
-65.0999999999999943
0
LINE
8
BLACK
6
CONTINUOUS
10
90.4299999999999926
20
-65.0999999999999943
11
89.7299999999999898
21
-65.0999999999999943
0
LINE
8
BLACK
6
CONTINUOUS
10
89.7299999999999898
20
-65.0999999999999943
11
89.7299999999999898
21
-64.8999999999999915
0
LINE
8
BLACK
6
CONTINUOUS
10
89.7299999999999898
20
-64.8999999999999915
11
90.4299999999999926
21
-64.8999999999999915
0
LINE
8
BLACK
6
CONTINUOUS
10
90.4299999999999926
20
-64.8999999999999915
11
90.4299999999999926
21
-65.0999999999999943
0
LINE
8
BLACK
6
CONTINUOUS
10
121.269999999999996
20
-65.0999999999999943
11
120.5699999999999932
21
-65.0999999999999943
0
LINE
8
BLACK
6
CONTINUOUS
10
120.5699999999999932
20
-65.0999999999999943
11
120.5699999999999932
21
-64.8999999999999915
0
LINE
8
BLACK
6
CONTINUOUS
10
120.5699999999999932
20
-64.8999999999999915
11
121.269999999999996
21
-64.8999999999999915
0
LINE
8
BLACK
6
CONTINUOUS
10
121.269999999999996
20
-64.8999999999999915
11
121.269999999999996
21
-65.0999999999999943
0
LINE
8
BLACK
6
CONTINUOUS
10
124.3499999999999943
20
-65.0999999999999943
11
123.6499999999999915
21
-65.0999999999999943
0
LINE
8
BLACK
6
CONTINUOUS
10
123.6499999999999915
20
-65.0999999999999943
11
123.6499999999999915
21
-64.8999999999999915
0
LINE
8
BLACK
6
CONTINUOUS
10
123.6499999999999915
20
-64.8999999999999915
11
124.3499999999999943
21
-64.8999999999999915
0
LINE
8
BLACK
6
CONTINUOUS
10
124.3499999999999943
20
-64.8999999999999915
11
124.3499999999999943
21
-65.0999999999999943
0
LINE
8
BLACK
6
CONTINUOUS
10
87.3499999999999943
20
-64.7000000000000028
11
86.6499999999999915
21
-64.7000000000000028
0
LINE
8
BLACK
6
CONTINUOUS
10
86.6499999999999915
20
-64.7000000000000028
11
86.6499999999999915
21
-64.5
0
LINE
8
BLACK
6
CONTINUOUS
10
86.6499999999999915
20
-64.5
11
87.3499999999999943
21
-64.5
0
LINE
8
BLACK
6
CONTINUOUS
10
87.3499999999999943
20
-64.5
11
87.3499999999999943
21
-64.7000000000000028
0
LINE
8
BLACK
6
CONTINUOUS
10
90.4299999999999926
20
-64.7000000000000028
11
89.7299999999999898
21
-64.7000000000000028
0
LINE
8
BLACK
6
CONTINUOUS
10
89.7299999999999898
20
-64.7000000000000028
11
89.7299999999999898
21
-64.5
0
LINE
8
BLACK
6
CONTINUOUS
10
89.7299999999999898
20
-64.5
11
90.4299999999999926
21
-64.5
0
LINE
8
BLACK
6
CONTINUOUS
10
90.4299999999999926
20
-64.5
11
90.4299999999999926
21
-64.7000000000000028
0
LINE
8
BLACK
6
CONTINUOUS
10
121.269999999999996
20
-64.7000000000000028
11
120.5699999999999932
21
-64.7000000000000028
0
LINE
8
BLACK
6
CONTINUOUS
10
120.5699999999999932
20
-64.7000000000000028
11
120.5699999999999932
21
-64.5
0
LINE
8
BLACK
6
CONTINUOUS
10
120.5699999999999932
20
-64.5
11
121.269999999999996
21
-64.5
0
LINE
8
BLACK
6
CONTINUOUS
10
121.269999999999996
20
-64.5
11
121.269999999999996
21
-64.7000000000000028
0
LINE
8
BLACK
6
CONTINUOUS
10
124.3499999999999943
20
-64.7000000000000028
11
123.6499999999999915
21
-64.7000000000000028
0
LINE
8
BLACK
6
CONTINUOUS
10
123.6499999999999915
20
-64.7000000000000028
11
123.6499999999999915
21
-64.5
0
LINE
8
BLACK
6
CONTINUOUS
10
123.6499999999999915
20
-64.5
11
124.3499999999999943
21
-64.5
0
LINE
8
BLACK
6
CONTINUOUS
10
124.3499999999999943
20
-64.5
11
124.3499999999999943
21
-64.7000000000000028
0
LINE
8
BLACK
6
CONTINUOUS
10
87.3499999999999943
20
-64.2999999999999972
11
86.6499999999999915
21
-64.2999999999999972
0
LINE
8
BLACK
6
CONTINUOUS
10
86.6499999999999915
20
-64.2999999999999972
11
86.6499999999999915
21
-64.0999999999999943
0
LINE
8
BLACK
6
CONTINUOUS
10
86.6499999999999915
20
-64.0999999999999943
11
87.3499999999999943
21
-64.0999999999999943
0
LINE
8
BLACK
6
CONTINUOUS
10
87.3499999999999943
20
-64.0999999999999943
11
87.3499999999999943
21
-64.2999999999999972
0
LINE
8
BLACK
6
CONTINUOUS
10
90.4299999999999926
20
-64.2999999999999972
11
89.7299999999999898
21
-64.2999999999999972
0
LINE
8
BLACK
6
CONTINUOUS
10
89.7299999999999898
20
-64.2999999999999972
11
89.7299999999999898
21
-64.0999999999999943
0
LINE
8
BLACK
6
CONTINUOUS
10
89.7299999999999898
20
-64.0999999999999943
11
90.4299999999999926
21
-64.0999999999999943
0
LINE
8
BLACK
6
CONTINUOUS
10
90.4299999999999926
20
-64.0999999999999943
11
90.4299999999999926
21
-64.2999999999999972
0
LINE
8
BLACK
6
CONTINUOUS
10
121.269999999999996
20
-64.2999999999999972
11
120.5699999999999932
21
-64.2999999999999972
0
LINE
8
BLACK
6
CONTINUOUS
10
120.5699999999999932
20
-64.2999999999999972
11
120.5699999999999932
21
-64.0999999999999943
0
LINE
8
BLACK
6
CONTINUOUS
10
120.5699999999999932
20
-64.0999999999999943
11
121.269999999999996
21
-64.0999999999999943
0
LINE
8
BLACK
6
CONTINUOUS
10
121.269999999999996
20
-64.0999999999999943
11
121.269999999999996
21
-64.2999999999999972
0
LINE
8
BLACK
6
CONTINUOUS
10
124.3499999999999943
20
-64.2999999999999972
11
123.6499999999999915
21
-64.2999999999999972
0
LINE
8
BLACK
6
CONTINUOUS
10
123.6499999999999915
20
-64.2999999999999972
11
123.6499999999999915
21
-64.0999999999999943
0
LINE
8
BLACK
6
CONTINUOUS
10
123.6499999999999915
20
-64.0999999999999943
11
124.3499999999999943
21
-64.0999999999999943
0
LINE
8
BLACK
6
CONTINUOUS
10
124.3499999999999943
20
-64.0999999999999943
11
124.3499999999999943
21
-64.2999999999999972
0
LINE
8
BLACK
6
CONTINUOUS
10
87.3499999999999943
20
-63.8999999999999986
11
86.6499999999999915
21
-63.8999999999999986
0
LINE
8
BLACK
6
CONTINUOUS
10
86.6499999999999915
20
-63.8999999999999986
11
86.6499999999999915
21
-63.6999999999999957
0
LINE
8
BLACK
6
CONTINUOUS
10
86.6499999999999915
20
-63.6999999999999957
11
87.3499999999999943
21
-63.6999999999999957
0
LINE
8
BLACK
6
CONTINUOUS
10
87.3499999999999943
20
-63.6999999999999957
11
87.3499999999999943
21
-63.8999999999999986
0
LINE
8
BLACK
6
CONTINUOUS
10
90.4299999999999926
20
-63.8999999999999986
11
89.7299999999999898
21
-63.8999999999999986
0
LINE
8
BLACK
6
CONTINUOUS
10
89.7299999999999898
20
-63.8999999999999986
11
89.7299999999999898
21
-63.6999999999999957
0
LINE
8
BLACK
6
CONTINUOUS
10
89.7299999999999898
20
-63.6999999999999957
11
90.4299999999999926
21
-63.6999999999999957
0
LINE
8
BLACK
6
CONTINUOUS
10
90.4299999999999926
20
-63.6999999999999957
11
90.4299999999999926
21
-63.8999999999999986
0
LINE
8
BLACK
6
CONTINUOUS
10
121.269999999999996
20
-63.8999999999999986
11
120.5699999999999932
21
-63.8999999999999986
0
LINE
8
BLACK
6
CONTINUOUS
10
120.5699999999999932
20
-63.8999999999999986
11
120.5699999999999932
21
-63.6999999999999957
0
LINE
8
BLACK
6
CONTINUOUS
10
120.5699999999999932
20
-63.6999999999999957
11
121.269999999999996
21
-63.6999999999999957
0
LINE
8
BLACK
6
CONTINUOUS
10
121.269999999999996
20
-63.6999999999999957
11
121.269999999999996
21
-63.8999999999999986
0
LINE
8
BLACK
6
CONTINUOUS
10
124.3499999999999943
20
-63.8999999999999986
11
123.6499999999999915
21
-63.8999999999999986
0
LINE
8
BLACK
6
CONTINUOUS
10
123.6499999999999915
20
-63.8999999999999986
11
123.6499999999999915
21
-63.6999999999999957
0
LINE
8
BLACK
6
CONTINUOUS
10
123.6499999999999915
20
-63.6999999999999957
11
124.3499999999999943
21
-63.6999999999999957
0
LINE
8
BLACK
6
CONTINUOUS
10
124.3499999999999943
20
-63.6999999999999957
11
124.3499999999999943
21
-63.8999999999999986
0
LINE
8
BLACK
6
CONTINUOUS
10
87.3499999999999943
20
-63.5
11
86.6499999999999915
21
-63.5
0
LINE
8
BLACK
6
CONTINUOUS
10
86.6499999999999915
20
-63.5
11
86.6499999999999915
21
-63.2999999999999972
0
LINE
8
BLACK
6
CONTINUOUS
10
86.6499999999999915
20
-63.2999999999999972
11
87.3499999999999943
21
-63.2999999999999972
0
LINE
8
BLACK
6
CONTINUOUS
10
87.3499999999999943
20
-63.2999999999999972
11
87.3499999999999943
21
-63.5
0
LINE
8
BLACK
6
CONTINUOUS
10
90.4299999999999926
20
-63.5
11
89.7299999999999898
21
-63.5
0
LINE
8
BLACK
6
CONTINUOUS
10
89.7299999999999898
20
-63.5
11
89.7299999999999898
21
-63.2999999999999972
0
LINE
8
BLACK
6
CONTINUOUS
10
89.7299999999999898
20
-63.2999999999999972
11
90.4299999999999926
21
-63.2999999999999972
0
LINE
8
BLACK
6
CONTINUOUS
10
90.4299999999999926
20
-63.2999999999999972
11
90.4299999999999926
21
-63.5
0
LINE
8
BLACK
6
CONTINUOUS
10
121.269999999999996
20
-63.5
11
120.5699999999999932
21
-63.5
0
LINE
8
BLACK
6
CONTINUOUS
10
120.5699999999999932
20
-63.5
11
120.5699999999999932
21
-63.2999999999999972
0
LINE
8
BLACK
6
CONTINUOUS
10
120.5699999999999932
20
-63.2999999999999972
11
121.269999999999996
21
-63.2999999999999972
0
LINE
8
BLACK
6
CONTINUOUS
10
121.269999999999996
20
-63.2999999999999972
11
121.269999999999996
21
-63.5
0
LINE
8
BLACK
6
CONTINUOUS
10
124.3499999999999943
20
-63.5
11
123.6499999999999915
21
-63.5
0
LINE
8
BLACK
6
CONTINUOUS
10
123.6499999999999915
20
-63.5
11
123.6499999999999915
21
-63.2999999999999972
0
LINE
8
BLACK
6
CONTINUOUS
10
123.6499999999999915
20
-63.2999999999999972
11
124.3499999999999943
21
-63.2999999999999972
0
LINE
8
BLACK
6
CONTINUOUS
10
124.3499999999999943
20
-63.2999999999999972
11
124.3499999999999943
21
-63.5
0
LINE
8
BLACK
6
CONTINUOUS
10
87.3499999999999943
20
-63.0999999999999943
11
86.6499999999999915
21
-63.0999999999999943
0
LINE
8
BLACK
6
CONTINUOUS
10
86.6499999999999915
20
-63.0999999999999943
11
86.6499999999999915
21
-62.8999999999999986
0
LINE
8
BLACK
6
CONTINUOUS
10
86.6499999999999915
20
-62.8999999999999986
11
87.3499999999999943
21
-62.8999999999999986
0
LINE
8
BLACK
6
CONTINUOUS
10
87.3499999999999943
20
-62.8999999999999986
11
87.3499999999999943
21
-63.0999999999999943
0
LINE
8
BLACK
6
CONTINUOUS
10
90.4299999999999926
20
-63.0999999999999943
11
89.7299999999999898
21
-63.0999999999999943
0
LINE
8
BLACK
6
CONTINUOUS
10
89.7299999999999898
20
-63.0999999999999943
11
89.7299999999999898
21
-62.8999999999999986
0
LINE
8
BLACK
6
CONTINUOUS
10
89.7299999999999898
20
-62.8999999999999986
11
90.4299999999999926
21
-62.8999999999999986
0
LINE
8
BLACK
6
CONTINUOUS
10
90.4299999999999926
20
-62.8999999999999986
11
90.4299999999999926
21
-63.0999999999999943
0
LINE
8
BLACK
6
CONTINUOUS
10
121.269999999999996
20
-63.0999999999999943
11
120.5699999999999932
21
-63.0999999999999943
0
LINE
8
BLACK
6
CONTINUOUS
10
120.5699999999999932
20
-63.0999999999999943
11
120.5699999999999932
21
-62.8999999999999986
0
LINE
8
BLACK
6
CONTINUOUS
10
120.5699999999999932
20
-62.8999999999999986
11
121.269999999999996
21
-62.8999999999999986
0
LINE
8
BLACK
6
CONTINUOUS
10
121.269999999999996
20
-62.8999999999999986
11
121.269999999999996
21
-63.0999999999999943
0
LINE
8
BLACK
6
CONTINUOUS
10
124.3499999999999943
20
-63.0999999999999943
11
123.6499999999999915
21
-63.0999999999999943
0
LINE
8
BLACK
6
CONTINUOUS
10
123.6499999999999915
20
-63.0999999999999943
11
123.6499999999999915
21
-62.8999999999999986
0
LINE
8
BLACK
6
CONTINUOUS
10
123.6499999999999915
20
-62.8999999999999986
11
124.3499999999999943
21
-62.8999999999999986
0
LINE
8
BLACK
6
CONTINUOUS
10
124.3499999999999943
20
-62.8999999999999986
11
124.3499999999999943
21
-63.0999999999999943
0
LINE
8
BLACK
6
CONTINUOUS
10
87.3499999999999943
20
-62.6999999999999957
11
86.6499999999999915
21
-62.6999999999999957
0
LINE
8
BLACK
6
CONTINUOUS
10
86.6499999999999915
20
-62.6999999999999957
11
86.6499999999999915
21
-62.5
0
LINE
8
BLACK
6
CONTINUOUS
10
86.6499999999999915
20
-62.5
11
87.3499999999999943
21
-62.5
0
LINE
8
BLACK
6
CONTINUOUS
10
87.3499999999999943
20
-62.5
11
87.3499999999999943
21
-62.6999999999999957
0
LINE
8
BLACK
6
CONTINUOUS
10
90.4299999999999926
20
-62.6999999999999957
11
89.7299999999999898
21
-62.6999999999999957
0
LINE
8
BLACK
6
CONTINUOUS
10
89.7299999999999898
20
-62.6999999999999957
11
89.7299999999999898
21
-62.5
0
LINE
8
BLACK
6
CONTINUOUS
10
89.7299999999999898
20
-62.5
11
90.4299999999999926
21
-62.5
0
LINE
8
BLACK
6
CONTINUOUS
10
90.4299999999999926
20
-62.5
11
90.4299999999999926
21
-62.6999999999999957
0
LINE
8
BLACK
6
CONTINUOUS
10
121.269999999999996
20
-62.6999999999999957
11
120.5699999999999932
21
-62.6999999999999957
0
LINE
8
BLACK
6
CONTINUOUS
10
120.5699999999999932
20
-62.6999999999999957
11
120.5699999999999932
21
-62.5
0
LINE
8
BLACK
6
CONTINUOUS
10
120.5699999999999932
20
-62.5
11
121.269999999999996
21
-62.5
0
LINE
8
BLACK
6
CONTINUOUS
10
121.269999999999996
20
-62.5
11
121.269999999999996
21
-62.6999999999999957
0
LINE
8
BLACK
6
CONTINUOUS
10
124.3499999999999943
20
-62.6999999999999957
11
123.6499999999999915
21
-62.6999999999999957
0
LINE
8
BLACK
6
CONTINUOUS
10
123.6499999999999915
20
-62.6999999999999957
11
123.6499999999999915
21
-62.5
0
LINE
8
BLACK
6
CONTINUOUS
10
123.6499999999999915
20
-62.5
11
124.3499999999999943
21
-62.5
0
LINE
8
BLACK
6
CONTINUOUS
10
124.3499999999999943
20
-62.5
11
124.3499999999999943
21
-62.6999999999999957
0
LINE
8
BLACK
6
CONTINUOUS
10
87.3499999999999943
20
-62.2999999999999972
11
86.6499999999999915
21
-62.2999999999999972
0
LINE
8
BLACK
6
CONTINUOUS
10
86.6499999999999915
20
-62.2999999999999972
11
86.6499999999999915
21
-62.0999999999999943
0
LINE
8
BLACK
6
CONTINUOUS
10
86.6499999999999915
20
-62.0999999999999943
11
87.3499999999999943
21
-62.0999999999999943
0
LINE
8
BLACK
6
CONTINUOUS
10
87.3499999999999943
20
-62.0999999999999943
11
87.3499999999999943
21
-62.2999999999999972
0
LINE
8
BLACK
6
CONTINUOUS
10
90.4299999999999926
20
-62.2999999999999972
11
89.7299999999999898
21
-62.2999999999999972
0
LINE
8
BLACK
6
CONTINUOUS
10
89.7299999999999898
20
-62.2999999999999972
11
89.7299999999999898
21
-62.0999999999999943
0
LINE
8
BLACK
6
CONTINUOUS
10
89.7299999999999898
20
-62.0999999999999943
11
90.4299999999999926
21
-62.0999999999999943
0
LINE
8
BLACK
6
CONTINUOUS
10
90.4299999999999926
20
-62.0999999999999943
11
90.4299999999999926
21
-62.2999999999999972
0
LINE
8
BLACK
6
CONTINUOUS
10
121.269999999999996
20
-62.2999999999999972
11
120.5699999999999932
21
-62.2999999999999972
0
LINE
8
BLACK
6
CONTINUOUS
10
120.5699999999999932
20
-62.2999999999999972
11
120.5699999999999932
21
-62.0999999999999943
0
LINE
8
BLACK
6
CONTINUOUS
10
120.5699999999999932
20
-62.0999999999999943
11
121.269999999999996
21
-62.0999999999999943
0
LINE
8
BLACK
6
CONTINUOUS
10
121.269999999999996
20
-62.0999999999999943
11
121.269999999999996
21
-62.2999999999999972
0
LINE
8
BLACK
6
CONTINUOUS
10
124.3499999999999943
20
-62.2999999999999972
11
123.6499999999999915
21
-62.2999999999999972
0
LINE
8
BLACK
6
CONTINUOUS
10
123.6499999999999915
20
-62.2999999999999972
11
123.6499999999999915
21
-62.0999999999999943
0
LINE
8
BLACK
6
CONTINUOUS
10
123.6499999999999915
20
-62.0999999999999943
11
124.3499999999999943
21
-62.0999999999999943
0
LINE
8
BLACK
6
CONTINUOUS
10
124.3499999999999943
20
-62.0999999999999943
11
124.3499999999999943
21
-62.2999999999999972
0
LINE
8
BLACK
6
CONTINUOUS
10
87.3499999999999943
20
-61.8999999999999986
11
86.6499999999999915
21
-61.8999999999999986
0
LINE
8
BLACK
6
CONTINUOUS
10
86.6499999999999915
20
-61.8999999999999986
11
86.6499999999999915
21
-61.6999999999999957
0
LINE
8
BLACK
6
CONTINUOUS
10
86.6499999999999915
20
-61.6999999999999957
11
87.3499999999999943
21
-61.6999999999999957
0
LINE
8
BLACK
6
CONTINUOUS
10
87.3499999999999943
20
-61.6999999999999957
11
87.3499999999999943
21
-61.8999999999999986
0
LINE
8
BLACK
6
CONTINUOUS
10
90.4299999999999926
20
-61.8999999999999986
11
89.7299999999999898
21
-61.8999999999999986
0
LINE
8
BLACK
6
CONTINUOUS
10
89.7299999999999898
20
-61.8999999999999986
11
89.7299999999999898
21
-61.6999999999999957
0
LINE
8
BLACK
6
CONTINUOUS
10
89.7299999999999898
20
-61.6999999999999957
11
90.4299999999999926
21
-61.6999999999999957
0
LINE
8
BLACK
6
CONTINUOUS
10
90.4299999999999926
20
-61.6999999999999957
11
90.4299999999999926
21
-61.8999999999999986
0
LINE
8
BLACK
6
CONTINUOUS
10
121.269999999999996
20
-61.8999999999999986
11
120.5699999999999932
21
-61.8999999999999986
0
LINE
8
BLACK
6
CONTINUOUS
10
120.5699999999999932
20
-61.8999999999999986
11
120.5699999999999932
21
-61.6999999999999957
0
LINE
8
BLACK
6
CONTINUOUS
10
120.5699999999999932
20
-61.6999999999999957
11
121.269999999999996
21
-61.6999999999999957
0
LINE
8
BLACK
6
CONTINUOUS
10
121.269999999999996
20
-61.6999999999999957
11
121.269999999999996
21
-61.8999999999999986
0
LINE
8
BLACK
6
CONTINUOUS
10
124.3499999999999943
20
-61.8999999999999986
11
123.6499999999999915
21
-61.8999999999999986
0
LINE
8
BLACK
6
CONTINUOUS
10
123.6499999999999915
20
-61.8999999999999986
11
123.6499999999999915
21
-61.6999999999999957
0
LINE
8
BLACK
6
CONTINUOUS
10
123.6499999999999915
20
-61.6999999999999957
11
124.3499999999999943
21
-61.6999999999999957
0
LINE
8
BLACK
6
CONTINUOUS
10
124.3499999999999943
20
-61.6999999999999957
11
124.3499999999999943
21
-61.8999999999999986
0
LINE
8
BLACK
6
CONTINUOUS
10
87.3499999999999943
20
-61.5
11
86.6499999999999915
21
-61.5
0
LINE
8
BLACK
6
CONTINUOUS
10
86.6499999999999915
20
-61.5
11
86.6499999999999915
21
-61.2999999999999972
0
LINE
8
BLACK
6
CONTINUOUS
10
86.6499999999999915
20
-61.2999999999999972
11
87.3499999999999943
21
-61.2999999999999972
0
LINE
8
BLACK
6
CONTINUOUS
10
87.3499999999999943
20
-61.2999999999999972
11
87.3499999999999943
21
-61.5
0
LINE
8
BLACK
6
CONTINUOUS
10
90.4299999999999926
20
-61.5
11
89.7299999999999898
21
-61.5
0
LINE
8
BLACK
6
CONTINUOUS
10
89.7299999999999898
20
-61.5
11
89.7299999999999898
21
-61.2999999999999972
0
LINE
8
BLACK
6
CONTINUOUS
10
89.7299999999999898
20
-61.2999999999999972
11
90.4299999999999926
21
-61.2999999999999972
0
LINE
8
BLACK
6
CONTINUOUS
10
90.4299999999999926
20
-61.2999999999999972
11
90.4299999999999926
21
-61.5
0
LINE
8
BLACK
6
CONTINUOUS
10
121.269999999999996
20
-61.5
11
120.5699999999999932
21
-61.5
0
LINE
8
BLACK
6
CONTINUOUS
10
120.5699999999999932
20
-61.5
11
120.5699999999999932
21
-61.2999999999999972
0
LINE
8
BLACK
6
CONTINUOUS
10
120.5699999999999932
20
-61.2999999999999972
11
121.269999999999996
21
-61.2999999999999972
0
LINE
8
BLACK
6
CONTINUOUS
10
121.269999999999996
20
-61.2999999999999972
11
121.269999999999996
21
-61.5
0
LINE
8
BLACK
6
CONTINUOUS
10
124.3499999999999943
20
-61.5
11
123.6499999999999915
21
-61.5
0
LINE
8
BLACK
6
CONTINUOUS
10
123.6499999999999915
20
-61.5
11
123.6499999999999915
21
-61.2999999999999972
0
LINE
8
BLACK
6
CONTINUOUS
10
123.6499999999999915
20
-61.2999999999999972
11
124.3499999999999943
21
-61.2999999999999972
0
LINE
8
BLACK
6
CONTINUOUS
10
124.3499999999999943
20
-61.2999999999999972
11
124.3499999999999943
21
-61.5
0
LINE
8
BLACK
6
CONTINUOUS
10
87.3499999999999943
20
-61.0999999999999943
11
86.6499999999999915
21
-61.0999999999999943
0
LINE
8
BLACK
6
CONTINUOUS
10
86.6499999999999915
20
-61.0999999999999943
11
86.6499999999999915
21
-60.8999999999999986
0
LINE
8
BLACK
6
CONTINUOUS
10
86.6499999999999915
20
-60.8999999999999986
11
87.3499999999999943
21
-60.8999999999999986
0
LINE
8
BLACK
6
CONTINUOUS
10
87.3499999999999943
20
-60.8999999999999986
11
87.3499999999999943
21
-61.0999999999999943
0
LINE
8
BLACK
6
CONTINUOUS
10
90.4299999999999926
20
-61.0999999999999943
11
89.7299999999999898
21
-61.0999999999999943
0
LINE
8
BLACK
6
CONTINUOUS
10
89.7299999999999898
20
-61.0999999999999943
11
89.7299999999999898
21
-60.8999999999999986
0
LINE
8
BLACK
6
CONTINUOUS
10
89.7299999999999898
20
-60.8999999999999986
11
90.4299999999999926
21
-60.8999999999999986
0
LINE
8
BLACK
6
CONTINUOUS
10
90.4299999999999926
20
-60.8999999999999986
11
90.4299999999999926
21
-61.0999999999999943
0
LINE
8
BLACK
6
CONTINUOUS
10
121.269999999999996
20
-61.0999999999999943
11
120.5699999999999932
21
-61.0999999999999943
0
LINE
8
BLACK
6
CONTINUOUS
10
120.5699999999999932
20
-61.0999999999999943
11
120.5699999999999932
21
-60.8999999999999986
0
LINE
8
BLACK
6
CONTINUOUS
10
120.5699999999999932
20
-60.8999999999999986
11
121.269999999999996
21
-60.8999999999999986
0
LINE
8
BLACK
6
CONTINUOUS
10
121.269999999999996
20
-60.8999999999999986
11
121.269999999999996
21
-61.0999999999999943
0
LINE
8
BLACK
6
CONTINUOUS
10
124.3499999999999943
20
-61.0999999999999943
11
123.6499999999999915
21
-61.0999999999999943
0
LINE
8
BLACK
6
CONTINUOUS
10
123.6499999999999915
20
-61.0999999999999943
11
123.6499999999999915
21
-60.8999999999999986
0
LINE
8
BLACK
6
CONTINUOUS
10
123.6499999999999915
20
-60.8999999999999986
11
124.3499999999999943
21
-60.8999999999999986
0
LINE
8
BLACK
6
CONTINUOUS
10
124.3499999999999943
20
-60.8999999999999986
11
124.3499999999999943
21
-61.0999999999999943
0
LINE
8
BLACK
6
CONTINUOUS
10
87.3499999999999943
20
-60.6999999999999957
11
86.6499999999999915
21
-60.6999999999999957
0
LINE
8
BLACK
6
CONTINUOUS
10
86.6499999999999915
20
-60.6999999999999957
11
86.6499999999999915
21
-60.5
0
LINE
8
BLACK
6
CONTINUOUS
10
86.6499999999999915
20
-60.5
11
87.3499999999999943
21
-60.5
0
LINE
8
BLACK
6
CONTINUOUS
10
87.3499999999999943
20
-60.5
11
87.3499999999999943
21
-60.6999999999999957
0
LINE
8
BLACK
6
CONTINUOUS
10
90.4299999999999926
20
-60.6999999999999957
11
89.7299999999999898
21
-60.6999999999999957
0
LINE
8
BLACK
6
CONTINUOUS
10
89.7299999999999898
20
-60.6999999999999957
11
89.7299999999999898
21
-60.5
0
LINE
8
BLACK
6
CONTINUOUS
10
89.7299999999999898
20
-60.5
11
90.4299999999999926
21
-60.5
0
LINE
8
BLACK
6
CONTINUOUS
10
90.4299999999999926
20
-60.5
11
90.4299999999999926
21
-60.6999999999999957
0
LINE
8
BLACK
6
CONTINUOUS
10
121.269999999999996
20
-60.6999999999999957
11
120.5699999999999932
21
-60.6999999999999957
0
LINE
8
BLACK
6
CONTINUOUS
10
120.5699999999999932
20
-60.6999999999999957
11
120.5699999999999932
21
-60.5
0
LINE
8
BLACK
6
CONTINUOUS
10
120.5699999999999932
20
-60.5
11
121.269999999999996
21
-60.5
0
LINE
8
BLACK
6
CONTINUOUS
10
121.269999999999996
20
-60.5
11
121.269999999999996
21
-60.6999999999999957
0
LINE
8
BLACK
6
CONTINUOUS
10
124.3499999999999943
20
-60.6999999999999957
11
123.6499999999999915
21
-60.6999999999999957
0
LINE
8
BLACK
6
CONTINUOUS
10
123.6499999999999915
20
-60.6999999999999957
11
123.6499999999999915
21
-60.5
0
LINE
8
BLACK
6
CONTINUOUS
10
123.6499999999999915
20
-60.5
11
124.3499999999999943
21
-60.5
0
LINE
8
BLACK
6
CONTINUOUS
10
124.3499999999999943
20
-60.5
11
124.3499999999999943
21
-60.6999999999999957
0
LINE
8
BLACK
6
CONTINUOUS
10
87.3499999999999943
20
-60.2999999999999972
11
86.6499999999999915
21
-60.2999999999999972
0
LINE
8
BLACK
6
CONTINUOUS
10
86.6499999999999915
20
-60.2999999999999972
11
86.6499999999999915
21
-60.0999999999999943
0
LINE
8
BLACK
6
CONTINUOUS
10
86.6499999999999915
20
-60.0999999999999943
11
87.3499999999999943
21
-60.0999999999999943
0
LINE
8
BLACK
6
CONTINUOUS
10
87.3499999999999943
20
-60.0999999999999943
11
87.3499999999999943
21
-60.2999999999999972
0
LINE
8
BLACK
6
CONTINUOUS
10
90.4299999999999926
20
-60.2999999999999972
11
89.7299999999999898
21
-60.2999999999999972
0
LINE
8
BLACK
6
CONTINUOUS
10
89.7299999999999898
20
-60.2999999999999972
11
89.7299999999999898
21
-60.0999999999999943
0
LINE
8
BLACK
6
CONTINUOUS
10
89.7299999999999898
20
-60.0999999999999943
11
90.4299999999999926
21
-60.0999999999999943
0
LINE
8
BLACK
6
CONTINUOUS
10
90.4299999999999926
20
-60.0999999999999943
11
90.4299999999999926
21
-60.2999999999999972
0
LINE
8
BLACK
6
CONTINUOUS
10
121.269999999999996
20
-60.2999999999999972
11
120.5699999999999932
21
-60.2999999999999972
0
LINE
8
BLACK
6
CONTINUOUS
10
120.5699999999999932
20
-60.2999999999999972
11
120.5699999999999932
21
-60.0999999999999943
0
LINE
8
BLACK
6
CONTINUOUS
10
120.5699999999999932
20
-60.0999999999999943
11
121.269999999999996
21
-60.0999999999999943
0
LINE
8
BLACK
6
CONTINUOUS
10
121.269999999999996
20
-60.0999999999999943
11
121.269999999999996
21
-60.2999999999999972
0
LINE
8
BLACK
6
CONTINUOUS
10
124.3499999999999943
20
-60.2999999999999972
11
123.6499999999999915
21
-60.2999999999999972
0
LINE
8
BLACK
6
CONTINUOUS
10
123.6499999999999915
20
-60.2999999999999972
11
123.6499999999999915
21
-60.0999999999999943
0
LINE
8
BLACK
6
CONTINUOUS
10
123.6499999999999915
20
-60.0999999999999943
11
124.3499999999999943
21
-60.0999999999999943
0
LINE
8
BLACK
6
CONTINUOUS
10
124.3499999999999943
20
-60.0999999999999943
11
124.3499999999999943
21
-60.2999999999999972
0
LINE
8
BLACK
6
CONTINUOUS
10
87.3499999999999943
20
-59.8999999999999986
11
86.6499999999999915
21
-59.8999999999999986
0
LINE
8
BLACK
6
CONTINUOUS
10
86.6499999999999915
20
-59.8999999999999986
11
86.6499999999999915
21
-59.6999999999999957
0
LINE
8
BLACK
6
CONTINUOUS
10
86.6499999999999915
20
-59.6999999999999957
11
87.3499999999999943
21
-59.6999999999999957
0
LINE
8
BLACK
6
CONTINUOUS
10
87.3499999999999943
20
-59.6999999999999957
11
87.3499999999999943
21
-59.8999999999999986
0
LINE
8
BLACK
6
CONTINUOUS
10
90.4299999999999926
20
-59.8999999999999986
11
89.7299999999999898
21
-59.8999999999999986
0
LINE
8
BLACK
6
CONTINUOUS
10
89.7299999999999898
20
-59.8999999999999986
11
89.7299999999999898
21
-59.6999999999999957
0
LINE
8
BLACK
6
CONTINUOUS
10
89.7299999999999898
20
-59.6999999999999957
11
90.4299999999999926
21
-59.6999999999999957
0
LINE
8
BLACK
6
CONTINUOUS
10
90.4299999999999926
20
-59.6999999999999957
11
90.4299999999999926
21
-59.8999999999999986
0
LINE
8
BLACK
6
CONTINUOUS
10
121.269999999999996
20
-59.8999999999999986
11
120.5699999999999932
21
-59.8999999999999986
0
LINE
8
BLACK
6
CONTINUOUS
10
120.5699999999999932
20
-59.8999999999999986
11
120.5699999999999932
21
-59.6999999999999957
0
LINE
8
BLACK
6
CONTINUOUS
10
120.5699999999999932
20
-59.6999999999999957
11
121.269999999999996
21
-59.6999999999999957
0
LINE
8
BLACK
6
CONTINUOUS
10
121.269999999999996
20
-59.6999999999999957
11
121.269999999999996
21
-59.8999999999999986
0
LINE
8
BLACK
6
CONTINUOUS
10
124.3499999999999943
20
-59.8999999999999986
11
123.6499999999999915
21
-59.8999999999999986
0
LINE
8
BLACK
6
CONTINUOUS
10
123.6499999999999915
20
-59.8999999999999986
11
123.6499999999999915
21
-59.6999999999999957
0
LINE
8
BLACK
6
CONTINUOUS
10
123.6499999999999915
20
-59.6999999999999957
11
124.3499999999999943
21
-59.6999999999999957
0
LINE
8
BLACK
6
CONTINUOUS
10
124.3499999999999943
20
-59.6999999999999957
11
124.3499999999999943
21
-59.8999999999999986
0
LINE
8
BLACK
6
CONTINUOUS
10
87.3499999999999943
20
-59.5
11
86.6499999999999915
21
-59.5
0
LINE
8
BLACK
6
CONTINUOUS
10
86.6499999999999915
20
-59.5
11
86.6499999999999915
21
-59.2999999999999972
0
LINE
8
BLACK
6
CONTINUOUS
10
86.6499999999999915
20
-59.2999999999999972
11
87.3499999999999943
21
-59.2999999999999972
0
LINE
8
BLACK
6
CONTINUOUS
10
87.3499999999999943
20
-59.2999999999999972
11
87.3499999999999943
21
-59.5
0
LINE
8
BLACK
6
CONTINUOUS
10
90.4299999999999926
20
-59.5
11
89.7299999999999898
21
-59.5
0
LINE
8
BLACK
6
CONTINUOUS
10
89.7299999999999898
20
-59.5
11
89.7299999999999898
21
-59.2999999999999972
0
LINE
8
BLACK
6
CONTINUOUS
10
89.7299999999999898
20
-59.2999999999999972
11
90.4299999999999926
21
-59.2999999999999972
0
LINE
8
BLACK
6
CONTINUOUS
10
90.4299999999999926
20
-59.2999999999999972
11
90.4299999999999926
21
-59.5
0
LINE
8
BLACK
6
CONTINUOUS
10
121.269999999999996
20
-59.5
11
120.5699999999999932
21
-59.5
0
LINE
8
BLACK
6
CONTINUOUS
10
120.5699999999999932
20
-59.5
11
120.5699999999999932
21
-59.2999999999999972
0
LINE
8
BLACK
6
CONTINUOUS
10
120.5699999999999932
20
-59.2999999999999972
11
121.269999999999996
21
-59.2999999999999972
0
LINE
8
BLACK
6
CONTINUOUS
10
121.269999999999996
20
-59.2999999999999972
11
121.269999999999996
21
-59.5
0
LINE
8
BLACK
6
CONTINUOUS
10
124.3499999999999943
20
-59.5
11
123.6499999999999915
21
-59.5
0
LINE
8
BLACK
6
CONTINUOUS
10
123.6499999999999915
20
-59.5
11
123.6499999999999915
21
-59.2999999999999972
0
LINE
8
BLACK
6
CONTINUOUS
10
123.6499999999999915
20
-59.2999999999999972
11
124.3499999999999943
21
-59.2999999999999972
0
LINE
8
BLACK
6
CONTINUOUS
10
124.3499999999999943
20
-59.2999999999999972
11
124.3499999999999943
21
-59.5
0
LINE
8
BLACK
6
CONTINUOUS
10
87.3499999999999943
20
-59.0999999999999943
11
86.6499999999999915
21
-59.0999999999999943
0
LINE
8
BLACK
6
CONTINUOUS
10
86.6499999999999915
20
-59.0999999999999943
11
86.6499999999999915
21
-58.8999999999999986
0
LINE
8
BLACK
6
CONTINUOUS
10
86.6499999999999915
20
-58.8999999999999986
11
87.3499999999999943
21
-58.8999999999999986
0
LINE
8
BLACK
6
CONTINUOUS
10
87.3499999999999943
20
-58.8999999999999986
11
87.3499999999999943
21
-59.0999999999999943
0
LINE
8
BLACK
6
CONTINUOUS
10
90.4299999999999926
20
-59.0999999999999943
11
89.7299999999999898
21
-59.0999999999999943
0
LINE
8
BLACK
6
CONTINUOUS
10
89.7299999999999898
20
-59.0999999999999943
11
89.7299999999999898
21
-58.8999999999999986
0
LINE
8
BLACK
6
CONTINUOUS
10
89.7299999999999898
20
-58.8999999999999986
11
90.4299999999999926
21
-58.8999999999999986
0
LINE
8
BLACK
6
CONTINUOUS
10
90.4299999999999926
20
-58.8999999999999986
11
90.4299999999999926
21
-59.0999999999999943
0
LINE
8
BLACK
6
CONTINUOUS
10
121.269999999999996
20
-59.0999999999999943
11
120.5699999999999932
21
-59.0999999999999943
0
LINE
8
BLACK
6
CONTINUOUS
10
120.5699999999999932
20
-59.0999999999999943
11
120.5699999999999932
21
-58.8999999999999986
0
LINE
8
BLACK
6
CONTINUOUS
10
120.5699999999999932
20
-58.8999999999999986
11
121.269999999999996
21
-58.8999999999999986
0
LINE
8
BLACK
6
CONTINUOUS
10
121.269999999999996
20
-58.8999999999999986
11
121.269999999999996
21
-59.0999999999999943
0
LINE
8
BLACK
6
CONTINUOUS
10
124.3499999999999943
20
-59.0999999999999943
11
123.6499999999999915
21
-59.0999999999999943
0
LINE
8
BLACK
6
CONTINUOUS
10
123.6499999999999915
20
-59.0999999999999943
11
123.6499999999999915
21
-58.8999999999999986
0
LINE
8
BLACK
6
CONTINUOUS
10
123.6499999999999915
20
-58.8999999999999986
11
124.3499999999999943
21
-58.8999999999999986
0
LINE
8
BLACK
6
CONTINUOUS
10
124.3499999999999943
20
-58.8999999999999986
11
124.3499999999999943
21
-59.0999999999999943
0
LINE
8
BLACK
6
CONTINUOUS
10
87.3499999999999943
20
-58.6999999999999957
11
86.6499999999999915
21
-58.6999999999999957
0
LINE
8
BLACK
6
CONTINUOUS
10
86.6499999999999915
20
-58.6999999999999957
11
86.6499999999999915
21
-58.5
0
LINE
8
BLACK
6
CONTINUOUS
10
86.6499999999999915
20
-58.5
11
87.3499999999999943
21
-58.5
0
LINE
8
BLACK
6
CONTINUOUS
10
87.3499999999999943
20
-58.5
11
87.3499999999999943
21
-58.6999999999999957
0
LINE
8
BLACK
6
CONTINUOUS
10
90.4299999999999926
20
-58.6999999999999957
11
89.7299999999999898
21
-58.6999999999999957
0
LINE
8
BLACK
6
CONTINUOUS
10
89.7299999999999898
20
-58.6999999999999957
11
89.7299999999999898
21
-58.5
0
LINE
8
BLACK
6
CONTINUOUS
10
89.7299999999999898
20
-58.5
11
90.4299999999999926
21
-58.5
0
LINE
8
BLACK
6
CONTINUOUS
10
90.4299999999999926
20
-58.5
11
90.4299999999999926
21
-58.6999999999999957
0
LINE
8
BLACK
6
CONTINUOUS
10
121.269999999999996
20
-58.6999999999999957
11
120.5699999999999932
21
-58.6999999999999957
0
LINE
8
BLACK
6
CONTINUOUS
10
120.5699999999999932
20
-58.6999999999999957
11
120.5699999999999932
21
-58.5
0
LINE
8
BLACK
6
CONTINUOUS
10
120.5699999999999932
20
-58.5
11
121.269999999999996
21
-58.5
0
LINE
8
BLACK
6
CONTINUOUS
10
121.269999999999996
20
-58.5
11
121.269999999999996
21
-58.6999999999999957
0
LINE
8
BLACK
6
CONTINUOUS
10
124.3499999999999943
20
-58.6999999999999957
11
123.6499999999999915
21
-58.6999999999999957
0
LINE
8
BLACK
6
CONTINUOUS
10
123.6499999999999915
20
-58.6999999999999957
11
123.6499999999999915
21
-58.5
0
LINE
8
BLACK
6
CONTINUOUS
10
123.6499999999999915
20
-58.5
11
124.3499999999999943
21
-58.5
0
LINE
8
BLACK
6
CONTINUOUS
10
124.3499999999999943
20
-58.5
11
124.3499999999999943
21
-58.6999999999999957
0
LINE
8
BLACK
6
CONTINUOUS
10
87.3499999999999943
20
-58.2999999999999972
11
86.6499999999999915
21
-58.2999999999999972
0
LINE
8
BLACK
6
CONTINUOUS
10
86.6499999999999915
20
-58.2999999999999972
11
86.6499999999999915
21
-58.0999999999999943
0
LINE
8
BLACK
6
CONTINUOUS
10
86.6499999999999915
20
-58.0999999999999943
11
87.3499999999999943
21
-58.0999999999999943
0
LINE
8
BLACK
6
CONTINUOUS
10
87.3499999999999943
20
-58.0999999999999943
11
87.3499999999999943
21
-58.2999999999999972
0
LINE
8
BLACK
6
CONTINUOUS
10
90.4299999999999926
20
-58.2999999999999972
11
89.7299999999999898
21
-58.2999999999999972
0
LINE
8
BLACK
6
CONTINUOUS
10
89.7299999999999898
20
-58.2999999999999972
11
89.7299999999999898
21
-58.0999999999999943
0
LINE
8
BLACK
6
CONTINUOUS
10
89.7299999999999898
20
-58.0999999999999943
11
90.4299999999999926
21
-58.0999999999999943
0
LINE
8
BLACK
6
CONTINUOUS
10
90.4299999999999926
20
-58.0999999999999943
11
90.4299999999999926
21
-58.2999999999999972
0
LINE
8
BLACK
6
CONTINUOUS
10
121.269999999999996
20
-58.2999999999999972
11
120.5699999999999932
21
-58.2999999999999972
0
LINE
8
BLACK
6
CONTINUOUS
10
120.5699999999999932
20
-58.2999999999999972
11
120.5699999999999932
21
-58.0999999999999943
0
LINE
8
BLACK
6
CONTINUOUS
10
120.5699999999999932
20
-58.0999999999999943
11
121.269999999999996
21
-58.0999999999999943
0
LINE
8
BLACK
6
CONTINUOUS
10
121.269999999999996
20
-58.0999999999999943
11
121.269999999999996
21
-58.2999999999999972
0
LINE
8
BLACK
6
CONTINUOUS
10
124.3499999999999943
20
-58.2999999999999972
11
123.6499999999999915
21
-58.2999999999999972
0
LINE
8
BLACK
6
CONTINUOUS
10
123.6499999999999915
20
-58.2999999999999972
11
123.6499999999999915
21
-58.0999999999999943
0
LINE
8
BLACK
6
CONTINUOUS
10
123.6499999999999915
20
-58.0999999999999943
11
124.3499999999999943
21
-58.0999999999999943
0
LINE
8
BLACK
6
CONTINUOUS
10
124.3499999999999943
20
-58.0999999999999943
11
124.3499999999999943
21
-58.2999999999999972
0
LINE
8
BLACK
6
CONTINUOUS
10
112.5
20
-98.9499999999999886
11
112.5353549999999956
21
-98.9646449999999902
0
LINE
8
BLACK
6
CONTINUOUS
10
112.5353549999999956
20
-98.9646449999999902
11
112.5499999999999972
21
-99.
0
LINE
8
BLACK
6
CONTINUOUS
10
112.5499999999999972
20
-99.
11
112.5499999999999972
21
-112.
0
LINE
8
BLACK
6
CONTINUOUS
10
112.5499999999999972
20
-112.
11
112.5353549999999956
21
-112.0353549999999956
0
LINE
8
BLACK
6
CONTINUOUS
10
112.5353549999999956
20
-112.0353549999999956
11
112.5
21
-112.0499999999999972
0
LINE
8
BLACK
6
CONTINUOUS
10
112.5
20
-112.0499999999999972
11
98.5
21
-112.0499999999999972
0
LINE
8
BLACK
6
CONTINUOUS
10
98.5
20
-112.0499999999999972
11
98.4646449999999902
21
-112.0353549999999956
0
LINE
8
BLACK
6
CONTINUOUS
10
98.4646449999999902
20
-112.0353549999999956
11
98.4499999999999886
21
-112.
0
LINE
8
BLACK
6
CONTINUOUS
10
98.4499999999999886
20
-112.
11
98.4499999999999886
21
-99.
0
LINE
8
BLACK
6
CONTINUOUS
10
98.4499999999999886
20
-99.
11
98.4646449999999902
21
-98.9646449999999902
0
LINE
8
BLACK
6
CONTINUOUS
10
98.4646449999999902
20
-98.9646449999999902
11
98.5
21
-98.9499999999999886
0
LINE
8
BLACK
6
CONTINUOUS
10
98.5
20
-98.9499999999999886
11
112.5
21
-98.9499999999999886
0
LINE
8
BLACK
6
CONTINUOUS
10
98.5499999999999972
20
-99.0499999999999972
11
98.5499999999999972
21
-111.9499999999999886
0
LINE
8
BLACK
6
CONTINUOUS
10
98.5499999999999972
20
-111.9499999999999886
11
112.4499999999999886
21
-111.9499999999999886
0
LINE
8
BLACK
6
CONTINUOUS
10
112.4499999999999886
20
-111.9499999999999886
11
112.4499999999999886
21
-99.0499999999999972
0
LINE
8
BLACK
6
CONTINUOUS
10
112.4499999999999886
20
-99.0499999999999972
11
98.5499999999999972
21
-99.0499999999999972
0
LINE
8
BLACK
6
CONTINUOUS
10
133.
20
-39.4499999999999957
11
133.0353549999999814
21
-39.4646449999999973
0
LINE
8
BLACK
6
CONTINUOUS
10
133.0353549999999814
20
-39.4646449999999973
11
171.5353549999999814
21
-77.9646449999999902
0
LINE
8
BLACK
6
CONTINUOUS
10
171.5353549999999814
20
-77.9646449999999902
11
171.5499999999999829
21
-78.
0
LINE
8
BLACK
6
CONTINUOUS
10
171.5499999999999829
20
-78.
11
171.5499999999999829
21
-93.
0
LINE
8
BLACK
6
CONTINUOUS
10
171.5499999999999829
20
-93.
11
171.5353549999999814
21
-93.0353549999999956
0
LINE
8
BLACK
6
CONTINUOUS
10
171.5353549999999814
20
-93.0353549999999956
11
166.5499999999999829
21
-98.020709999999994
0
LINE
8
BLACK
6
CONTINUOUS
10
166.5499999999999829
20
-98.020709999999994
11
166.5499999999999829
21
-105.5
0
LINE
8
BLACK
6
CONTINUOUS
10
166.5499999999999829
20
-105.5
11
166.5499999999999829
21
-112.9792899999999918
0
LINE
8
BLACK
6
CONTINUOUS
10
166.5499999999999829
20
-112.9792899999999918
11
171.5353549999999814
21
-117.9646449999999902
0
LINE
8
BLACK
6
CONTINUOUS
10
171.5353549999999814
20
-117.9646449999999902
11
171.5499999999999829
21
-118.
0
LINE
8
BLACK
6
CONTINUOUS
10
171.5499999999999829
20
-118.
11
171.5499999999999829
21
-133.
0
LINE
8
BLACK
6
CONTINUOUS
10
171.5499999999999829
20
-133.
11
171.5353549999999814
21
-133.0353549999999814
0
LINE
8
BLACK
6
CONTINUOUS
10
171.5353549999999814
20
-133.0353549999999814
11
133.0353549999999814
21
-171.5353549999999814
0
LINE
8
BLACK
6
CONTINUOUS
10
133.0353549999999814
20
-171.5353549999999814
11
133.
21
-171.5499999999999829
0
LINE
8
BLACK
6
CONTINUOUS
10
133.
20
-171.5499999999999829
11
78.
21
-171.5499999999999829
0
LINE
8
BLACK
6
CONTINUOUS
10
78.
20
-171.5499999999999829
11
77.9646449999999902
21
-171.5353549999999814
0
LINE
8
BLACK
6
CONTINUOUS
10
77.9646449999999902
20
-171.5353549999999814
11
39.4646449999999973
21
-133.0353549999999814
0
LINE
8
BLACK
6
CONTINUOUS
10
39.4646449999999973
20
-133.0353549999999814
11
39.4499999999999957
21
-133.
0
LINE
8
BLACK
6
CONTINUOUS
10
39.4499999999999957
20
-133.
11
39.4499999999999957
21
-118.
0
LINE
8
BLACK
6
CONTINUOUS
10
39.4499999999999957
20
-118.
11
39.4646449999999973
21
-117.9646449999999902
0
LINE
8
BLACK
6
CONTINUOUS
10
39.4646449999999973
20
-117.9646449999999902
11
44.4499999999999957
21
-112.9792899999999918
0
LINE
8
BLACK
6
CONTINUOUS
10
44.4499999999999957
20
-112.9792899999999918
11
44.4499999999999957
21
-105.5
0
LINE
8
BLACK
6
CONTINUOUS
10
44.4499999999999957
20
-105.5
11
44.4499999999999957
21
-98.020709999999994
0
LINE
8
BLACK
6
CONTINUOUS
10
44.4499999999999957
20
-98.020709999999994
11
39.4646449999999973
21
-93.0353549999999956
0
LINE
8
BLACK
6
CONTINUOUS
10
39.4646449999999973
20
-93.0353549999999956
11
39.4499999999999957
21
-93.
0
LINE
8
BLACK
6
CONTINUOUS
10
39.4499999999999957
20
-93.
11
39.4499999999999957
21
-78.
0
LINE
8
BLACK
6
CONTINUOUS
10
39.4499999999999957
20
-78.
11
39.4646449999999973
21
-77.9646449999999902
0
LINE
8
BLACK
6
CONTINUOUS
10
39.4646449999999973
20
-77.9646449999999902
11
77.9646449999999902
21
-39.4646449999999973
0
LINE
8
BLACK
6
CONTINUOUS
10
77.9646449999999902
20
-39.4646449999999973
11
78.
21
-39.4499999999999957
0
LINE
8
BLACK
6
CONTINUOUS
10
78.
20
-39.4499999999999957
11
133.
21
-39.4499999999999957
0
LINE
8
BLACK
6
CONTINUOUS
10
78.020709999999994
20
-39.5499999999999972
11
39.5499999999999972
21
-78.020709999999994
0
LINE
8
BLACK
6
CONTINUOUS
10
39.5499999999999972
20
-78.020709999999994
11
39.5499999999999972
21
-92.9792899999999918
0
LINE
8
BLACK
6
CONTINUOUS
10
39.5499999999999972
20
-92.9792899999999918
11
44.5353549999999956
21
-97.9646449999999902
0
LINE
8
BLACK
6
CONTINUOUS
10
44.5353549999999956
20
-97.9646449999999902
11
44.5499999999999972
21
-98.
0
LINE
8
BLACK
6
CONTINUOUS
10
44.5499999999999972
20
-98.
11
44.5499999999999972
21
-105.5
0
LINE
8
BLACK
6
CONTINUOUS
10
44.5499999999999972
20
-105.5
11
44.5499999999999972
21
-113.
0
LINE
8
BLACK
6
CONTINUOUS
10
44.5499999999999972
20
-113.
11
44.5353549999999956
21
-113.0353549999999956
0
LINE
8
BLACK
6
CONTINUOUS
10
44.5353549999999956
20
-113.0353549999999956
11
39.5499999999999972
21
-118.020709999999994
0
LINE
8
BLACK
6
CONTINUOUS
10
39.5499999999999972
20
-118.020709999999994
11
39.5499999999999972
21
-132.9792899999999918
0
LINE
8
BLACK
6
CONTINUOUS
10
39.5499999999999972
20
-132.9792899999999918
11
78.020709999999994
21
-171.4499999999999886
0
LINE
8
BLACK
6
CONTINUOUS
10
78.020709999999994
20
-171.4499999999999886
11
132.9792899999999918
21
-171.4499999999999886
0
LINE
8
BLACK
6
CONTINUOUS
10
132.9792899999999918
20
-171.4499999999999886
11
171.4499999999999886
21
-132.9792899999999918
0
LINE
8
BLACK
6
CONTINUOUS
10
171.4499999999999886
20
-132.9792899999999918
11
171.4499999999999886
21
-118.020709999999994
0
LINE
8
BLACK
6
CONTINUOUS
10
171.4499999999999886
20
-118.020709999999994
11
166.4646449999999902
21
-113.0353549999999956
0
LINE
8
BLACK
6
CONTINUOUS
10
166.4646449999999902
20
-113.0353549999999956
11
166.4499999999999886
21
-113.
0
LINE
8
BLACK
6
CONTINUOUS
10
166.4499999999999886
20
-113.
11
166.4499999999999886
21
-105.5
0
LINE
8
BLACK
6
CONTINUOUS
10
166.4499999999999886
20
-105.5
11
166.4499999999999886
21
-98.
0
LINE
8
BLACK
6
CONTINUOUS
10
166.4499999999999886
20
-98.
11
166.4646449999999902
21
-97.9646449999999902
0
LINE
8
BLACK
6
CONTINUOUS
10
166.4646449999999902
20
-97.9646449999999902
11
171.4499999999999886
21
-92.9792899999999918
0
LINE
8
BLACK
6
CONTINUOUS
10
171.4499999999999886
20
-92.9792899999999918
11
171.4499999999999886
21
-78.020709999999994
0
LINE
8
BLACK
6
CONTINUOUS
10
171.4499999999999886
20
-78.020709999999994
11
132.9792899999999918
21
-39.5499999999999972
0
LINE
8
BLACK
6
CONTINUOUS
10
132.9792899999999918
20
-39.5499999999999972
11
78.020709999999994
21
-39.5499999999999972
  0
ENDSEC
  0
EOF
