  0
SECTION
  2
HEADER
  9
$ANGBASE
  50
0.0
  9
$ANGDIR
  70
1
  9
$MEASUREMENT
  70
1
  0
ENDSEC
  0
SECTION
  2
TABLES
  0
TABLE
  2
LTYPE
  70
4
  0
LTYPE
  5
40F
  2
CONTINUOUS
  70
0
  3
Solid line
  72
65
  73
0
  40
0.0
  0
LTYPE
  5
410
  2
DASHDOT
 70
0
  3
Dash Dot ____ _ ____ _
 72
65
 73
4
 40
2.0
 49
1.25
 49
-0.25
 49
0.25
 49
-0.25
  0
LTYPE
  5
411
  2
DASHED
 70
0
  3
Dashed __ __ __ __ __
 72
65
 73
2
 40
0.75
 49
0.5
 49
-0.25
  0
LTYPE
  5
43B
  2
DOTTED
 70
0
  3
Dotted .  .  .  .
 72
65
 73
2
 40
0.2
 49
0.0
 49
-0.2
  0
ENDTAB
  0
TABLE
  2
STYLE
  70
4
  0
STYLE
  2
KICAD
  70
0
  40
0
  41
1
  42
1
  50
0
  71
0
  3
isocp.shx
  0
STYLE
  2
KICADB
  70
0
  40
0
  41
1
  42
1
  50
0
  71
0
  3
isocp.shx
  0
STYLE
  2
KICADI
  70
0
  40
0
  41
1
  42
1
  50
15
  71
0
  3
isocp.shx
  0
STYLE
  2
KICADBI
  70
0
  40
0
  41
1
  42
1
  50
15
  71
0
  3
isocp.shx
  0
ENDTAB
  0
TABLE
  2
LAYER
  70
1
  0
LAYER
  2
BLACK
  70
0
  62
7
  6
CONTINUOUS
  0
ENDTAB
  0
ENDSEC
  0
SECTION
  2
ENTITIES
0
LINE
8
BLACK
6
CONTINUOUS
10
112.5
20
-98.9499999999999886
11
112.5353549999999956
21
-98.9646449999999902
0
LINE
8
BLACK
6
CONTINUOUS
10
112.5353549999999956
20
-98.9646449999999902
11
112.5499999999999972
21
-99.
0
LINE
8
BLACK
6
CONTINUOUS
10
112.5499999999999972
20
-99.
11
112.5499999999999972
21
-112.
0
LINE
8
BLACK
6
CONTINUOUS
10
112.5499999999999972
20
-112.
11
112.5353549999999956
21
-112.0353549999999956
0
LINE
8
BLACK
6
CONTINUOUS
10
112.5353549999999956
20
-112.0353549999999956
11
112.5
21
-112.0499999999999972
0
LINE
8
BLACK
6
CONTINUOUS
10
112.5
20
-112.0499999999999972
11
98.5
21
-112.0499999999999972
0
LINE
8
BLACK
6
CONTINUOUS
10
98.5
20
-112.0499999999999972
11
98.4646449999999902
21
-112.0353549999999956
0
LINE
8
BLACK
6
CONTINUOUS
10
98.4646449999999902
20
-112.0353549999999956
11
98.4499999999999886
21
-112.
0
LINE
8
BLACK
6
CONTINUOUS
10
98.4499999999999886
20
-112.
11
98.4499999999999886
21
-99.
0
LINE
8
BLACK
6
CONTINUOUS
10
98.4499999999999886
20
-99.
11
98.4646449999999902
21
-98.9646449999999902
0
LINE
8
BLACK
6
CONTINUOUS
10
98.4646449999999902
20
-98.9646449999999902
11
98.5
21
-98.9499999999999886
0
LINE
8
BLACK
6
CONTINUOUS
10
98.5
20
-98.9499999999999886
11
112.5
21
-98.9499999999999886
0
LINE
8
BLACK
6
CONTINUOUS
10
98.5499999999999972
20
-99.0499999999999972
11
98.5499999999999972
21
-111.9499999999999886
0
LINE
8
BLACK
6
CONTINUOUS
10
98.5499999999999972
20
-111.9499999999999886
11
112.4499999999999886
21
-111.9499999999999886
0
LINE
8
BLACK
6
CONTINUOUS
10
112.4499999999999886
20
-111.9499999999999886
11
112.4499999999999886
21
-99.0499999999999972
0
LINE
8
BLACK
6
CONTINUOUS
10
112.4499999999999886
20
-99.0499999999999972
11
98.5499999999999972
21
-99.0499999999999972
0
LINE
8
BLACK
6
CONTINUOUS
10
133.
20
-39.4499999999999957
11
133.0353549999999814
21
-39.4646449999999973
0
LINE
8
BLACK
6
CONTINUOUS
10
133.0353549999999814
20
-39.4646449999999973
11
171.5353549999999814
21
-77.9646449999999902
0
LINE
8
BLACK
6
CONTINUOUS
10
171.5353549999999814
20
-77.9646449999999902
11
171.5499999999999829
21
-78.
0
LINE
8
BLACK
6
CONTINUOUS
10
171.5499999999999829
20
-78.
11
171.5499999999999829
21
-93.
0
LINE
8
BLACK
6
CONTINUOUS
10
171.5499999999999829
20
-93.
11
171.5353549999999814
21
-93.0353549999999956
0
LINE
8
BLACK
6
CONTINUOUS
10
171.5353549999999814
20
-93.0353549999999956
11
166.5499999999999829
21
-98.020709999999994
0
LINE
8
BLACK
6
CONTINUOUS
10
166.5499999999999829
20
-98.020709999999994
11
166.5499999999999829
21
-105.5
0
LINE
8
BLACK
6
CONTINUOUS
10
166.5499999999999829
20
-105.5
11
166.5499999999999829
21
-112.9792899999999918
0
LINE
8
BLACK
6
CONTINUOUS
10
166.5499999999999829
20
-112.9792899999999918
11
171.5353549999999814
21
-117.9646449999999902
0
LINE
8
BLACK
6
CONTINUOUS
10
171.5353549999999814
20
-117.9646449999999902
11
171.5499999999999829
21
-118.
0
LINE
8
BLACK
6
CONTINUOUS
10
171.5499999999999829
20
-118.
11
171.5499999999999829
21
-133.
0
LINE
8
BLACK
6
CONTINUOUS
10
171.5499999999999829
20
-133.
11
171.5353549999999814
21
-133.0353549999999814
0
LINE
8
BLACK
6
CONTINUOUS
10
171.5353549999999814
20
-133.0353549999999814
11
133.0353549999999814
21
-171.5353549999999814
0
LINE
8
BLACK
6
CONTINUOUS
10
133.0353549999999814
20
-171.5353549999999814
11
133.
21
-171.5499999999999829
0
LINE
8
BLACK
6
CONTINUOUS
10
133.
20
-171.5499999999999829
11
78.
21
-171.5499999999999829
0
LINE
8
BLACK
6
CONTINUOUS
10
78.
20
-171.5499999999999829
11
77.9646449999999902
21
-171.5353549999999814
0
LINE
8
BLACK
6
CONTINUOUS
10
77.9646449999999902
20
-171.5353549999999814
11
39.4646449999999973
21
-133.0353549999999814
0
LINE
8
BLACK
6
CONTINUOUS
10
39.4646449999999973
20
-133.0353549999999814
11
39.4499999999999957
21
-133.
0
LINE
8
BLACK
6
CONTINUOUS
10
39.4499999999999957
20
-133.
11
39.4499999999999957
21
-118.
0
LINE
8
BLACK
6
CONTINUOUS
10
39.4499999999999957
20
-118.
11
39.4646449999999973
21
-117.9646449999999902
0
LINE
8
BLACK
6
CONTINUOUS
10
39.4646449999999973
20
-117.9646449999999902
11
44.4499999999999957
21
-112.9792899999999918
0
LINE
8
BLACK
6
CONTINUOUS
10
44.4499999999999957
20
-112.9792899999999918
11
44.4499999999999957
21
-105.5
0
LINE
8
BLACK
6
CONTINUOUS
10
44.4499999999999957
20
-105.5
11
44.4499999999999957
21
-98.020709999999994
0
LINE
8
BLACK
6
CONTINUOUS
10
44.4499999999999957
20
-98.020709999999994
11
39.4646449999999973
21
-93.0353549999999956
0
LINE
8
BLACK
6
CONTINUOUS
10
39.4646449999999973
20
-93.0353549999999956
11
39.4499999999999957
21
-93.
0
LINE
8
BLACK
6
CONTINUOUS
10
39.4499999999999957
20
-93.
11
39.4499999999999957
21
-78.
0
LINE
8
BLACK
6
CONTINUOUS
10
39.4499999999999957
20
-78.
11
39.4646449999999973
21
-77.9646449999999902
0
LINE
8
BLACK
6
CONTINUOUS
10
39.4646449999999973
20
-77.9646449999999902
11
77.9646449999999902
21
-39.4646449999999973
0
LINE
8
BLACK
6
CONTINUOUS
10
77.9646449999999902
20
-39.4646449999999973
11
78.
21
-39.4499999999999957
0
LINE
8
BLACK
6
CONTINUOUS
10
78.
20
-39.4499999999999957
11
133.
21
-39.4499999999999957
0
LINE
8
BLACK
6
CONTINUOUS
10
78.020709999999994
20
-39.5499999999999972
11
39.5499999999999972
21
-78.020709999999994
0
LINE
8
BLACK
6
CONTINUOUS
10
39.5499999999999972
20
-78.020709999999994
11
39.5499999999999972
21
-92.9792899999999918
0
LINE
8
BLACK
6
CONTINUOUS
10
39.5499999999999972
20
-92.9792899999999918
11
44.5353549999999956
21
-97.9646449999999902
0
LINE
8
BLACK
6
CONTINUOUS
10
44.5353549999999956
20
-97.9646449999999902
11
44.5499999999999972
21
-98.
0
LINE
8
BLACK
6
CONTINUOUS
10
44.5499999999999972
20
-98.
11
44.5499999999999972
21
-105.5
0
LINE
8
BLACK
6
CONTINUOUS
10
44.5499999999999972
20
-105.5
11
44.5499999999999972
21
-113.
0
LINE
8
BLACK
6
CONTINUOUS
10
44.5499999999999972
20
-113.
11
44.5353549999999956
21
-113.0353549999999956
0
LINE
8
BLACK
6
CONTINUOUS
10
44.5353549999999956
20
-113.0353549999999956
11
39.5499999999999972
21
-118.020709999999994
0
LINE
8
BLACK
6
CONTINUOUS
10
39.5499999999999972
20
-118.020709999999994
11
39.5499999999999972
21
-132.9792899999999918
0
LINE
8
BLACK
6
CONTINUOUS
10
39.5499999999999972
20
-132.9792899999999918
11
78.020709999999994
21
-171.4499999999999886
0
LINE
8
BLACK
6
CONTINUOUS
10
78.020709999999994
20
-171.4499999999999886
11
132.9792899999999918
21
-171.4499999999999886
0
LINE
8
BLACK
6
CONTINUOUS
10
132.9792899999999918
20
-171.4499999999999886
11
171.4499999999999886
21
-132.9792899999999918
0
LINE
8
BLACK
6
CONTINUOUS
10
171.4499999999999886
20
-132.9792899999999918
11
171.4499999999999886
21
-118.020709999999994
0
LINE
8
BLACK
6
CONTINUOUS
10
171.4499999999999886
20
-118.020709999999994
11
166.4646449999999902
21
-113.0353549999999956
0
LINE
8
BLACK
6
CONTINUOUS
10
166.4646449999999902
20
-113.0353549999999956
11
166.4499999999999886
21
-113.
0
LINE
8
BLACK
6
CONTINUOUS
10
166.4499999999999886
20
-113.
11
166.4499999999999886
21
-105.5
0
LINE
8
BLACK
6
CONTINUOUS
10
166.4499999999999886
20
-105.5
11
166.4499999999999886
21
-98.
0
LINE
8
BLACK
6
CONTINUOUS
10
166.4499999999999886
20
-98.
11
166.4646449999999902
21
-97.9646449999999902
0
LINE
8
BLACK
6
CONTINUOUS
10
166.4646449999999902
20
-97.9646449999999902
11
171.4499999999999886
21
-92.9792899999999918
0
LINE
8
BLACK
6
CONTINUOUS
10
171.4499999999999886
20
-92.9792899999999918
11
171.4499999999999886
21
-78.020709999999994
0
LINE
8
BLACK
6
CONTINUOUS
10
171.4499999999999886
20
-78.020709999999994
11
132.9792899999999918
21
-39.5499999999999972
0
LINE
8
BLACK
6
CONTINUOUS
10
132.9792899999999918
20
-39.5499999999999972
11
78.020709999999994
21
-39.5499999999999972
  0
ENDSEC
  0
EOF
