%TF.GenerationSoftware,KiCad,Pcbnew,7.0.9*%
%TF.CreationDate,2023-12-29T02:13:22+01:00*%
%TF.ProjectId,bohlebots-rpi-cm4-carrier,626f686c-6562-46f7-9473-2d7270692d63,v01*%
%TF.SameCoordinates,Original*%
%TF.FileFunction,Paste,Top*%
%TF.FilePolarity,Positive*%
%FSLAX46Y46*%
G04 Gerber Fmt 4.6, Leading zero omitted, Abs format (unit mm)*
G04 Created by KiCad (PCBNEW 7.0.9) date 2023-12-29 02:13:22*
%MOMM*%
%LPD*%
G01*
G04 APERTURE LIST*
G04 Aperture macros list*
%AMRoundRect*
0 Rectangle with rounded corners*
0 $1 Rounding radius*
0 $2 $3 $4 $5 $6 $7 $8 $9 X,Y pos of 4 corners*
0 Add a 4 corners polygon primitive as box body*
4,1,4,$2,$3,$4,$5,$6,$7,$8,$9,$2,$3,0*
0 Add four circle primitives for the rounded corners*
1,1,$1+$1,$2,$3*
1,1,$1+$1,$4,$5*
1,1,$1+$1,$6,$7*
1,1,$1+$1,$8,$9*
0 Add four rect primitives between the rounded corners*
20,1,$1+$1,$2,$3,$4,$5,0*
20,1,$1+$1,$4,$5,$6,$7,0*
20,1,$1+$1,$6,$7,$8,$9,0*
20,1,$1+$1,$8,$9,$2,$3,0*%
G04 Aperture macros list end*
%ADD10R,0.700000X0.200000*%
%ADD11RoundRect,0.137500X-0.262500X0.137500X-0.262500X-0.137500X0.262500X-0.137500X0.262500X0.137500X0*%
%ADD12RoundRect,0.137500X0.262500X-0.137500X0.262500X0.137500X-0.262500X0.137500X-0.262500X-0.137500X0*%
G04 APERTURE END LIST*
D10*
%TO.C,U1*%
X124000000Y-77800000D03*
X120920000Y-77800000D03*
X124000000Y-77400000D03*
X120920000Y-77400000D03*
X124000000Y-77000000D03*
X120920000Y-77000000D03*
X124000000Y-76600000D03*
X120920000Y-76600000D03*
X124000000Y-76200000D03*
X120920000Y-76200000D03*
X124000000Y-75800000D03*
X120920000Y-75800000D03*
X124000000Y-75400000D03*
X120920000Y-75400000D03*
X124000000Y-75000000D03*
X120920000Y-75000000D03*
X124000000Y-74600000D03*
X120920000Y-74600000D03*
X124000000Y-74200000D03*
X120920000Y-74200000D03*
X124000000Y-73800000D03*
X120920000Y-73800000D03*
X124000000Y-73400000D03*
X120920000Y-73400000D03*
X124000000Y-73000000D03*
X120920000Y-73000000D03*
X124000000Y-72600000D03*
X120920000Y-72600000D03*
X124000000Y-72200000D03*
X120920000Y-72200000D03*
X124000000Y-71800000D03*
X120920000Y-71800000D03*
X124000000Y-71400000D03*
X120920000Y-71400000D03*
X124000000Y-71000000D03*
X120920000Y-71000000D03*
X124000000Y-70600000D03*
X120920000Y-70600000D03*
X124000000Y-70200000D03*
X120920000Y-70200000D03*
X124000000Y-69800000D03*
X120920000Y-69800000D03*
X124000000Y-69400000D03*
X120920000Y-69400000D03*
X124000000Y-69000000D03*
X120920000Y-69000000D03*
X124000000Y-68600000D03*
X120920000Y-68600000D03*
X124000000Y-68200000D03*
X120920000Y-68200000D03*
X124000000Y-67800000D03*
X120920000Y-67800000D03*
X124000000Y-67400000D03*
X120920000Y-67400000D03*
X124000000Y-67000000D03*
X120920000Y-67000000D03*
X124000000Y-66600000D03*
X120920000Y-66600000D03*
X124000000Y-66200000D03*
X120920000Y-66200000D03*
X124000000Y-65800000D03*
X120920000Y-65800000D03*
X124000000Y-65400000D03*
X120920000Y-65400000D03*
X124000000Y-65000000D03*
X120920000Y-65000000D03*
X124000000Y-64600000D03*
X120920000Y-64600000D03*
X124000000Y-64200000D03*
X120920000Y-64200000D03*
X124000000Y-63800000D03*
X120920000Y-63800000D03*
X124000000Y-63400000D03*
X120920000Y-63400000D03*
X124000000Y-63000000D03*
X120920000Y-63000000D03*
X124000000Y-62600000D03*
X120920000Y-62600000D03*
X124000000Y-62200000D03*
X120920000Y-62200000D03*
X124000000Y-61800000D03*
X120920000Y-61800000D03*
X124000000Y-61400000D03*
X120920000Y-61400000D03*
X124000000Y-61000000D03*
X120920000Y-61000000D03*
X124000000Y-60600000D03*
X120920000Y-60600000D03*
X124000000Y-60200000D03*
X120920000Y-60200000D03*
X124000000Y-59800000D03*
X120920000Y-59800000D03*
X124000000Y-59400000D03*
X120920000Y-59400000D03*
X124000000Y-59000000D03*
X120920000Y-59000000D03*
X124000000Y-58600000D03*
X120920000Y-58600000D03*
X124000000Y-58200000D03*
X120920000Y-58200000D03*
X90080000Y-77800000D03*
X87000000Y-77800000D03*
X90080000Y-77400000D03*
X87000000Y-77400000D03*
X90080000Y-77000000D03*
X87000000Y-77000000D03*
X90080000Y-76600000D03*
X87000000Y-76600000D03*
X90080000Y-76200000D03*
X87000000Y-76200000D03*
X90080000Y-75800000D03*
X87000000Y-75800000D03*
X90080000Y-75400000D03*
X87000000Y-75400000D03*
X90080000Y-75000000D03*
X87000000Y-75000000D03*
X90080000Y-74600000D03*
X87000000Y-74600000D03*
X90080000Y-74200000D03*
X87000000Y-74200000D03*
X90080000Y-73800000D03*
X87000000Y-73800000D03*
X90080000Y-73400000D03*
X87000000Y-73400000D03*
X90080000Y-73000000D03*
X87000000Y-73000000D03*
X90080000Y-72600000D03*
X87000000Y-72600000D03*
X90080000Y-72200000D03*
X87000000Y-72200000D03*
X90080000Y-71800000D03*
X87000000Y-71800000D03*
X90080000Y-71400000D03*
X87000000Y-71400000D03*
X90080000Y-71000000D03*
X87000000Y-71000000D03*
X90080000Y-70600000D03*
X87000000Y-70600000D03*
X90080000Y-70200000D03*
X87000000Y-70200000D03*
X90080000Y-69800000D03*
X87000000Y-69800000D03*
X90080000Y-69400000D03*
X87000000Y-69400000D03*
X90080000Y-69000000D03*
X87000000Y-69000000D03*
X90080000Y-68600000D03*
X87000000Y-68600000D03*
X90080000Y-68200000D03*
X87000000Y-68200000D03*
X90080000Y-67800000D03*
X87000000Y-67800000D03*
X90080000Y-67400000D03*
X87000000Y-67400000D03*
X90080000Y-67000000D03*
X87000000Y-67000000D03*
X90080000Y-66600000D03*
X87000000Y-66600000D03*
X90080000Y-66200000D03*
X87000000Y-66200000D03*
X90080000Y-65800000D03*
X87000000Y-65800000D03*
X90080000Y-65400000D03*
X87000000Y-65400000D03*
X90080000Y-65000000D03*
X87000000Y-65000000D03*
X90080000Y-64600000D03*
X87000000Y-64600000D03*
X90080000Y-64200000D03*
X87000000Y-64200000D03*
X90080000Y-63800000D03*
X87000000Y-63800000D03*
X90080000Y-63400000D03*
X87000000Y-63400000D03*
X90080000Y-63000000D03*
X87000000Y-63000000D03*
X90080000Y-62600000D03*
X87000000Y-62600000D03*
X90080000Y-62200000D03*
X87000000Y-62200000D03*
X90080000Y-61800000D03*
X87000000Y-61800000D03*
X90080000Y-61400000D03*
X87000000Y-61400000D03*
X90080000Y-61000000D03*
X87000000Y-61000000D03*
X90080000Y-60600000D03*
X87000000Y-60600000D03*
X90080000Y-60200000D03*
X87000000Y-60200000D03*
X90080000Y-59800000D03*
X87000000Y-59800000D03*
X90080000Y-59400000D03*
X87000000Y-59400000D03*
X90080000Y-59000000D03*
X87000000Y-59000000D03*
X90080000Y-58600000D03*
X87000000Y-58600000D03*
X90080000Y-58200000D03*
X87000000Y-58200000D03*
%TD*%
D11*
%TO.C,U3*%
X131200000Y-108950000D03*
X131200000Y-108000000D03*
X131200000Y-107050000D03*
X128800000Y-107050000D03*
X128800000Y-108000000D03*
X128800000Y-108950000D03*
%TD*%
%TO.C,U5*%
X65170000Y-106450000D03*
X65170000Y-105500000D03*
X65170000Y-104550000D03*
X62770000Y-104550000D03*
X62770000Y-105500000D03*
X62770000Y-106450000D03*
%TD*%
D12*
%TO.C,U4*%
X128800000Y-103250000D03*
X128800000Y-104200000D03*
X128800000Y-105150000D03*
X131200000Y-105150000D03*
X131200000Y-104200000D03*
X131200000Y-103250000D03*
%TD*%
M02*
