M48
; DRILL file {KiCad 7.0.9} date Fri Dec 29 02:13:29 2023
; FORMAT={-:-/ absolute / metric / decimal}
; #@! TF.CreationDate,2023-12-29T02:13:29+01:00
; #@! TF.GenerationSoftware,Kicad,Pcbnew,7.0.9
; #@! TF.FileFunction,Plated,1,2,PTH
FMAT,2
METRIC
; #@! TA.AperFunction,Plated,PTH,ViaDrill
T1C0.300
; #@! TA.AperFunction,Plated,PTH,ViaDrill
T2C0.400
; #@! TA.AperFunction,Plated,PTH,ComponentDrill
T3C0.600
; #@! TA.AperFunction,Plated,PTH,ComponentDrill
T4C0.800
; #@! TA.AperFunction,Plated,PTH,ComponentDrill
T5C0.813
; #@! TA.AperFunction,Plated,PTH,ComponentDrill
T6C0.900
; #@! TA.AperFunction,Plated,PTH,ComponentDrill
T7C0.965
; #@! TA.AperFunction,Plated,PTH,ComponentDrill
T8C1.000
; #@! TA.AperFunction,Plated,PTH,ComponentDrill
T9C1.020
; #@! TA.AperFunction,Plated,PTH,ComponentDrill
T10C1.092
; #@! TA.AperFunction,Plated,PTH,ComponentDrill
T11C1.651
; #@! TA.AperFunction,Plated,PTH,ComponentDrill
T12C3.251
%
G90
G05
T1
X63.52Y-105.5
X64.42Y-105.5
X81.8Y-59.45
X106.0Y-59.5
X106.8Y-63.8
X106.85Y-63.0
X107.3Y-72.0
X108.1Y-72.0
X108.9Y-72.0
X109.7Y-72.0
X110.5Y-72.0
X110.5Y-120.95
X111.8Y-66.0
X112.05Y-71.5
X112.7Y-72.0
X116.4Y-66.6
X116.5Y-59.5
X116.5Y-62.5
X116.5Y-63.4
X116.7Y-104.25
X116.95Y-67.2
X117.3Y-76.45
X117.85Y-75.85
X117.95Y-71.9
X118.0Y-68.4
X118.75Y-80.0
X118.75Y-97.45
X119.15Y-69.0
X119.2Y-86.35
X119.35Y-70.55
X119.4Y-79.3
X119.65Y-82.05
X120.15Y-71.4
X120.15Y-72.6
X121.0Y-80.0
X121.65Y-73.0
X121.75Y-74.15
X121.8Y-75.0
X121.9Y-69.35
X122.1Y-68.05
X123.15Y-74.95
X123.35Y-81.15
X124.75Y-73.8
X125.7Y-70.3
X125.7Y-71.55
X125.9Y-74.6
X126.75Y-68.65
X129.55Y-104.2
X132.0Y-108.0
T2
X41.0Y-79.0
X41.0Y-119.0
X41.5Y-92.0
X41.5Y-132.5
X46.0Y-97.5
X46.0Y-113.5
X54.2Y-137.6
X55.816Y-96.228
X56.55Y-95.55
X57.282Y-94.87
X57.487Y-72.637
X60.303Y-114.284
X61.009Y-114.991
X61.75Y-115.8
X65.0Y-108.0
X67.475Y-84.974
X70.0Y-80.0
X70.956Y-132.956
X71.974Y-130.525
X73.5Y-46.5
X78.5Y-169.5
X79.0Y-119.0
X83.0Y-40.6
X85.793Y-105.293
X86.5Y-106.0
X87.5Y-106.0
X89.045Y-129.045
X89.752Y-128.338
X89.8Y-87.35
X89.8Y-88.35
X90.85Y-86.75
X96.5Y-158.0
X96.5Y-160.5
X100.0Y-125.0
X100.35Y-94.224
X103.5Y-44.0
X103.5Y-46.0
X103.5Y-48.0
X104.5Y-42.5
X104.5Y-50.0
X105.75Y-69.5
X106.5Y-42.5
X106.5Y-50.0
X107.0Y-52.5
X108.0Y-56.599
X108.012Y-52.512
X108.5Y-42.5
X108.5Y-50.0
X110.0Y-57.324
X110.0Y-85.0
X110.5Y-42.5
X110.5Y-50.0
X110.5Y-125.0
X110.815Y-55.4
X111.248Y-80.0
X112.0Y-92.5
X112.0Y-93.5
X112.5Y-42.5
X112.5Y-50.0
X113.5Y-53.5
X114.5Y-42.5
X114.5Y-50.0
X115.197Y-84.5
X115.5Y-44.0
X115.5Y-46.0
X115.5Y-48.0
X125.0Y-137.05
X132.0Y-41.0
X132.5Y-169.5
X139.0Y-94.142
X139.026Y-80.475
X140.294Y-77.794
X140.9Y-94.85
X141.0Y-131.0
X142.6Y-95.575
X143.525Y-126.026
X154.314Y-100.309
X155.312Y-100.262
X156.037Y-141.4
X156.1Y-101.6
X165.0Y-113.5
X165.5Y-97.5
X169.5Y-79.0
X170.0Y-118.5
X170.0Y-132.5
T3
X93.64Y-127.0
X94.275Y-138.43
X94.275Y-140.97
X94.275Y-143.51
X94.275Y-146.05
X116.5Y-128.27
X116.5Y-130.81
X116.5Y-133.35
X116.5Y-135.89
X116.5Y-138.43
X116.5Y-140.97
X116.5Y-143.51
X116.5Y-146.05
T4
X43.115Y-78.601
X44.911Y-76.805
X46.707Y-75.009
X47.641Y-136.924
X48.503Y-73.213
X49.437Y-138.72
X50.299Y-71.417
X51.233Y-140.516
X52.095Y-69.621
X52.5Y-103.0
X53.029Y-142.312
X53.892Y-67.825
X54.5Y-103.0
X54.825Y-144.108
X55.688Y-66.029
X56.621Y-145.905
X57.484Y-64.233
X58.417Y-147.701
X59.28Y-62.437
X59.28Y-94.766
X60.213Y-117.168
X60.213Y-149.497
X61.076Y-60.641
X61.076Y-92.97
X62.009Y-118.964
X62.009Y-151.293
X62.872Y-91.174
X63.805Y-120.76
X63.805Y-153.089
X64.668Y-89.378
X65.601Y-122.556
X65.601Y-154.885
X66.464Y-87.581
X67.397Y-124.352
X68.26Y-85.785
X69.193Y-126.148
X70.056Y-83.989
X70.989Y-127.944
X71.852Y-82.193
X72.785Y-129.74
X73.648Y-80.397
X74.581Y-131.536
X75.444Y-78.601
X76.378Y-133.332
X77.24Y-76.805
X77.725Y-103.581
X77.725Y-106.121
X78.174Y-135.128
X79.036Y-75.009
X79.97Y-136.924
X80.265Y-104.851
X80.265Y-107.391
X80.832Y-73.213
X81.766Y-138.72
X85.69Y-110.5
X85.69Y-114.5
X93.31Y-110.5
X93.31Y-114.5
X101.655Y-138.5
X109.275Y-138.5
X128.5Y-94.0
X128.69Y-58.0
X129.234Y-72.28
X130.168Y-137.787
X130.5Y-94.0
X131.03Y-74.076
X131.964Y-135.991
X132.826Y-75.872
X133.76Y-134.195
X134.622Y-77.668
X135.556Y-132.399
X136.31Y-58.0
X136.419Y-79.464
X137.352Y-130.603
X138.215Y-81.26
X139.148Y-128.807
X140.011Y-83.056
X140.944Y-127.011
X141.807Y-84.852
X142.74Y-125.215
X143.603Y-86.648
X144.536Y-123.419
X145.399Y-56.115
X145.399Y-88.444
X146.332Y-121.622
X147.195Y-57.911
X147.195Y-90.24
X148.128Y-119.826
X148.991Y-59.707
X148.991Y-92.036
X149.924Y-118.03
X149.924Y-150.359
X150.787Y-61.503
X150.787Y-93.832
X151.72Y-116.234
X151.72Y-148.563
X152.583Y-63.299
X153.516Y-146.767
X154.379Y-65.095
X155.312Y-144.971
X156.175Y-66.892
X157.108Y-143.175
X157.971Y-68.688
X158.905Y-141.379
X159.767Y-70.484
X160.701Y-139.583
X161.563Y-72.28
X162.497Y-137.787
X163.359Y-74.076
X164.293Y-135.991
X166.089Y-134.195
X167.885Y-132.399
T5
X63.55Y-73.45
X63.55Y-137.55
X64.964Y-72.036
X64.964Y-138.964
X66.379Y-70.621
X66.379Y-140.379
X67.793Y-69.207
X67.793Y-141.793
X69.207Y-67.793
X69.207Y-143.207
X70.621Y-66.379
X70.621Y-144.621
X72.036Y-64.964
X72.036Y-146.036
X73.45Y-63.55
X73.45Y-147.45
X137.55Y-63.55
X137.55Y-147.45
X138.964Y-64.964
X138.964Y-146.036
X140.379Y-66.379
X140.379Y-144.621
X141.793Y-67.793
X141.793Y-143.207
X143.207Y-69.207
X143.207Y-141.793
X144.621Y-70.621
X144.621Y-140.379
X146.036Y-72.036
X146.036Y-138.964
X147.45Y-73.45
X147.45Y-137.55
T6
X134.96Y-50.5
X137.5Y-50.5
T7
X133.966Y-100.42
X133.966Y-102.96
X133.966Y-105.5
X133.966Y-108.04
X136.506Y-101.69
X136.506Y-104.23
X136.506Y-106.77
X136.506Y-109.31
T8
X48.0Y-102.96
X48.0Y-105.5
X48.0Y-108.04
X60.5Y-101.7
X60.5Y-104.24
X60.5Y-106.78
X60.5Y-109.32
X73.5Y-51.235
X73.5Y-53.775
X78.14Y-155.515
X78.14Y-158.055
X78.14Y-160.595
X78.14Y-163.135
X79.46Y-44.88
X79.46Y-47.42
X79.46Y-49.96
X79.46Y-52.5
X79.46Y-55.04
X79.46Y-57.58
X82.0Y-44.88
X82.0Y-47.42
X82.0Y-49.96
X82.0Y-52.5
X82.0Y-55.04
X82.0Y-57.58
X101.0Y-155.515
X101.0Y-158.055
X101.0Y-160.595
X101.0Y-163.135
X110.07Y-155.515
X110.07Y-158.055
X110.07Y-160.595
X110.07Y-163.135
X129.0Y-44.88
X129.0Y-47.42
X129.0Y-49.96
X129.0Y-52.5
X132.93Y-155.515
X132.93Y-158.055
X132.93Y-160.595
X132.93Y-163.135
X163.0Y-102.945
X163.0Y-105.485
X163.0Y-108.025
T9
X89.97Y-117.93
X89.97Y-120.47
X92.51Y-120.47
X95.05Y-120.47
X97.59Y-120.47
X100.13Y-120.47
X115.97Y-117.93
X115.97Y-120.47
X118.51Y-120.47
X121.05Y-120.47
X123.59Y-120.47
X126.13Y-120.47
T10
X146.966Y-99.175
X146.966Y-101.715
X146.966Y-109.285
X146.966Y-111.825
T11
X138.966Y-97.625
X138.966Y-113.375
T12
X142.856Y-99.785
X142.856Y-111.215
T0
M30
